<?xml version="1.0" encoding="utf-8"?>
<!-- Generator: Adobe Illustrator 16.0.0, SVG Export Plug-In . SVG Version: 6.00 Build 0)  -->
<!DOCTYPE svg PUBLIC "-//W3C//DTD SVG 1.1//EN" "http://www.w3.org/Graphics/SVG/1.1/DTD/svg11.dtd">
<svg version="1.1" id="Layer_1" xmlns="http://www.w3.org/2000/svg" xmlns:xlink="http://www.w3.org/1999/xlink" x="0px" y="0px"
	 width="40px" height="40px" viewBox="0 0 40 40" enable-background="new 0 0 40 40" xml:space="preserve">
<g>
	<path fill="#FFFEFF" d="M38.774,0.127H0.856c-0.575,0-1.042,0.463-1.042,1.033v37.934c0,0.57,0.467,1.033,1.042,1.033h12.605v-0.01
		c0.569-0.007,1.004-0.322,1.025-0.857c0.051-1.388,0.015-2.779,0.015-4.122c-1.017,0.046-1.984,0.173-2.944,0.118
		c-2.113-0.12-3.737-1.015-4.579-3.066c-0.499-1.216-1.25-2.256-2.422-2.95c-0.218-0.13-0.409-0.319-0.577-0.514
		c-0.218-0.254-0.178-0.513,0.168-0.582c0.348-0.072,0.729-0.12,1.074-0.057c1.35,0.252,2.283,1.092,2.997,2.207
		c1.413,2.209,3.588,2.888,6.035,1.866c0.136-0.057,0.31-0.195,0.335-0.322c0.198-0.976,0.567-1.868,1.31-2.65
		c-0.825-0.152-1.591-0.264-2.341-0.437c-2.16-0.494-4.102-1.387-5.519-3.155c-1.159-1.446-1.688-3.136-1.932-4.938
		c-0.382-2.817-0.04-5.456,1.913-7.71c0.097-0.114,0.152-0.348,0.108-0.488c-0.488-1.585-0.414-3.155,0.07-4.722
		c0.254-0.823,0.324-0.863,1.171-0.75C9.421,6.998,9.47,7.01,9.523,7.019c1.695,0.278,3.158,1.092,4.596,1.968
		c0.193,0.117,0.488,0.191,0.7,0.139c3.436-0.827,6.868-0.823,10.303,0.004c0.199,0.048,0.467-0.021,0.658-0.12
		c0.78-0.406,1.529-0.877,2.323-1.26c0.921-0.448,1.893-0.783,2.938-0.766c0.182,0.004,0.467,0.176,0.528,0.339
		c0.628,1.651,0.76,3.335,0.259,5.054c-0.054,0.184,0.025,0.447,0.125,0.628c0.494,0.898,1.187,1.729,1.498,2.685
		c0.955,2.908,0.607,5.789-0.691,8.524c-1.19,2.507-3.397,3.775-6.01,4.432c-0.881,0.222-1.785,0.356-2.738,0.542
		c1.248,1.291,1.443,2.867,1.422,4.52c-0.023,1.702-0.017,3.406-0.019,5.111c0,0.824,0.362,1.281,0.997,1.307
		c0,0.004,13.401,0.004,13.401,0.004V1.16C39.814,0.59,39.35,0.127,38.774,0.127L38.774,0.127z M38.774,0.127"/>
</g>
</svg>
