<?xml version="1.0" encoding="utf-8"?>
<!-- Generator: Adobe Illustrator 16.0.0, SVG Export Plug-In . SVG Version: 6.00 Build 0)  -->
<!DOCTYPE svg PUBLIC "-//W3C//DTD SVG 1.1//EN" "http://www.w3.org/Graphics/SVG/1.1/DTD/svg11.dtd">
<svg version="1.1" id="Layer_1" xmlns="http://www.w3.org/2000/svg" xmlns:xlink="http://www.w3.org/1999/xlink" x="0px" y="0px"
	 width="40px" height="40px" viewBox="0 0 40 40" enable-background="new 0 0 40 40" xml:space="preserve">
<rect fill="#FFFFFF" width="40" height="40"/>
<g>
	<path fill="#C536A4" d="M20,16.022c-2.192,0-3.978,1.785-3.978,3.978c0,2.193,1.786,3.978,3.978,3.978
		c2.194,0,3.978-1.784,3.978-3.978C23.978,17.807,22.193,16.022,20,16.022L20,16.022z M20,16.022c-2.192,0-3.978,1.785-3.978,3.978
		c0,2.193,1.786,3.978,3.978,3.978c2.194,0,3.978-1.784,3.978-3.978C23.978,17.807,22.193,16.022,20,16.022L20,16.022z
		 M26.626,9.538H13.374c-2.115,0-3.836,1.721-3.836,3.836v13.252c0,2.115,1.721,3.837,3.836,3.837h13.252
		c2.115,0,3.837-1.722,3.837-3.837V13.374C30.463,11.258,28.741,9.538,26.626,9.538L26.626,9.538z M20,26.889
		c-3.798,0-6.888-3.091-6.888-6.889c0-3.798,3.09-6.889,6.888-6.889c3.798,0,6.889,3.09,6.889,6.889
		C26.889,23.798,23.798,26.889,20,26.889L20,26.889z M27.11,14.536c-0.899,0-1.631-0.731-1.631-1.63c0-0.898,0.731-1.63,1.631-1.63
		c0.898,0,1.63,0.731,1.63,1.63C28.74,13.805,28.009,14.536,27.11,14.536L27.11,14.536z M20,16.022
		c-2.192,0-3.978,1.785-3.978,3.978c0,2.193,1.786,3.978,3.978,3.978c2.194,0,3.978-1.784,3.978-3.978
		C23.978,17.807,22.193,16.022,20,16.022L20,16.022z M26.626,9.538H13.374c-2.115,0-3.836,1.721-3.836,3.836v13.252
		c0,2.115,1.721,3.837,3.836,3.837h13.252c2.115,0,3.837-1.722,3.837-3.837V13.374C30.463,11.258,28.741,9.538,26.626,9.538
		L26.626,9.538z M20,26.889c-3.798,0-6.888-3.091-6.888-6.889c0-3.798,3.09-6.889,6.888-6.889c3.798,0,6.889,3.09,6.889,6.889
		C26.889,23.798,23.798,26.889,20,26.889L20,26.889z M27.11,14.536c-0.899,0-1.631-0.731-1.631-1.63c0-0.898,0.731-1.63,1.631-1.63
		c0.898,0,1.63,0.731,1.63,1.63C28.74,13.805,28.009,14.536,27.11,14.536L27.11,14.536z M20,16.022
		c-2.192,0-3.978,1.785-3.978,3.978c0,2.193,1.786,3.978,3.978,3.978c2.194,0,3.978-1.784,3.978-3.978
		C23.978,17.807,22.193,16.022,20,16.022L20,16.022z M0,0v40h40V0H0z M33.373,26.626c0,3.721-3.026,6.747-6.747,6.747H13.374
		c-3.72,0-6.747-3.026-6.747-6.747V13.374c0-3.721,3.027-6.747,6.747-6.747h13.252c3.721,0,6.747,3.026,6.747,6.747V26.626z
		 M26.626,9.538H13.374c-2.115,0-3.836,1.721-3.836,3.836v13.252c0,2.115,1.721,3.837,3.836,3.837h13.252
		c2.115,0,3.837-1.722,3.837-3.837V13.374C30.463,11.258,28.741,9.538,26.626,9.538L26.626,9.538z M20,26.889
		c-3.798,0-6.888-3.091-6.888-6.889c0-3.798,3.09-6.889,6.888-6.889c3.798,0,6.889,3.09,6.889,6.889
		C26.889,23.798,23.798,26.889,20,26.889L20,26.889z M27.11,14.536c-0.899,0-1.631-0.731-1.631-1.63c0-0.898,0.731-1.63,1.631-1.63
		c0.898,0,1.63,0.731,1.63,1.63C28.74,13.805,28.009,14.536,27.11,14.536L27.11,14.536z M20,16.022
		c-2.192,0-3.978,1.785-3.978,3.978c0,2.193,1.786,3.978,3.978,3.978c2.194,0,3.978-1.784,3.978-3.978
		C23.978,17.807,22.193,16.022,20,16.022L20,16.022z M20,16.022c-2.192,0-3.978,1.785-3.978,3.978c0,2.193,1.786,3.978,3.978,3.978
		c2.194,0,3.978-1.784,3.978-3.978C23.978,17.807,22.193,16.022,20,16.022L20,16.022z M20,16.022c-2.192,0-3.978,1.785-3.978,3.978
		c0,2.193,1.786,3.978,3.978,3.978c2.194,0,3.978-1.784,3.978-3.978C23.978,17.807,22.193,16.022,20,16.022L20,16.022z
		 M26.626,9.538H13.374c-2.115,0-3.836,1.721-3.836,3.836v13.252c0,2.115,1.721,3.837,3.836,3.837h13.252
		c2.115,0,3.837-1.722,3.837-3.837V13.374C30.463,11.258,28.741,9.538,26.626,9.538L26.626,9.538z M20,26.889
		c-3.798,0-6.888-3.091-6.888-6.889c0-3.798,3.09-6.889,6.888-6.889c3.798,0,6.889,3.09,6.889,6.889
		C26.889,23.798,23.798,26.889,20,26.889L20,26.889z M27.11,14.536c-0.899,0-1.631-0.731-1.631-1.63c0-0.898,0.731-1.63,1.631-1.63
		c0.898,0,1.63,0.731,1.63,1.63C28.74,13.805,28.009,14.536,27.11,14.536L27.11,14.536z M20,16.022
		c-2.192,0-3.978,1.785-3.978,3.978c0,2.193,1.786,3.978,3.978,3.978c2.194,0,3.978-1.784,3.978-3.978
		C23.978,17.807,22.193,16.022,20,16.022L20,16.022z M20,16.022c-2.192,0-3.978,1.785-3.978,3.978c0,2.193,1.786,3.978,3.978,3.978
		c2.194,0,3.978-1.784,3.978-3.978C23.978,17.807,22.193,16.022,20,16.022L20,16.022z M20,16.022c-2.192,0-3.978,1.785-3.978,3.978
		c0,2.193,1.786,3.978,3.978,3.978c2.194,0,3.978-1.784,3.978-3.978C23.978,17.807,22.193,16.022,20,16.022L20,16.022z
		 M26.626,9.538H13.374c-2.115,0-3.836,1.721-3.836,3.836v13.252c0,2.115,1.721,3.837,3.836,3.837h13.252
		c2.115,0,3.837-1.722,3.837-3.837V13.374C30.463,11.258,28.741,9.538,26.626,9.538L26.626,9.538z M20,26.889
		c-3.798,0-6.888-3.091-6.888-6.889c0-3.798,3.09-6.889,6.888-6.889c3.798,0,6.889,3.09,6.889,6.889
		C26.889,23.798,23.798,26.889,20,26.889L20,26.889z M27.11,14.536c-0.899,0-1.631-0.731-1.631-1.63c0-0.898,0.731-1.63,1.631-1.63
		c0.898,0,1.63,0.731,1.63,1.63C28.74,13.805,28.009,14.536,27.11,14.536L27.11,14.536z M20,16.022
		c-2.192,0-3.978,1.785-3.978,3.978c0,2.193,1.786,3.978,3.978,3.978c2.194,0,3.978-1.784,3.978-3.978
		C23.978,17.807,22.193,16.022,20,16.022L20,16.022z M20,16.022"/>
</g>
</svg>
