<?xml version="1.0" encoding="utf-8"?>
<!-- Generator: Adobe Illustrator 16.0.0, SVG Export Plug-In . SVG Version: 6.00 Build 0)  -->
<!DOCTYPE svg PUBLIC "-//W3C//DTD SVG 1.1//EN" "http://www.w3.org/Graphics/SVG/1.1/DTD/svg11.dtd">
<svg version="1.1" id="Layer_1" xmlns="http://www.w3.org/2000/svg" xmlns:xlink="http://www.w3.org/1999/xlink" x="0px" y="0px"
	 width="40px" height="40px" viewBox="0 0 40 40" enable-background="new 0 0 40 40" xml:space="preserve">
<g>
	<rect x="-0.707" y="0.293" fill="#0084B1" width="40" height="40"/>
	<path fill="#FFFFFF" d="M8.707,6.368c1.832,0.001,3.343,1.514,3.339,3.356c-0.004,1.928-1.604,3.38-3.362,3.339
		c-1.782,0.036-3.349-1.453-3.348-3.352C5.336,7.869,6.853,6.367,8.707,6.368L8.707,6.368z M8.707,6.368"/>
	<path fill="#FFFFFF" d="M10.653,34.214H6.728c-0.509,0-0.922-0.413-0.922-0.923V16.546c0-0.509,0.413-0.922,0.922-0.922h3.925
		c0.51,0,0.923,0.413,0.923,0.922v16.745C11.576,33.801,11.163,34.214,10.653,34.214L10.653,34.214z M10.653,34.214"/>
	<path fill="#FFFFFF" d="M33.25,21.506c0-3.511-2.846-6.356-6.356-6.356h-1.007c-1.92,0-3.617,0.958-4.638,2.423
		c-0.111,0.16-0.214,0.325-0.309,0.497c-0.033-0.005-0.053-0.007-0.053-0.006v-2.056c0-0.211-0.172-0.383-0.383-0.383h-4.897
		c-0.211,0-0.383,0.171-0.383,0.383v17.824c0,0.211,0.171,0.383,0.383,0.383l5.004,0.002c0.211,0,0.383-0.172,0.383-0.384V23.535
		c0-1.78,1.42-3.259,3.199-3.278c0.909-0.011,1.732,0.354,2.326,0.947c0.586,0.586,0.948,1.396,0.948,2.289v10.341
		c0,0.211,0.172,0.383,0.383,0.383l5.017,0.001c0.211,0,0.383-0.171,0.383-0.383V21.506L33.25,21.506z M33.25,21.506"/>
</g>
</svg>
