<?xml version="1.0" encoding="utf-8"?>
<!-- Generator: Adobe Illustrator 16.0.0, SVG Export Plug-In . SVG Version: 6.00 Build 0)  -->
<!DOCTYPE svg PUBLIC "-//W3C//DTD SVG 1.1//EN" "http://www.w3.org/Graphics/SVG/1.1/DTD/svg11.dtd">
<svg version="1.1" id="Capa_1" xmlns="http://www.w3.org/2000/svg" xmlns:xlink="http://www.w3.org/1999/xlink" x="0px" y="0px"
	 width="35px" height="35px" viewBox="232.498 232.517 35 35" enable-background="new 232.498 232.517 35 35" xml:space="preserve">
<g>
	<rect x="232.498" y="232.517" fill="#15ACE5" width="35" height="35"/>
	<path fill="#FFFFFF" d="M261.661,252.272c0.137-0.697,0.208-1.42,0.208-2.158c0-6.207-5.032-11.238-11.239-11.238
		c-0.737,0-1.46,0.07-2.158,0.207c-0.96-0.562-2.077-0.885-3.271-0.885c-3.583,0-6.487,2.903-6.487,6.486
		c0,1.193,0.323,2.311,0.886,3.271c-0.137,0.698-0.208,1.42-0.208,2.158c0,6.208,5.031,11.239,11.238,11.239
		c0.739,0,1.461-0.072,2.159-0.208c0.961,0.562,2.077,0.885,3.271,0.885c3.582,0,6.486-2.903,6.486-6.485
		C262.547,254.351,262.224,253.234,261.661,252.272z M250.845,257.833c-3.994,0-5.991-1.498-6.605-3.38
		c-0.615-1.881,0.729-2.418,1.152-2.457c0.422-0.038,1.317,0.064,1.574,0.845c0.266,0.812,1.152,2.421,3.072,2.61
		c1.921,0.192,3.187-0.69,3.571-1.611c0.385-0.922-0.308-2.189-3.264-2.612c-2.957-0.422-6.029-1.728-6.029-4.684
		c0-2.959,3.379-4.147,6.605-4.147c3.225,0,4.86,1.821,5.223,2.533c0.447,0.883,0.293,2.355-0.77,2.611
		c-1.113,0.269-1.688-0.346-2.495-1.844c-0.834-1.548-3.802-1.152-4.801-0.268c-0.998,0.883-0.729,2.15,3.418,2.956
		c4.146,0.807,5.684,2.305,5.684,4.647C257.181,255.375,254.839,257.833,250.845,257.833z"/>
</g>
</svg>
