<?xml version="1.0" encoding="utf-8"?>
<!-- Generator: Adobe Illustrator 16.0.0, SVG Export Plug-In . SVG Version: 6.00 Build 0)  -->
<!DOCTYPE svg PUBLIC "-//W3C//DTD SVG 1.1//EN" "http://www.w3.org/Graphics/SVG/1.1/DTD/svg11.dtd">
<svg version="1.1" id="Capa_1" xmlns="http://www.w3.org/2000/svg" xmlns:xlink="http://www.w3.org/1999/xlink" x="0px" y="0px"
	 width="35px" height="35px" viewBox="232.5 232.5 35 35" enable-background="new 232.5 232.5 35 35" xml:space="preserve">
<g>
	<rect x="232.5" y="232.5" fill="#61A8DE" width="35" height="35"/>
	<path fill="#FFFFFF" d="M260.059,240.226l-23.404,9.121c-0.758,0.295-0.712,1.384,0.068,1.614l5.948,1.756l2.22,7.043
		c0.231,0.735,1.164,0.959,1.704,0.407l3.075-3.14l6.033,4.429c0.738,0.542,1.79,0.14,1.978-0.757l3.996-19.105
		C261.871,240.659,260.95,239.879,260.059,240.226z M257.125,244.466l-10.872,9.613c-0.108,0.097-0.177,0.229-0.193,0.373
		l-0.419,3.721c-0.014,0.121-0.183,0.137-0.22,0.021l-1.722-5.549c-0.079-0.254,0.024-0.529,0.25-0.67l12.838-7.962
		C257.083,243.829,257.385,244.236,257.125,244.466z"/>
</g>
</svg>
