<?xml version="1.0" encoding="utf-8"?>
<!-- Generator: Adobe Illustrator 16.0.0, SVG Export Plug-In . SVG Version: 6.00 Build 0)  -->
<!DOCTYPE svg PUBLIC "-//W3C//DTD SVG 1.1//EN" "http://www.w3.org/Graphics/SVG/1.1/DTD/svg11.dtd">
<svg version="1.1" id="Layer_1" xmlns="http://www.w3.org/2000/svg" xmlns:xlink="http://www.w3.org/1999/xlink" x="0px" y="0px"
	 width="40px" height="40px" viewBox="0 0 40 40" enable-background="new 0 0 40 40" xml:space="preserve">
<g>
	<rect fill="#50ABF1" width="40" height="40"/>
	<path fill="#FFFFFF" d="M5.299,29.65c2.662,1.688,5.82,2.666,9.205,2.666c9.509,0,17.218-7.71,17.218-17.219
		c0-0.237-0.004-0.473-0.014-0.708c0.344-0.271,2.472-1.976,2.993-3.072c0,0-1.728,0.718-3.419,0.887c-0.004,0-0.008,0-0.011,0
		c0,0,0.003-0.001,0.009-0.005c0.156-0.104,2.334-1.587,2.629-3.354c0,0-1.222,0.652-2.933,1.223
		c-0.283,0.094-0.579,0.187-0.886,0.272c-1.102-1.177-2.67-1.912-4.41-1.912c-3.338,0-6.042,2.704-6.042,6.039
		c0,0.471,0.054,0.929,0.156,1.369c-0.466-0.019-7.569-0.417-12.401-6.269c0,0-2.888,3.942,1.721,7.996c0,0-1.401-0.056-2.61-0.778
		c0,0-0.444,4.776,4.775,5.998c0,0-1.027,0.389-2.666,0.111c0,0,0.917,3.859,5.554,4.22c0,0-3.667,3.312-8.873,2.535H5.299z
		 M5.299,29.65"/>
</g>
</svg>
