<?xml version="1.0" encoding="utf-8"?>
<!-- Generator: Adobe Illustrator 16.0.0, SVG Export Plug-In . SVG Version: 6.00 Build 0)  -->
<!DOCTYPE svg PUBLIC "-//W3C//DTD SVG 1.1//EN" "http://www.w3.org/Graphics/SVG/1.1/DTD/svg11.dtd">
<svg version="1.1" id="Capa_1" xmlns="http://www.w3.org/2000/svg" xmlns:xlink="http://www.w3.org/1999/xlink" x="0px" y="0px"
	 width="35px" height="35px" viewBox="232.5 232.5 35 35" enable-background="new 232.5 232.5 35 35" xml:space="preserve">
<g>
	<rect x="232.5" y="232.5" fill="#1BD741" width="35" height="35"/>
	<g>
		<path fill="#FFFFFF" d="M237.76,262.253l1.714-6.089c-1.103-1.873-1.683-4.004-1.683-6.193c0-6.741,5.483-12.224,12.224-12.224
			s12.224,5.483,12.224,12.224c0,6.74-5.483,12.224-12.224,12.224c-2.1,0-4.157-0.538-5.976-1.559L237.76,262.253z M244.361,258.413
			l0.374,0.229c1.586,0.968,3.413,1.479,5.281,1.479c5.597,0,10.15-4.553,10.15-10.15s-4.554-10.15-10.15-10.15
			s-10.15,4.553-10.15,10.15c0,1.95,0.555,3.844,1.603,5.476l0.252,0.393l-0.987,3.507L244.361,258.413z"/>
		<path fill="#FFFFFF" d="M246.582,244.282l-0.793-0.043c-0.249-0.014-0.493,0.07-0.682,0.233c-0.385,0.334-1,0.979-1.188,1.821
			c-0.281,1.254,0.154,2.79,1.28,4.327c1.126,1.535,3.226,3.993,6.938,5.043c1.195,0.338,2.137,0.11,2.862-0.354
			c0.575-0.368,0.972-0.958,1.114-1.625l0.127-0.592c0.04-0.188-0.056-0.379-0.229-0.459l-2.681-1.236
			c-0.175-0.08-0.381-0.029-0.498,0.122l-1.052,1.364c-0.08,0.104-0.216,0.145-0.339,0.102c-0.721-0.254-3.135-1.265-4.459-3.816
			c-0.058-0.11-0.043-0.245,0.038-0.339l1.006-1.164c0.103-0.119,0.129-0.286,0.067-0.43l-1.155-2.704
			C246.876,244.387,246.738,244.29,246.582,244.282z"/>
	</g>
</g>
</svg>
