<?xml version="1.0" encoding="UTF-8" standalone="no"?>
<svg width="60px" height="60px" viewBox="0 0 60 60" version="1.1" xmlns="http://www.w3.org/2000/svg" xmlns:xlink="http://www.w3.org/1999/xlink" xmlns:sketch="http://www.bohemiancoding.com/sketch/ns">
    <!-- Generator: Sketch 3.3 (11970) - http://www.bohemiancoding.com/sketch -->
    <title>amazon</title>
    <desc>Created with Sketch.</desc>
    <defs></defs>
    <g id="Page-1" stroke="none" stroke-width="1" fill="none" fill-rule="evenodd" sketch:type="MSPage">
        <g id="amazon" sketch:type="MSArtboardGroup" fill="#979AA1">
            <g sketch:type="MSLayerGroup" transform="translate(5.000000, 24.780220)" id="Shape">
                <path d="M4.78021978,4.28571429 C4.78021978,4.78021978 5,4.94505495 5.16483516,5.21978022 C5.21978022,5.32967033 5.21978022,5.43956044 5.16483516,5.49450549 C4.94505495,5.65934066 4.56043956,5.98901099 4.3956044,6.15384615 C4.34065934,6.20879121 4.23076923,6.20879121 4.17582418,6.15384615 C3.84615385,5.87912088 3.84615385,5.76923077 3.62637363,5.49450549 C3.07692308,6.04395604 2.69230769,6.20879121 1.97802198,6.20879121 C1.15384615,6.20879121 0.494505495,5.71428571 0.494505495,4.67032967 C0.494505495,3.84615385 0.934065934,3.35164835 1.53846154,3.02197802 C2.08791209,2.8021978 2.85714286,2.74725275 3.40659341,2.69230769 L3.40659341,2.58241758 C3.40659341,2.36263736 3.46153846,2.08791209 3.2967033,1.86813187 C3.18681319,1.64835165 2.96703297,1.59340659 2.74725275,1.59340659 C2.41758242,1.59340659 2.03296703,1.81318681 1.97802198,2.1978022 C1.97802198,2.30769231 1.92307692,2.41758242 1.81318681,2.41758242 L0.824175824,2.30769231 C0.769230769,2.30769231 0.659340659,2.25274725 0.714285714,2.08791209 C0.934065934,0.934065934 1.97802198,0.604395604 2.91208791,0.604395604 C3.40659341,0.604395604 4.01098901,0.714285714 4.3956044,1.0989011 C4.89010989,1.59340659 4.83516484,2.14285714 4.83516484,2.8021978 L4.83516484,4.28571429 L4.78021978,4.28571429 Z M3.40659341,3.51648352 C2.69230769,3.51648352 1.92307692,3.68131868 1.92307692,4.50549451 C1.92307692,4.94505495 2.14285714,5.27472527 2.52747253,5.27472527 C2.8021978,5.27472527 3.02197802,5.05494505 3.18681319,4.78021978 C3.40659341,4.45054945 3.40659341,4.12087912 3.40659341,3.73626374 L3.40659341,3.51648352 L3.40659341,3.51648352 Z M20.0549451,7.63736264 C17.967033,8.57142857 15.7142857,8.95604396 13.6263736,8.95604396 C10.6043956,8.95604396 7.63736264,8.13186813 5.21978022,6.75824176 C5,6.64835165 4.89010989,6.81318681 5,6.97802198 C7.1978022,9.01098901 10.1648352,10.1648352 13.4065934,10.1648352 C15.7142857,10.1648352 18.4065934,9.45054945 20.2747253,8.07692308 C20.6043956,7.91208791 20.3846154,7.52747253 20.0549451,7.63736264 L20.0549451,7.63736264 Z M7.25274725,1.53846154 C7.47252747,0.879120879 7.96703297,0.604395604 8.57142857,0.604395604 C9.23076923,0.604395604 9.61538462,0.934065934 9.89010989,1.53846154 C10.1098901,0.879120879 10.6593407,0.604395604 11.2087912,0.604395604 C11.6483516,0.604395604 12.0879121,0.769230769 12.3626374,1.15384615 C12.6923077,1.59340659 12.5824176,2.1978022 12.5824176,2.74725275 L12.5824176,5.93406593 C12.5824176,6.04395604 12.5274725,6.15384615 12.4175824,6.15384615 L11.4285714,6.15384615 C11.3186813,6.15384615 11.2087912,6.0989011 11.2087912,5.93406593 L11.2087912,3.24175824 C11.2087912,3.02197802 11.2637363,2.47252747 11.1538462,2.30769231 C11.0989011,1.97802198 10.8791209,1.86813187 10.6043956,1.86813187 C10.3846154,1.86813187 10.1098901,2.03296703 10,2.30769231 C9.89010989,2.52747253 9.89010989,2.96703297 9.89010989,3.24175824 L9.89010989,5.93406593 C9.89010989,6.04395604 9.83516484,6.15384615 9.72527473,6.15384615 L8.79120879,6.15384615 C8.68131868,6.15384615 8.57142857,6.0989011 8.57142857,5.93406593 L8.57142857,3.24175824 C8.57142857,2.69230769 8.68131868,1.86813187 7.96703297,1.86813187 C7.25274725,1.86813187 7.25274725,2.69230769 7.25274725,3.24175824 L7.25274725,5.93406593 C7.25274725,6.04395604 7.1978022,6.15384615 7.08791209,6.15384615 L6.0989011,6.15384615 C5.98901099,6.15384615 5.87912088,6.0989011 5.87912088,5.98901099 L5.87912088,0.879120879 C5.87912088,0.824175824 5.93406593,0.714285714 6.0989011,0.714285714 L7.03296703,0.714285714 C7.14285714,0.714285714 7.25274725,0.769230769 7.25274725,0.879120879 L7.25274725,1.53846154 L7.25274725,1.53846154 Z M17.7472527,4.28571429 C17.7472527,4.78021978 17.967033,4.94505495 18.0769231,5.21978022 C18.1318681,5.32967033 18.1318681,5.43956044 18.0769231,5.49450549 C17.8571429,5.65934066 17.5274725,5.98901099 17.3076923,6.15384615 C17.2527473,6.20879121 17.1428571,6.20879121 17.0879121,6.15384615 C16.7582418,5.87912088 16.7032967,5.76923077 16.5384615,5.49450549 C15.989011,6.04395604 15.6043956,6.20879121 14.8901099,6.20879121 C14.0659341,6.20879121 13.4065934,5.71428571 13.4065934,4.67032967 C13.4065934,3.84615385 13.8461538,3.35164835 14.4505495,3.02197802 C15,2.8021978 15.7142857,2.74725275 16.3186813,2.69230769 L16.3186813,2.58241758 C16.3186813,2.36263736 16.3186813,2.08791209 16.2087912,1.86813187 C16.0989011,1.64835165 15.8791209,1.59340659 15.6593407,1.59340659 C15.2747253,1.59340659 14.9450549,1.81318681 14.8901099,2.1978022 C14.8351648,2.30769231 14.8351648,2.41758242 14.6703297,2.41758242 L13.7362637,2.30769231 C13.6813187,2.30769231 13.5714286,2.25274725 13.5714286,2.08791209 C13.7912088,0.934065934 14.8901099,0.604395604 15.7692308,0.604395604 C16.2637363,0.604395604 16.8681319,0.714285714 17.2527473,1.0989011 C17.7472527,1.59340659 17.6923077,2.14285714 17.6923077,2.8021978 L17.6923077,4.28571429 L17.7472527,4.28571429 Z M16.3736264,3.51648352 C15.6593407,3.51648352 14.8901099,3.68131868 14.8901099,4.50549451 C14.8901099,4.94505495 15.1098901,5.27472527 15.4945055,5.27472527 C15.7692308,5.27472527 15.989011,5.05494505 16.1538462,4.78021978 C16.3736264,4.45054945 16.3736264,4.12087912 16.3736264,3.73626374 L16.3736264,3.51648352 L16.3736264,3.51648352 Z M20.6043956,9.34065934 C20.5494505,9.56043956 20.6593407,9.56043956 20.8241758,9.45054945 C21.8131868,8.62637363 22.032967,6.86813187 21.8681319,6.64835165 C21.6483516,6.37362637 19.9450549,6.15384615 18.8461538,6.92307692 C18.6813187,7.03296703 18.7362637,7.1978022 18.9010989,7.14285714 C19.5054945,7.08791209 20.8241758,6.92307692 21.0989011,7.1978022 C21.3186813,7.52747253 20.8241758,8.79120879 20.6043956,9.34065934 L20.6043956,9.34065934 Z M20.6593407,4.3956044 C21.3186813,4.3956044 21.978022,4.45054945 22.5274725,4.78021978 C22.6373626,4.83516484 22.6923077,5 22.6923077,5.05494505 L22.6923077,5.82417582 C22.6923077,5.93406593 22.5824176,6.04395604 22.4725275,5.98901099 C21.4835165,5.49450549 20.1648352,5.38461538 19.0659341,5.98901099 C18.956044,6.04395604 18.8461538,5.93406593 18.8461538,5.82417582 L18.8461538,5.05494505 C18.8461538,4.94505495 18.8461538,4.72527473 18.956044,4.56043956 L20.8791209,1.75824176 L19.1758242,1.75824176 C19.0659341,1.75824176 18.956044,1.7032967 18.956044,1.53846154 L18.956044,0.824175824 C18.956044,0.714285714 19.010989,0.604395604 19.1758242,0.604395604 L22.4175824,0.604395604 C22.5274725,0.604395604 22.6373626,0.659340659 22.6373626,0.824175824 L22.6373626,1.48351648 C22.6373626,1.53846154 22.5824176,1.7032967 22.4175824,1.92307692 L20.6593407,4.3956044 L20.6593407,4.3956044 Z M27.6373626,3.46153846 C27.6373626,5.05494505 26.7582418,6.26373626 25.3846154,6.26373626 C23.9010989,6.26373626 23.1318681,5 23.1318681,3.40659341 C23.1318681,1.81318681 23.956044,0.604395604 25.3846154,0.604395604 C26.8681319,0.604395604 27.6373626,1.86813187 27.6373626,3.46153846 L27.6373626,3.46153846 Z M26.2087912,3.51648352 C26.2087912,3.07692308 26.2087912,2.58241758 26.043956,2.1978022 C25.9340659,1.86813187 25.7142857,1.7032967 25.3846154,1.7032967 C24.6703297,1.7032967 24.6153846,2.69230769 24.6153846,3.35164835 C24.6153846,4.01098901 24.6153846,5.27472527 25.3846154,5.27472527 C26.1538462,5.21978022 26.2087912,4.12087912 26.2087912,3.51648352 L26.2087912,3.51648352 Z M29.6703297,1.64835165 C30,0.934065934 30.3296703,0.604395604 31.043956,0.604395604 C31.4835165,0.604395604 31.9230769,0.769230769 32.1978022,1.20879121 C32.4175824,1.59340659 32.4175824,2.30769231 32.4175824,2.8021978 L32.4175824,5.98901099 C32.4175824,6.04395604 32.3626374,6.15384615 32.1978022,6.15384615 L31.2087912,6.15384615 C31.1538462,6.15384615 31.043956,6.0989011 31.043956,5.98901099 L31.043956,3.24175824 C31.043956,2.69230769 31.0989011,1.92307692 30.3846154,1.92307692 C30.1648352,1.92307692 29.9450549,2.08791209 29.8351648,2.30769231 C29.6703297,2.63736264 29.6703297,2.96703297 29.6703297,3.24175824 L29.6703297,5.98901099 C29.6703297,6.0989011 29.6153846,6.20879121 29.4505495,6.20879121 L28.5714286,6.20879121 C28.5164835,6.20879121 28.4065934,6.15384615 28.4065934,5.98901099 L28.4065934,0.934065934 C28.4065934,0.879120879 28.4615385,0.769230769 28.5714286,0.769230769 L29.5054945,0.769230769 C29.5604396,0.769230769 29.6703297,0.824175824 29.6703297,0.879120879 L29.6703297,1.64835165 L29.6703297,1.64835165 Z M34.0659341,5.76923077 C34.0659341,5.98901099 33.8461538,6.20879121 33.5714286,6.20879121 C33.2967033,6.20879121 33.0769231,5.98901099 33.0769231,5.76923077 C33.0769231,5.49450549 33.2967033,5.27472527 33.5714286,5.27472527 C33.8461538,5.27472527 34.0659341,5.49450549 34.0659341,5.76923077 L34.0659341,5.76923077 Z M37.9120879,4.23076923 C37.967033,4.23076923 38.0769231,4.28571429 38.0769231,4.3956044 C37.8571429,5.54945055 37.1978022,6.31868132 36.2637363,6.31868132 L36.2087912,6.31868132 C34.8351648,6.31868132 34.2307692,4.89010989 34.2307692,3.46153846 C34.2307692,2.08791209 34.8351648,0.604395604 36.2087912,0.604395604 L36.2637363,0.604395604 C37.2527473,0.604395604 37.9120879,1.37362637 38.0769231,2.47252747 C38.0769231,2.52747253 38.021978,2.63736264 37.9120879,2.69230769 L37.4725275,2.63736264 C37.3626374,2.63736264 37.3076923,2.58241758 37.2527473,2.47252747 C37.1978022,1.81318681 36.8131868,1.37362637 36.2087912,1.31868132 C35.2747253,1.37362637 35,2.52747253 35,3.40659341 C35,4.28571429 35.2197802,5.54945055 36.2087912,5.6043956 C36.8681319,5.54945055 37.1428571,5.05494505 37.2527473,4.3956044 C37.3076923,4.34065934 37.3626374,4.23076923 37.4725275,4.23076923 L37.9120879,4.23076923 L37.9120879,4.23076923 Z M40.7692308,0.549450549 C42.1428571,0.549450549 42.8021978,1.92307692 42.8021978,3.40659341 C42.8021978,4.89010989 42.032967,6.26373626 40.6043956,6.26373626 L40.5494505,6.26373626 C39.1758242,6.26373626 38.5164835,4.83516484 38.5164835,3.35164835 C38.5164835,1.86813187 39.2857143,0.549450549 40.7692308,0.549450549 L40.7692308,0.549450549 L40.7692308,0.549450549 Z M41.9230769,3.40659341 C41.9230769,2.91208791 41.8681319,2.36263736 41.6483516,1.92307692 C41.4285714,1.53846154 41.043956,1.26373626 40.6593407,1.26373626 C40.2197802,1.26373626 39.8351648,1.59340659 39.6153846,2.03296703 C39.4505495,2.41758242 39.3956044,2.96703297 39.3956044,3.35164835 C39.3956044,3.84615385 39.4505495,4.3956044 39.6703297,4.83516484 C39.8901099,5.21978022 40.2747253,5.49450549 40.6593407,5.49450549 C41.1538462,5.49450549 41.4835165,5.21978022 41.7032967,4.72527473 C41.9230769,4.3956044 41.9230769,3.84615385 41.9230769,3.40659341 L41.9230769,3.40659341 Z M48.3516484,0.549450549 C48.8461538,0.549450549 49.2857143,0.879120879 49.5604396,1.31868132 C49.7802198,1.75824176 49.7802198,2.36263736 49.7802198,2.85714286 L49.7802198,5.87912088 C49.7802198,5.98901099 49.7252747,6.0989011 49.5604396,6.0989011 L49.1208791,6.0989011 C49.0659341,6.0989011 48.956044,6.04395604 48.956044,5.93406593 L48.956044,2.85714286 C48.956044,2.52747253 48.956044,2.08791209 48.8461538,1.81318681 C48.6813187,1.48351648 48.3516484,1.26373626 48.0769231,1.26373626 C47.8021978,1.26373626 47.4175824,1.48351648 47.2527473,1.86813187 C46.978022,2.30769231 46.978022,2.69230769 46.978022,3.18681319 L46.978022,5.93406593 C46.978022,5.98901099 46.9230769,6.0989011 46.8131868,6.0989011 L46.3736264,6.0989011 C46.2637363,6.0989011 46.1538462,6.04395604 46.1538462,5.87912088 L46.1538462,2.63736264 C46.1538462,2.36263736 46.0989011,1.97802198 45.989011,1.7032967 C45.8241758,1.37362637 45.5494505,1.20879121 45.2197802,1.20879121 C44.8901099,1.20879121 44.5604396,1.42857143 44.3956044,1.7032967 C44.1758242,2.03296703 44.1208791,2.47252747 44.1208791,2.91208791 L44.1208791,5.82417582 C44.1208791,5.93406593 44.0659341,6.04395604 43.956044,6.04395604 L43.5164835,6.04395604 C43.4065934,6.04395604 43.2967033,5.98901099 43.2967033,5.82417582 L43.2967033,0.769230769 C43.2967033,0.714285714 43.3516484,0.604395604 43.5164835,0.604395604 L43.8461538,0.604395604 C43.956044,0.604395604 44.010989,0.659340659 44.0659341,0.769230769 L44.0659341,1.53846154 C44.2857143,0.934065934 44.7802198,0.494505495 45.3846154,0.494505495 L45.4395604,0.494505495 C46.0989011,0.494505495 46.5384615,0.989010989 46.7032967,1.7032967 C46.978022,1.04395604 47.4725275,0.494505495 48.1868132,0.494505495 L48.3516484,0.494505495 L48.3516484,0.549450549 Z" sketch:type="MSShapeGroup"></path>
            </g>
        </g>
    </g>
</svg>
