<?xml version="1.0" encoding="UTF-8" standalone="no"?>
<svg width="60px" height="60px" viewBox="0 0 60 60" version="1.1" xmlns="http://www.w3.org/2000/svg" xmlns:xlink="http://www.w3.org/1999/xlink" xmlns:sketch="http://www.bohemiancoding.com/sketch/ns">
    <!-- Generator: Sketch 3.3 (11970) - http://www.bohemiancoding.com/sketch -->
    <title>apple</title>
    <desc>Created with Sketch.</desc>
    <defs></defs>
    <g id="Page-1" stroke="none" stroke-width="1" fill="none" fill-rule="evenodd" sketch:type="MSPage">
        <g id="apple" sketch:type="MSArtboardGroup" fill="#979AA1">
            <g sketch:type="MSLayerGroup" transform="translate(18.500000, 15.857143)" id="Shape">
                <path d="M22.4742857,19.2542857 C21.8828571,20.5685714 21.5542857,21.2257143 20.7657143,22.4085714 C19.6485714,24.0514286 18.1371429,26.1542857 16.2314286,26.22 C14.5228571,26.22 14.1285714,25.1028571 11.7628571,25.1028571 C9.46285714,25.1028571 9.00285714,26.22 7.29428571,26.22 C5.32285714,26.1542857 3.94285714,24.3142857 2.82571429,22.6714286 C-0.197142857,18.0057143 -0.525714286,12.4857143 1.38,9.59428571 C2.69428571,7.49142857 4.86285714,6.30857143 6.83428571,6.30857143 C8.87142857,6.30857143 10.12,7.42571429 11.8285714,7.42571429 C13.4714286,7.42571429 14.4571429,6.30857143 16.8228571,6.30857143 C18.5971429,6.30857143 20.4371429,7.29428571 21.8171429,8.93714286 C17.3485714,11.3028571 18.0057143,17.5457143 22.4742857,19.2542857 L22.4742857,19.2542857 Z M14.9828571,4.40285714 C15.8371429,3.28571429 16.4285714,1.77428571 16.2314286,0.197142857 C14.8514286,0.262857143 13.2742857,1.18285714 12.2885714,2.3 C11.4342857,3.35142857 10.7114286,4.92857143 11.04,6.44 C12.42,6.50571429 13.9971429,5.58571429 14.9828571,4.40285714 L14.9828571,4.40285714 Z" sketch:type="MSShapeGroup"></path>
            </g>
        </g>
    </g>
</svg>