<?xml version="1.0" encoding="UTF-8" standalone="no"?>
<svg width="60px" height="60px" viewBox="0 0 60 60" version="1.1" xmlns="http://www.w3.org/2000/svg" xmlns:xlink="http://www.w3.org/1999/xlink" xmlns:sketch="http://www.bohemiancoding.com/sketch/ns">
    <!-- Generator: Sketch 3.3 (11970) - http://www.bohemiancoding.com/sketch -->
    <title>dell</title>
    <desc>Created with Sketch.</desc>
    <defs></defs>
    <g id="Page-1" stroke="none" stroke-width="1" fill="none" fill-rule="evenodd" sketch:type="MSPage">
        <g id="dell" sketch:type="MSArtboardGroup" fill="#979AA1">
            <g sketch:type="MSLayerGroup" transform="translate(19.000000, 19.000000)" id="Shape">
                <path d="M11.8833333,0.10952381 C15.3333333,0.328571429 17.7428571,1.58809524 19.55,3.45 C21.3571429,5.25714286 22.7261905,7.72142857 22.8357143,11.1714286 L22.8357143,11.8285714 C22.6714286,15.3880952 21.302381,17.6880952 19.55,19.6047619 C17.6333333,21.3571429 15.3880952,22.7809524 11.8833333,22.8904762 L11.1714286,22.8904762 C7.77619048,22.6714286 5.31190476,21.4119048 3.5047619,19.55 C1.69761905,17.7428571 0.328571429,15.2785714 0.219047619,11.8285714 L0.219047619,11.1714286 C0.219047619,11.1714286 0.219047619,11.1714286 0.219047619,11.1166667 C0.383333333,7.66666667 1.69761905,5.25714286 3.5047619,3.45 C5.31190476,1.58809524 7.77619048,0.273809524 11.1714286,0.10952381 L11.8833333,0.10952381 L11.8833333,0.10952381 Z M8.92619048,1.80714286 C8.26904762,1.97142857 7.66666667,2.19047619 7.11904762,2.46428571 C5.42142857,3.28571429 4.05238095,4.49047619 3.12142857,6.02380952 C2.19047619,7.50238095 1.36904762,9.41904762 1.47857143,11.9380952 C1.53333333,13.5261905 1.91666667,14.8404762 2.46428571,15.9904762 C3.55952381,18.2357143 5.25714286,19.8785714 7.61190476,20.8642857 C8.81666667,21.3571429 10.2404762,21.7404762 11.8833333,21.6309524 C13.4166667,21.5761905 14.7857143,21.1928571 15.8809524,20.6452381 C18.0714286,19.4952381 19.7690476,17.797619 20.7547619,15.4428571 C21.247619,14.2380952 21.5761905,12.8142857 21.5214286,11.1714286 C21.3571429,7.9952381 20.097619,5.8047619 18.4,4.21666667 C17.5785714,3.3952381 16.5380952,2.73809524 15.3880952,2.19047619 C14.2380952,1.69761905 12.7595238,1.31428571 11.1166667,1.42380952 C10.35,1.47857143 9.63809524,1.58809524 8.92619048,1.80714286 L8.92619048,1.80714286 Z M13.3619048,8.87142857 L15.0595238,8.87142857 L15.0595238,12.102381 C15.552381,12.1571429 16.1,12.102381 16.5380952,12.102381 L16.5380952,13.6357143 L13.3619048,13.6357143 L13.3619048,12.102381 C12.4309524,12.65 11.4452381,13.3071429 10.4595238,13.9095238 C9.47380952,13.252381 8.54285714,12.5952381 7.55714286,11.9380952 C7.28333333,12.8690476 6.62619048,13.5809524 5.47619048,13.6357143 C4.76428571,13.6904762 3.99761905,13.5809524 3.17619048,13.6357143 L3.17619048,8.87142857 C4.16190476,8.92619048 5.25714286,8.70714286 6.07857143,8.98095238 C6.79047619,9.2 7.28333333,9.74761905 7.50238095,10.4595238 C8.48809524,9.80238095 9.47380952,9.1452381 10.4595238,8.54285714 C10.7880952,8.76190476 11.1714286,9.03571429 11.5,9.30952381 C10.7333333,9.80238095 9.96666667,10.2952381 9.2,10.7880952 C9.30952381,10.897619 9.41904762,11.0071429 9.52857143,11.0619048 C10.2952381,10.5690476 11.0619048,10.0761905 11.8285714,9.58333333 C12.1571429,9.80238095 12.4857143,10.0214286 12.8142857,10.2952381 C12.047619,10.7880952 11.3357143,11.2809524 10.5142857,11.7738095 C10.6238095,11.8285714 10.7880952,11.9380952 10.897619,11.9928571 C11.6642857,11.5 12.4309524,11.0071429 13.197619,10.5142857 L13.197619,8.87142857 L13.3619048,8.87142857 Z M4.81904762,12.102381 C5.20238095,12.102381 5.53095238,12.1571429 5.75,11.9380952 C6.07857143,11.6642857 6.18809524,11.0071429 5.85952381,10.6238095 C5.64047619,10.4047619 5.31190476,10.35 4.81904762,10.4047619 C4.81904762,10.4047619 4.81904762,10.4047619 4.81904762,10.4595238 L4.81904762,12.102381 L4.81904762,12.102381 Z M18.7285714,8.87142857 L18.7285714,12.102381 L20.2071429,12.102381 L20.2071429,13.6357143 L16.9761905,13.6357143 L16.9761905,8.92619048 C16.9761905,8.87142857 16.9761905,8.87142857 17.0309524,8.87142857 L18.7285714,8.87142857 L18.7285714,8.87142857 Z" sketch:type="MSShapeGroup"></path>
            </g>
        </g>
    </g>
</svg>