<?xml version="1.0" encoding="UTF-8" standalone="no"?>
<svg width="60px" height="60px" viewBox="0 0 60 60" version="1.1" xmlns="http://www.w3.org/2000/svg" xmlns:xlink="http://www.w3.org/1999/xlink" xmlns:sketch="http://www.bohemiancoding.com/sketch/ns">
    <!-- Generator: Sketch 3.3 (11970) - http://www.bohemiancoding.com/sketch -->
    <title>google</title>
    <desc>Created with Sketch.</desc>
    <defs></defs>
    <g id="Page-1" stroke="none" stroke-width="1" fill="none" fill-rule="evenodd" sketch:type="MSPage">
        <g id="google" sketch:type="MSArtboardGroup" fill="#979AA1">
            <g sketch:type="MSLayerGroup" transform="translate(5.000000, 21.455696)" id="Shape">
                <path d="M8.10126582,8.03797468 L11.3924051,8.03797468 L11.0126582,8.41772152 C10.8860759,8.48101266 10.8860759,8.5443038 10.8227848,8.67088608 L10.8227848,11.3291139 L8.60759494,11.835443 C7.72151899,11.9620253 6.89873418,12.0886076 6.07594937,12.0886076 C1.83544304,12.0886076 0.189873418,8.92405063 0.189873418,6.4556962 C0.189873418,3.41772152 2.53164557,0.632911392 6.4556962,0.632911392 C7.27848101,0.632911392 8.10126582,0.759493671 8.79746835,1.01265823 C9.93670886,1.32911392 10.5063291,1.7721519 10.8227848,1.96202532 L9.55696203,3.16455696 L8.98734177,3.2278481 L9.36708861,2.65822785 C8.86075949,2.15189873 7.91139241,1.20253165 6.07594937,1.20253165 C3.60759494,1.20253165 1.7721519,3.10126582 1.7721519,5.75949367 C1.7721519,8.73417722 3.86075949,11.4556962 7.21518987,11.4556962 C8.16455696,11.4556962 8.73417722,11.2658228 9.17721519,11.0759494 L9.17721519,8.5443038 L6.83544304,8.67088608 L8.10126582,8.03797468 L8.10126582,8.03797468 Z M20.0632911,7.84810127 C20.0632911,9.81012658 18.5443038,11.835443 15.8860759,11.835443 C13.2911392,11.835443 11.8987342,9.81012658 11.8987342,7.91139241 C11.8987342,5.75949367 13.6708861,3.92405063 16.2025316,3.92405063 C18.5443038,3.92405063 20.0632911,5.88607595 20.0632911,7.84810127 L20.0632911,7.84810127 Z M18.4177215,8.67088608 C18.4177215,7.21518987 17.721519,4.43037975 15.6962025,4.43037975 C15.1265823,4.43037975 14.6202532,4.6835443 14.2405063,5 C13.5443038,5.56962025 13.4810127,6.26582278 13.4810127,7.02531646 C13.4810127,8.67088608 14.3037975,11.3291139 16.2658228,11.3291139 C16.9620253,11.3291139 17.5949367,11.0126582 17.9746835,10.5063291 C18.2911392,10 18.4177215,9.36708861 18.4177215,8.67088608 L18.4177215,8.67088608 Z M28.8607595,7.84810127 C28.8607595,9.81012658 27.3417722,11.835443 24.6835443,11.835443 C22.0253165,11.835443 20.6329114,9.81012658 20.6329114,7.91139241 C20.6329114,5.75949367 22.4050633,3.92405063 24.9367089,3.92405063 C27.278481,3.92405063 28.8607595,5.88607595 28.8607595,7.84810127 L28.8607595,7.84810127 Z M27.2151899,8.67088608 C27.2151899,7.21518987 26.5189873,4.43037975 24.4936709,4.43037975 C23.9240506,4.43037975 23.4177215,4.6835443 22.9746835,5 C22.3417722,5.56962025 22.2151899,6.26582278 22.2151899,7.02531646 C22.2151899,8.67088608 23.0379747,11.3291139 25.0632911,11.3291139 C25.6962025,11.3291139 26.3924051,11.0126582 26.7721519,10.5063291 C27.0886076,10 27.2151899,9.36708861 27.2151899,8.67088608 L27.2151899,8.67088608 Z M35.8860759,4.74683544 L34.8734177,4.74683544 C35.2531646,5.06329114 36.0759494,5.69620253 36.0759494,6.96202532 C36.0759494,8.16455696 35.3797468,8.79746835 34.6835443,9.30379747 C34.4936709,9.49367089 34.2405063,9.6835443 34.2405063,10.0632911 C34.2405063,10.443038 34.4936709,10.6329114 34.6835443,10.8227848 L35.2531646,11.2658228 C36.0126582,11.8987342 36.6455696,12.4683544 36.6455696,13.6075949 C36.6455696,15.1265823 35.1265823,16.7721519 32.3417722,16.7721519 C29.9367089,16.7721519 28.7974684,15.6329114 28.7974684,14.4303797 C28.7974684,13.8607595 29.1139241,12.9746835 30.0632911,12.4050633 C31.0759494,11.7721519 32.4683544,11.6455696 33.2278481,11.6455696 C32.9746835,11.3291139 32.721519,11.0126582 32.721519,10.5063291 C32.721519,10.2531646 32.7848101,10.0632911 32.9113924,9.87341772 C32.721519,9.87341772 32.5316456,9.93670886 32.3417722,9.93670886 C30.6329114,9.93670886 29.6202532,8.60759494 29.6202532,7.27848101 C29.6202532,6.51898734 30,5.69620253 30.6962025,5.06329114 C31.6455696,4.30379747 32.7848101,4.17721519 33.6708861,4.17721519 L37.0886076,4.17721519 L35.8860759,4.74683544 L35.8860759,4.74683544 Z M33.2911392,12.0886076 C33.164557,12.0886076 32.2151899,12.1518987 31.5822785,12.3417722 C31.2025316,12.4683544 30.1898734,12.8481013 30.1898734,14.0506329 C30.1898734,15.2531646 31.3291139,16.0759494 33.1012658,16.0759494 C34.6202532,16.0759494 35.5063291,15.3164557 35.5063291,14.2405063 C35.5063291,13.4177215 34.9367089,12.9746835 33.6708861,12.0253165 L33.2911392,12.0253165 L33.2911392,12.0886076 Z M34.6202532,7.78481013 C34.6202532,6.58227848 33.8607595,4.74683544 32.5316456,4.74683544 C32.1518987,4.74683544 31.6455696,4.93670886 31.3924051,5.3164557 C31.1392405,5.63291139 31.0126582,6.07594937 31.0126582,6.51898734 C31.0126582,7.59493671 31.6455696,9.43037975 33.0379747,9.43037975 C33.4177215,9.43037975 33.9240506,9.24050633 34.1772152,8.98734177 C34.556962,8.60759494 34.6202532,8.03797468 34.6202532,7.78481013 L34.6202532,7.78481013 Z M39.3670886,10.443038 C39.3670886,11.0759494 39.4936709,11.2025316 40.0632911,11.2658228 C40.3164557,11.2658228 40.6329114,11.3291139 40.8860759,11.3291139 L40.3164557,11.7088608 L37.3417722,11.7088608 C37.721519,11.2025316 37.721519,11.1392405 37.721519,10.8227848 L37.721519,8.16455696 C37.721519,6.89873418 37.7848101,5 37.7848101,3.29113924 C37.7848101,2.46835443 37.8481013,1.39240506 37.8481013,0.632911392 L36.5822785,0.632911392 L37.7848101,0.0632911392 L40.1265823,0.0632911392 C39.6202532,0.316455696 39.4303797,0.443037975 39.3670886,1.01265823 C39.3037975,2.27848101 39.2405063,4.30379747 39.2405063,6.64556962 L39.2405063,10.443038 L39.3670886,10.443038 Z M42.1518987,7.72151899 C42.5316456,9.81012658 43.9873418,11.0759494 45.5696203,11.0759494 C46.3924051,11.0759494 46.9620253,10.8227848 47.5949367,10.5063291 L46.7088608,11.3924051 L46.1392405,11.6455696 C45.5696203,11.8987342 45,11.9620253 44.4936709,11.9620253 C43.9873418,11.9620253 43.164557,11.8987342 42.278481,11.3291139 C41.1392405,10.5063291 40.5696203,9.05063291 40.5696203,7.84810127 C40.5696203,5.3164557 42.6582278,4.05063291 44.3670886,4.05063291 C44.9367089,4.05063291 45.5696203,4.17721519 46.0759494,4.49367089 C46.8987342,5.06329114 47.0886076,5.75949367 47.2151899,6.13924051 L43.3544304,7.72151899 L42.1518987,7.72151899 L42.1518987,7.72151899 Z M45.1898734,6.39240506 C45.443038,6.26582278 45.6329114,6.13924051 45.6329114,5.94936709 C45.6329114,5.3164557 44.8734177,4.55696203 43.9873418,4.55696203 C43.3544304,4.55696203 42.0886076,5.06329114 42.0886076,6.89873418 C42.0886076,7.15189873 42.0886076,7.46835443 42.1518987,7.78481013 L45.1898734,6.39240506 L45.1898734,6.39240506 Z M49.6202532,4.6835443 C49.6835443,4.74683544 49.6835443,4.74683544 49.7468354,4.81012658 C49.6835443,4.87341772 49.6202532,4.87341772 49.556962,4.87341772 C49.4936709,4.87341772 49.4936709,4.87341772 49.4303797,4.81012658 C49.3670886,4.74683544 49.3670886,4.74683544 49.3670886,4.55696203 L49.3670886,4.11392405 L49.3037975,4.05063291 L49.3037975,4.11392405 L49.1772152,4.36708861 C49.1139241,4.62025316 49.1139241,4.62025316 49.1139241,4.6835443 L49.1139241,4.74683544 C49.0506329,4.74683544 48.9240506,4.81012658 48.8607595,4.81012658 C48.7974684,4.6835443 48.6708861,4.30379747 48.5443038,4.05063291 C48.5443038,4.17721519 48.5443038,4.30379747 48.4810127,4.43037975 L48.4810127,4.6835443 C48.4810127,4.74683544 48.4810127,4.74683544 48.5443038,4.74683544 L48.6708861,4.74683544 L48.6075949,4.81012658 L48.3544304,4.81012658 L48.4177215,4.74683544 L48.4177215,4.62025316 C48.4177215,4.55696203 48.4810127,4.49367089 48.4810127,4.36708861 L48.5443038,4.05063291 L48.5443038,3.98734177 C48.5443038,3.92405063 48.4810127,3.92405063 48.4810127,3.92405063 L48.3544304,3.92405063 L48.3544304,3.98734177 L48.2911392,4.05063291 L48.2911392,3.98734177 L48.0379747,3.98734177 L48.0379747,4.74683544 C48.0379747,4.81012658 48.1012658,4.81012658 48.1012658,4.81012658 L48.164557,4.81012658 L48.1012658,4.87341772 L47.6582278,4.87341772 L47.721519,4.81012658 L47.721519,4.43037975 C47.7848101,4.30379747 47.7848101,4.17721519 47.7848101,4.11392405 L47.7848101,4.05063291 L47.5949367,4.05063291 C47.5316456,4.05063291 47.5316456,4.05063291 47.5316456,4.11392405 L47.4683544,4.17721519 L47.5316456,3.98734177 L48.4177215,3.98734177 L48.4177215,4.05063291 L48.4810127,3.98734177 L48.7974684,3.98734177 L48.9240506,4.36708861 C48.9873418,4.43037975 49.0506329,4.62025316 49.1139241,4.74683544 L49.2405063,4.43037975 C49.3037975,4.36708861 49.3037975,4.24050633 49.3037975,4.17721519 C49.3670886,4.17721519 49.3670886,4.17721519 49.3670886,4.11392405 L49.1772152,4.11392405 L49.3037975,4.05063291 L49.6835443,4.05063291 L49.6202532,4.11392405 C49.556962,4.11392405 49.556962,4.17721519 49.556962,4.17721519 C49.556962,4.30379747 49.556962,4.43037975 49.6202532,4.49367089 L49.6202532,4.6835443 L49.6202532,4.6835443 Z" sketch:type="MSShapeGroup"></path>
            </g>
        </g>
    </g>
</svg>