<?xml version="1.0" encoding="UTF-8" standalone="no"?>
<svg width="60px" height="60px" viewBox="0 0 60 60" version="1.1" xmlns="http://www.w3.org/2000/svg" xmlns:xlink="http://www.w3.org/1999/xlink" xmlns:sketch="http://www.bohemiancoding.com/sketch/ns">
    <!-- Generator: Sketch 3.3 (11970) - http://www.bohemiancoding.com/sketch -->
    <title>hp</title>
    <desc>Created with Sketch.</desc>
    <defs></defs>
    <g id="Page-1" stroke="none" stroke-width="1" fill="none" fill-rule="evenodd" sketch:type="MSPage">
        <g id="hp" sketch:type="MSArtboardGroup" fill="#979AA1">
            <g sketch:type="MSLayerGroup" transform="translate(19.000000, 19.000000)" id="Shape">
                <path d="M11.4394737,0.363157895 C11.8026316,0.363157895 12.1052632,0.302631579 12.4684211,0.363157895 C13.9210526,0.484210526 15.3736842,0.907894737 16.7052632,1.57368421 C18.4,2.42105263 19.9131579,3.75263158 20.9421053,5.32631579 C22.0315789,6.96052632 22.6368421,8.83684211 22.7578947,10.7736842 C22.7578947,11.3184211 22.7578947,11.8026316 22.8184211,12.2868421 C22.6973684,13.7394737 22.3342105,15.1921053 21.6684211,16.5236842 C20.9421053,18.0973684 19.7921053,19.4289474 18.4605263,20.5184211 C16.7657895,21.85 14.7078947,22.6368421 12.5894737,22.8184211 C12.2868421,22.8789474 11.9236842,22.8789474 11.6210526,22.8789474 C11.3789474,22.8184211 11.1973684,22.9394737 10.9552632,22.8184211 C11.7421053,20.5789474 12.5289474,18.4 13.3763158,16.1 C14.2236842,16.1 15.1315789,16.1605263 15.9789474,16.1 C16.5236842,16.1 17.0684211,15.7368421 17.25,15.2526316 C17.9763158,13.1342105 18.7026316,11.1368421 19.4894737,9.01842105 C19.6105263,8.71578947 19.6710526,8.35263158 19.55,7.98947368 C19.4289474,7.56578947 19.0052632,7.26315789 18.6421053,7.14210526 C18.2789474,7.08157895 17.9157895,7.08157895 17.5526316,7.08157895 L14.2236842,7.08157895 C14.1631579,7.14210526 14.1631579,7.20263158 14.1631579,7.26315789 C12.3473684,12.3473684 10.5315789,17.4315789 8.71578947,22.4552632 C6.9,21.9710526 5.14473684,21.0026316 3.75263158,19.6710526 C2.11842105,18.0973684 0.907894737,15.9789474 0.484210526,13.6789474 C0.363157895,12.9526316 0.302631579,12.2868421 0.242105263,11.5605263 C0.302631579,10.1078947 0.484210526,8.65526316 1.08947368,7.32368421 C2.42105263,3.93421053 5.44736842,1.27105263 9.01842105,0.544736842 C7.20263158,5.62894737 5.38684211,10.6526316 3.63157895,15.7368421 C3.69210526,15.7973684 3.87368421,15.7973684 3.99473684,15.7973684 L5.99210526,15.7973684 C6.05263158,15.7973684 6.05263158,15.6763158 6.05263158,15.6157895 C6.9,13.3763158 7.68684211,11.0763158 8.47368421,8.83684211 C8.53421053,8.71578947 8.53421053,8.59473684 8.59473684,8.47368421 C9.01842105,8.47368421 9.44210526,8.41315789 9.86578947,8.47368421 C9.01842105,10.8947368 8.11052632,13.3763158 7.26315789,15.7973684 C7.32368421,15.8578947 7.44473684,15.8578947 7.50526316,15.8578947 L9.62368421,15.8578947 C10.4710526,13.6184211 11.2578947,11.4394737 12.0447368,9.2 C12.2263158,8.71578947 12.2263158,8.17105263 11.9842105,7.74736842 C11.7421053,7.38421053 11.2578947,7.20263158 10.8947368,7.20263158 L9.13947368,7.20263158 C9.80526316,4.84210526 10.6526316,2.60263158 11.4394737,0.363157895 L11.4394737,0.363157895 Z M16.0394737,8.41315789 C16.1,8.35263158 16.2815789,8.35263158 16.3421053,8.35263158 L17.3105263,8.35263158 C16.5842105,10.5315789 15.7973684,12.65 15.0710526,14.8289474 L13.8,14.8289474 C14.5263158,12.7105263 15.3131579,10.5921053 16.0394737,8.41315789 L16.0394737,8.41315789 Z" sketch:type="MSShapeGroup"></path>
            </g>
        </g>
    </g>
</svg>