<?xml version="1.0" encoding="utf-8"?>
<!-- Generator: Adobe Illustrator 16.0.0, SVG Export Plug-In . SVG Version: 6.00 Build 0)  -->
<!DOCTYPE svg PUBLIC "-//W3C//DTD SVG 1.1//EN" "http://www.w3.org/Graphics/SVG/1.1/DTD/svg11.dtd">
<svg version="1.1" id="Layer_1" xmlns:sketch="http://www.bohemiancoding.com/sketch/ns"
	 xmlns="http://www.w3.org/2000/svg" xmlns:xlink="http://www.w3.org/1999/xlink" x="0px" y="0px" width="60px" height="60px"
	 viewBox="0 0 60 60" enable-background="new 0 0 60 60" xml:space="preserve">
<title>google</title>
<desc>Created with Sketch.</desc>
<g>
	<g>
		<path fill="#979AA1" d="M9.071,33.683H5.19v-6.685h0.911v5.77h2.97V33.683z"/>
		<path fill="#979AA1" d="M10.891,33.683H9.98v-6.685h0.911V33.683z"/>
		<path fill="#979AA1" d="M17.013,33.114c-0.179,0.12-0.369,0.222-0.567,0.306c-0.202,0.088-0.41,0.153-0.625,0.197
			c-0.224,0.043-0.448,0.065-0.674,0.065s-0.452-0.022-0.678-0.065c-0.215-0.044-0.423-0.109-0.625-0.197
			c-0.201-0.084-0.392-0.186-0.572-0.306c-0.177-0.122-0.34-0.259-0.49-0.409c-0.152-0.152-0.289-0.316-0.409-0.494
			c-0.123-0.18-0.226-0.369-0.311-0.567c-0.084-0.204-0.149-0.414-0.196-0.63c-0.043-0.221-0.065-0.445-0.065-0.674
			c0-0.226,0.021-0.451,0.065-0.674c0.047-0.215,0.112-0.424,0.196-0.625c0.084-0.199,0.188-0.388,0.311-0.568
			c0.12-0.177,0.256-0.343,0.409-0.499c0.15-0.149,0.313-0.286,0.49-0.408c0.18-0.12,0.371-0.221,0.572-0.303
			c0.202-0.087,0.41-0.152,0.625-0.196c0.223-0.046,0.449-0.069,0.678-0.069c0.226,0,0.451,0.023,0.674,0.069
			c0.215,0.044,0.423,0.109,0.625,0.196c0.201,0.082,0.391,0.183,0.567,0.303c0.169,0.117,0.326,0.246,0.47,0.388l-0.609,0.608
			c-0.106-0.103-0.221-0.196-0.343-0.277c-0.134-0.09-0.275-0.166-0.425-0.229c-0.15-0.065-0.304-0.113-0.462-0.144
			c-0.166-0.035-0.332-0.053-0.498-0.053s-0.334,0.018-0.503,0.053c-0.161,0.03-0.314,0.078-0.461,0.144
			c-0.15,0.062-0.292,0.139-0.425,0.229s-0.256,0.191-0.368,0.302c-0.114,0.115-0.215,0.237-0.302,0.368
			c-0.09,0.133-0.165,0.273-0.225,0.42c-0.065,0.15-0.114,0.305-0.147,0.466c-0.032,0.164-0.049,0.33-0.049,0.498
			c0,0.17,0.017,0.337,0.049,0.503c0.033,0.158,0.082,0.312,0.147,0.462c0.06,0.146,0.135,0.287,0.225,0.42
			c0.087,0.134,0.188,0.257,0.302,0.368c0.112,0.114,0.235,0.216,0.368,0.303c0.133,0.093,0.275,0.169,0.425,0.229
			c0.147,0.065,0.301,0.112,0.461,0.144c0.169,0.035,0.337,0.053,0.503,0.053s0.332-0.018,0.498-0.053
			c0.158-0.031,0.312-0.078,0.462-0.144c0.15-0.06,0.292-0.136,0.425-0.229c0.133-0.087,0.254-0.188,0.363-0.303
			c0.114-0.111,0.216-0.234,0.306-0.368c0.09-0.133,0.165-0.273,0.225-0.42c0.065-0.15,0.114-0.304,0.147-0.462l0.016-0.069H15.84
			v-0.866h2.647v0.433c0,0.229-0.023,0.453-0.069,0.674c-0.043,0.216-0.108,0.426-0.192,0.63c-0.084,0.198-0.188,0.388-0.311,0.567
			c-0.12,0.178-0.256,0.342-0.409,0.494C17.357,32.855,17.193,32.992,17.013,33.114z"/>
		<path fill="#979AA1" d="M23.882,26.998v6.685h-0.907V31.93h-2.668v1.753h-0.911v-6.685h0.911v4.016h2.668v-4.016H23.882z"/>
		<path fill="#979AA1" d="M28.975,27.913h-1.634v5.77h-0.923v-5.77h-1.634v-0.915h4.192V27.913z"/>
		<path fill="#979AA1" d="M33.105,32.947c-0.491-0.493-0.736-1.086-0.736-1.777v-4.172h0.915v4.172c0,0.44,0.156,0.816,0.466,1.127
			c0.313,0.313,0.691,0.471,1.132,0.471c0.442,0,0.818-0.157,1.132-0.471c0.312-0.311,0.466-0.687,0.466-1.127v-4.172h0.915v4.172
			c0,0.691-0.245,1.284-0.734,1.777c-0.491,0.49-1.084,0.735-1.778,0.735C34.187,33.683,33.595,33.438,33.105,32.947z"/>
		<path fill="#979AA1" d="M39.247,33.683h-0.943v-6.685h1.613c0.717,0,1.328,0.253,1.835,0.76c0.506,0.507,0.76,1.118,0.76,1.834
			c0,0.719-0.254,1.332-0.76,1.839c-0.507,0.506-1.118,0.76-1.835,0.76h-0.67V33.683z M39.247,31.247h0.67
			c0.458,0,0.848-0.161,1.169-0.482c0.324-0.324,0.486-0.715,0.486-1.172c0-0.455-0.162-0.843-0.486-1.165
			c-0.321-0.324-0.711-0.486-1.169-0.486h-0.67V31.247z"/>
	</g>
	<g>
		<path fill="#979AA1" d="M50.383,20.314c-2.452-0.078-4.256,1.081-5.339,3.324c-0.822,1.704-0.96,4.229,0.973,6.224
			c0.195,0.201,0.37,0.42,0.555,0.632c0.65,0.748,0.987,1.621,1.021,2.623c0.022,0.663,0.317,0.955,0.969,0.977
			c0.534,0.019,1.07,0.004,1.605,0.006c0.518,0,1.034,0.008,1.551-0.003c0.72-0.014,1.045-0.292,1.059-1.008
			c0.021-1.104,0.47-1.991,1.171-2.792c0.43-0.491,0.882-0.98,1.211-1.539C57.094,25.479,54.904,20.459,50.383,20.314z
			 M53.84,29.095c-0.314,0.342-0.614,0.702-0.907,1.065c-0.698,0.861-1.021,1.863-1.028,3.036c-0.445,0-0.881,0-1.312,0l2.553-7.341
			h-5.731l0.334,0.808h4.071l-2.221,6.534c-0.354,0-0.707,0-1.061,0c-0.028-0.059-0.069-0.105-0.071-0.156
			c-0.037-1.464-0.703-2.621-1.68-3.637c-0.655-0.68-1.162-1.449-1.35-2.417c-0.504-2.579,1.263-5.236,3.828-5.731
			c2.633-0.508,5.237,1.327,5.655,3.973C55.151,26.693,54.852,27.992,53.84,29.095z"/>
		<path fill="#979AA1" d="M51.502,35.723c-0.889-0.033-1.778-0.033-2.667,0c-0.134,0.006-0.265,0.24-0.397,0.368
			c0.133,0.124,0.258,0.341,0.399,0.355c0.449,0.047,0.904,0.018,1.355,0.019c0.438,0,0.876,0.029,1.31-0.018
			c0.141-0.016,0.264-0.231,0.395-0.355C51.765,35.963,51.636,35.729,51.502,35.723z"/>
		<path fill="#979AA1" d="M48.332,34.554c-0.206,0.005-0.403,0.214-0.605,0.329c0.202,0.134,0.391,0.367,0.609,0.385
			c0.615,0.053,1.245,0.019,1.869,0.019c0,0,0,0,0-0.002c0.646,0,1.297,0.03,1.938-0.019c0.189-0.014,0.354-0.251,0.53-0.385
			c-0.178-0.115-0.35-0.324-0.53-0.328C50.873,34.523,49.602,34.522,48.332,34.554z"/>
	</g>
</g>
</svg>
