<?xml version="1.0" encoding="utf-8"?>
<!-- Generator: Adobe Illustrator 16.0.0, SVG Export Plug-In . SVG Version: 6.00 Build 0)  -->
<!DOCTYPE svg PUBLIC "-//W3C//DTD SVG 1.1//EN" "http://www.w3.org/Graphics/SVG/1.1/DTD/svg11.dtd">
<svg version="1.1" id="Layer_1" xmlns:sketch="http://www.bohemiancoding.com/sketch/ns"
	 xmlns="http://www.w3.org/2000/svg" xmlns:xlink="http://www.w3.org/1999/xlink" x="0px" y="0px" width="60px" height="60px"
	 viewBox="0 0 60 60" enable-background="new 0 0 60 60" xml:space="preserve">
<title>google</title>
<desc>Created with Sketch.</desc>
<g>
	<path fill="#979AA1" d="M28.548,26.576c0.428,0.811,0.874,1.644,1.34,2.498c0.062-0.115,0.149-0.28,0.265-0.495
		c0.114-0.216,0.248-0.463,0.399-0.74c0.15-0.279,0.313-0.58,0.486-0.904c0.172-0.324,0.348-0.653,0.527-0.986
		c0.178-0.333,0.354-0.66,0.531-0.981c0.176-0.321,0.339-0.62,0.49-0.898h0.118c0.066,0.58,0.129,1.143,0.187,1.686
		c0.057,0.542,0.116,1.074,0.177,1.598c0.062,0.524,0.121,1.043,0.182,1.555c0.061,0.513,0.128,1.019,0.2,1.521
		c-0.072-0.013-0.144-0.019-0.214-0.019h-0.214h-0.214c-0.068,0-0.14,0.006-0.212,0.019c-0.067-0.805-0.134-1.587-0.201-2.344
		c-0.066-0.757-0.148-1.529-0.245-2.317h-0.018c-0.418,0.763-0.829,1.521-1.231,2.276c-0.403,0.754-0.786,1.543-1.148,2.366H29.67
		c-0.362-0.763-0.743-1.527-1.14-2.294s-0.795-1.549-1.194-2.349h-0.02c-0.041,0.376-0.089,0.783-0.14,1.222
		c-0.052,0.439-0.1,0.872-0.141,1.3c-0.044,0.428-0.079,0.829-0.108,1.208c-0.031,0.379-0.047,0.689-0.047,0.932
		c-0.097-0.013-0.203-0.019-0.317-0.019c-0.116,0-0.222,0.006-0.318,0.019c0.079-0.491,0.161-1.008,0.245-1.554
		c0.085-0.545,0.167-1.094,0.245-1.644c0.079-0.552,0.151-1.095,0.219-1.632c0.066-0.535,0.123-1.046,0.172-1.53h0.155
		C27.698,24.928,28.122,25.763,28.548,26.576"/>
	<path fill="#979AA1" d="M34.753,25.349c-0.015-0.388-0.03-0.774-0.049-1.162c0.272,0.013,0.544,0.021,0.812,0.031
		c0.27,0.009,0.541,0.014,0.813,0.014s0.542-0.005,0.81-0.014c0.266-0.01,0.536-0.019,0.808-0.031
		c-0.018,0.09-0.026,0.181-0.026,0.272c0,0.091,0.009,0.181,0.026,0.271c-0.192-0.012-0.371-0.023-0.531-0.036
		c-0.161-0.012-0.33-0.023-0.509-0.036c-0.178-0.013-0.374-0.022-0.587-0.031c-0.211-0.01-0.466-0.014-0.762-0.014
		c-0.006,0.193-0.014,0.378-0.023,0.554c-0.009,0.177-0.014,0.376-0.014,0.599c0,0.237,0.001,0.468,0.005,0.692
		c0.003,0.224,0.004,0.394,0.004,0.509c0.268,0,0.505-0.004,0.719-0.009c0.211-0.007,0.404-0.015,0.581-0.023
		c0.176-0.01,0.338-0.018,0.486-0.027c0.148-0.009,0.289-0.02,0.422-0.032c-0.019,0.092-0.027,0.186-0.027,0.281
		c0,0.091,0.009,0.182,0.027,0.273c-0.157-0.018-0.341-0.033-0.55-0.046c-0.208-0.012-0.418-0.02-0.627-0.022
		c-0.208-0.003-0.405-0.007-0.59-0.01c-0.186-0.002-0.333-0.003-0.441-0.003c0,0.053-0.001,0.113-0.004,0.177
		c-0.004,0.062-0.005,0.144-0.005,0.24v0.354v0.545c0,0.346,0.001,0.63,0.005,0.854c0.003,0.226,0.007,0.395,0.013,0.51h0.636
		c0.232,0,0.456-0.005,0.678-0.014c0.222-0.01,0.431-0.021,0.627-0.037c0.196-0.015,0.368-0.037,0.514-0.068
		c-0.013,0.043-0.021,0.09-0.023,0.142s-0.004,0.099-0.004,0.141c0,0.097,0.009,0.176,0.027,0.236
		c-0.273-0.013-0.545-0.019-0.813-0.019h-0.822H35.53c-0.271,0-0.548,0.006-0.826,0.019c0.019-0.388,0.034-0.773,0.049-1.158
		c0.016-0.385,0.024-0.776,0.024-1.177v-1.563C34.777,26.13,34.769,25.736,34.753,25.349"/>
	<path fill="#979AA1" d="M39.297,25.362c-0.016-0.385-0.031-0.776-0.05-1.177c0.176,0.013,0.348,0.022,0.518,0.032
		c0.169,0.009,0.343,0.014,0.519,0.014c0.175,0,0.348-0.008,0.517-0.023c0.171-0.015,0.344-0.022,0.519-0.022
		c0.254,0,0.496,0.024,0.727,0.072c0.23,0.05,0.433,0.13,0.604,0.242c0.173,0.111,0.31,0.258,0.408,0.44
		c0.102,0.182,0.15,0.408,0.15,0.681c0,0.291-0.065,0.541-0.194,0.75c-0.131,0.209-0.29,0.382-0.477,0.519
		c-0.189,0.137-0.392,0.241-0.605,0.317c-0.215,0.076-0.409,0.126-0.587,0.149c0.073,0.092,0.174,0.219,0.301,0.382
		c0.128,0.163,0.271,0.344,0.428,0.541c0.156,0.196,0.32,0.402,0.49,0.618c0.169,0.214,0.333,0.421,0.49,0.617
		s0.306,0.377,0.445,0.54c0.14,0.165,0.251,0.289,0.336,0.373c-0.091-0.013-0.181-0.019-0.271-0.019H43.29h-0.263
		c-0.091,0-0.179,0.006-0.265,0.019c-0.091-0.127-0.228-0.317-0.413-0.571c-0.185-0.255-0.39-0.527-0.613-0.818
		s-0.452-0.581-0.686-0.867c-0.233-0.288-0.447-0.533-0.642-0.732h-0.345v0.663c0,0.399,0.008,0.794,0.022,1.182
		c0.017,0.388,0.032,0.769,0.051,1.145c-0.14-0.013-0.289-0.019-0.446-0.019s-0.306,0.006-0.444,0.019
		c0.019-0.376,0.034-0.757,0.05-1.145c0.015-0.388,0.023-0.782,0.023-1.182v-1.562C39.32,26.14,39.312,25.747,39.297,25.362
		 M40.343,27.094c0.1,0.006,0.209,0.009,0.331,0.009c0.187,0,0.383-0.021,0.585-0.064c0.204-0.042,0.39-0.116,0.559-0.223
		c0.171-0.104,0.311-0.247,0.424-0.426c0.111-0.18,0.168-0.405,0.168-0.677c0-0.236-0.045-0.433-0.133-0.587
		c-0.087-0.154-0.2-0.277-0.34-0.368s-0.291-0.152-0.455-0.186c-0.163-0.033-0.323-0.051-0.48-0.051
		c-0.213,0-0.389,0.005-0.528,0.014c-0.14,0.01-0.257,0.021-0.354,0.033c-0.012,0.332-0.024,0.662-0.037,0.989
		c-0.012,0.327-0.018,0.654-0.018,0.981v0.518C40.149,27.075,40.241,27.088,40.343,27.094"/>
	<path fill="#979AA1" d="M49.31,30.214c-0.117,0.059-0.262,0.109-0.428,0.154c-0.166,0.046-0.353,0.087-0.559,0.124
		c-0.207,0.035-0.421,0.054-0.645,0.054c-0.479,0-0.921-0.068-1.327-0.204c-0.405-0.137-0.755-0.344-1.049-0.622
		c-0.294-0.279-0.524-0.62-0.69-1.022c-0.167-0.403-0.25-0.861-0.25-1.376c0-0.516,0.083-0.975,0.25-1.378
		c0.166-0.401,0.399-0.742,0.699-1.021c0.301-0.279,0.658-0.49,1.077-0.637c0.418-0.145,0.878-0.217,1.381-0.217
		c0.399,0,0.765,0.04,1.095,0.122c0.329,0.082,0.622,0.18,0.876,0.295c-0.049,0.086-0.087,0.2-0.117,0.346
		c-0.031,0.146-0.055,0.267-0.072,0.363l-0.056,0.019c-0.06-0.073-0.146-0.154-0.254-0.246c-0.109-0.091-0.236-0.178-0.382-0.263
		s-0.309-0.156-0.49-0.214c-0.181-0.058-0.382-0.086-0.6-0.086c-0.357,0-0.688,0.058-0.994,0.172
		c-0.307,0.115-0.573,0.293-0.801,0.532c-0.226,0.238-0.404,0.542-0.53,0.908c-0.128,0.366-0.192,0.802-0.192,1.305
		c0,0.502,0.064,0.937,0.192,1.303c0.126,0.367,0.305,0.67,0.53,0.909c0.228,0.239,0.494,0.416,0.801,0.531
		c0.306,0.115,0.637,0.173,0.994,0.173c0.218,0,0.42-0.027,0.604-0.082c0.184-0.054,0.354-0.119,0.508-0.195
		c0.154-0.076,0.294-0.157,0.419-0.245c0.123-0.088,0.228-0.166,0.313-0.231l0.035,0.036l-0.081,0.535
		C49.514,30.104,49.427,30.157,49.31,30.214"/>
	<path fill="#979AA1" d="M52.182,27.425c-0.119-0.196-0.25-0.414-0.393-0.654c-0.141-0.238-0.291-0.49-0.448-0.754
		c-0.158-0.263-0.308-0.515-0.45-0.754s-0.272-0.455-0.387-0.646s-0.203-0.335-0.263-0.431c0.085,0.013,0.168,0.021,0.25,0.031
		c0.081,0.009,0.164,0.014,0.249,0.014s0.168-0.005,0.25-0.014c0.081-0.01,0.165-0.019,0.249-0.031
		c0.273,0.526,0.55,1.044,0.832,1.553c0.282,0.51,0.58,1.039,0.896,1.591c0.138-0.219,0.283-0.458,0.435-0.719
		c0.151-0.26,0.304-0.526,0.455-0.799c0.151-0.273,0.297-0.547,0.437-0.822c0.139-0.276,0.269-0.543,0.39-0.804
		c0.151,0.029,0.271,0.045,0.354,0.045c0.085,0,0.202-0.016,0.354-0.045c-0.289,0.441-0.551,0.841-0.781,1.198
		c-0.229,0.357-0.433,0.683-0.607,0.973c-0.177,0.29-0.33,0.554-0.464,0.786c-0.134,0.233-0.249,0.443-0.346,0.631
		c0,0.225,0.001,0.464,0.006,0.719c0.001,0.254,0.007,0.504,0.012,0.749c0.008,0.245,0.015,0.473,0.023,0.682
		s0.02,0.376,0.031,0.504c-0.14-0.013-0.286-0.019-0.444-0.019s-0.306,0.006-0.445,0.019c0.037-0.314,0.058-0.696,0.064-1.145
		c0.006-0.448,0.009-0.918,0.009-1.408C52.388,27.771,52.299,27.622,52.182,27.425"/>
	<path fill="#979AA1" d="M27.424,32.866c0.221,0.421,0.453,0.852,0.693,1.294c0.031-0.06,0.077-0.146,0.139-0.257
		c0.059-0.111,0.127-0.237,0.206-0.384c0.079-0.144,0.162-0.3,0.251-0.468c0.091-0.168,0.182-0.339,0.273-0.513
		c0.094-0.171,0.185-0.34,0.276-0.508c0.091-0.166,0.176-0.32,0.254-0.465h0.062c0.034,0.3,0.066,0.593,0.096,0.873
		c0.03,0.281,0.062,0.558,0.093,0.828c0.031,0.271,0.062,0.541,0.094,0.807c0.031,0.265,0.066,0.527,0.104,0.787
		c-0.037-0.006-0.074-0.009-0.11-0.009h-0.111h-0.109c-0.037,0-0.074,0.003-0.111,0.009c-0.034-0.417-0.068-0.821-0.104-1.214
		c-0.034-0.392-0.075-0.793-0.126-1.201H29.28c-0.215,0.396-0.429,0.788-0.637,1.179c-0.21,0.392-0.407,0.801-0.596,1.228h-0.044
		c-0.188-0.396-0.385-0.792-0.591-1.188c-0.205-0.398-0.411-0.802-0.618-1.218h-0.011c-0.021,0.194-0.046,0.405-0.072,0.634
		c-0.026,0.228-0.051,0.452-0.073,0.673c-0.021,0.222-0.041,0.431-0.056,0.626c-0.016,0.197-0.024,0.357-0.024,0.482
		c-0.05-0.006-0.105-0.009-0.165-0.009c-0.059,0-0.114,0.003-0.164,0.009c0.041-0.254,0.083-0.521,0.127-0.804
		c0.043-0.283,0.087-0.567,0.127-0.853c0.041-0.287,0.078-0.567,0.112-0.846c0.036-0.279,0.065-0.542,0.091-0.793h0.08
		C26.982,32.012,27.202,32.444,27.424,32.866"/>
	<path fill="#979AA1" d="M32.424,32.236c-0.008-0.199-0.017-0.401-0.025-0.609c0.042,0.006,0.08,0.013,0.117,0.017
		c0.039,0.005,0.076,0.006,0.113,0.006c0.039,0,0.076-0.001,0.113-0.006c0.038-0.004,0.077-0.011,0.118-0.017
		c-0.01,0.208-0.019,0.41-0.026,0.609s-0.012,0.402-0.012,0.61v0.81c0,0.208,0.004,0.412,0.012,0.612
		c0.008,0.202,0.017,0.399,0.026,0.593c-0.072-0.006-0.148-0.009-0.231-0.009c-0.082,0-0.157,0.003-0.23,0.009
		c0.009-0.193,0.018-0.391,0.025-0.593c0.009-0.2,0.012-0.404,0.012-0.612v-0.81C32.436,32.639,32.433,32.436,32.424,32.236"/>
	<path fill="#979AA1" d="M35.529,34.422c0.041,0.06,0.093,0.111,0.154,0.157c0.061,0.048,0.134,0.086,0.214,0.116
		c0.082,0.029,0.174,0.044,0.273,0.044c0.104,0,0.197-0.018,0.28-0.053c0.083-0.037,0.153-0.085,0.213-0.147
		c0.058-0.06,0.103-0.134,0.134-0.216c0.031-0.083,0.047-0.172,0.047-0.266c0-0.144-0.037-0.26-0.111-0.345
		c-0.074-0.084-0.164-0.155-0.274-0.211c-0.11-0.058-0.229-0.108-0.356-0.156c-0.127-0.047-0.245-0.106-0.355-0.177
		c-0.109-0.071-0.202-0.16-0.274-0.27c-0.074-0.112-0.111-0.259-0.111-0.443c0-0.132,0.023-0.252,0.069-0.36
		c0.048-0.109,0.116-0.202,0.205-0.279c0.091-0.079,0.197-0.14,0.324-0.185c0.125-0.045,0.266-0.065,0.423-0.065
		c0.15,0,0.281,0.018,0.391,0.054c0.11,0.035,0.213,0.092,0.307,0.166c-0.028,0.055-0.052,0.11-0.07,0.171
		c-0.019,0.06-0.038,0.136-0.056,0.226h-0.059c-0.015-0.044-0.037-0.092-0.063-0.144c-0.025-0.053-0.062-0.1-0.107-0.145
		c-0.046-0.043-0.1-0.08-0.163-0.109c-0.062-0.03-0.139-0.045-0.226-0.045c-0.088,0-0.168,0.014-0.242,0.042
		c-0.074,0.027-0.139,0.068-0.193,0.12s-0.097,0.114-0.128,0.187c-0.029,0.071-0.045,0.15-0.045,0.235
		c0,0.146,0.037,0.265,0.112,0.348c0.072,0.085,0.164,0.157,0.274,0.215c0.11,0.059,0.229,0.11,0.355,0.156
		c0.127,0.045,0.246,0.102,0.356,0.167c0.109,0.064,0.202,0.149,0.274,0.254c0.074,0.104,0.111,0.242,0.111,0.414
		c0,0.146-0.026,0.281-0.078,0.41c-0.051,0.129-0.127,0.24-0.227,0.336c-0.098,0.097-0.22,0.171-0.362,0.223
		c-0.143,0.051-0.305,0.077-0.487,0.077c-0.194,0-0.352-0.026-0.473-0.077c-0.121-0.052-0.223-0.111-0.304-0.177
		c0.027-0.073,0.047-0.139,0.059-0.196c0.011-0.058,0.021-0.132,0.03-0.225h0.057C35.451,34.308,35.485,34.364,35.529,34.422"/>
	<path fill="#979AA1" d="M39.668,34.422c0.042,0.06,0.094,0.111,0.154,0.157c0.062,0.048,0.134,0.086,0.216,0.116
		c0.081,0.029,0.172,0.044,0.273,0.044c0.103,0,0.195-0.018,0.279-0.053c0.083-0.037,0.154-0.085,0.212-0.147
		c0.058-0.06,0.103-0.134,0.134-0.216c0.031-0.083,0.048-0.172,0.048-0.266c0-0.144-0.037-0.26-0.11-0.345
		c-0.074-0.084-0.166-0.155-0.276-0.211c-0.109-0.058-0.229-0.108-0.354-0.156c-0.128-0.047-0.245-0.106-0.356-0.177
		c-0.11-0.071-0.201-0.16-0.275-0.27c-0.074-0.112-0.109-0.259-0.109-0.443c0-0.132,0.021-0.252,0.069-0.36
		c0.048-0.109,0.116-0.202,0.205-0.279c0.089-0.079,0.197-0.14,0.322-0.185c0.126-0.045,0.268-0.065,0.424-0.065
		c0.151,0,0.28,0.018,0.392,0.054c0.11,0.035,0.211,0.092,0.307,0.166c-0.03,0.055-0.053,0.11-0.071,0.171
		c-0.02,0.06-0.037,0.136-0.057,0.226h-0.057c-0.017-0.044-0.037-0.092-0.063-0.144c-0.027-0.053-0.062-0.1-0.108-0.145
		c-0.045-0.043-0.1-0.08-0.162-0.109c-0.062-0.03-0.139-0.045-0.227-0.045c-0.087,0-0.169,0.014-0.243,0.042
		c-0.073,0.027-0.138,0.068-0.193,0.12c-0.054,0.052-0.097,0.114-0.126,0.187c-0.029,0.071-0.045,0.15-0.045,0.235
		c0,0.146,0.037,0.265,0.11,0.348c0.074,0.085,0.166,0.157,0.276,0.215c0.109,0.059,0.228,0.11,0.354,0.156
		c0.127,0.045,0.247,0.102,0.355,0.167c0.11,0.064,0.202,0.149,0.276,0.254c0.074,0.104,0.11,0.242,0.11,0.414
		c0,0.146-0.025,0.281-0.078,0.41c-0.052,0.129-0.127,0.24-0.226,0.336c-0.1,0.097-0.22,0.171-0.362,0.223
		c-0.143,0.051-0.306,0.077-0.487,0.077c-0.196,0-0.354-0.026-0.474-0.077c-0.12-0.052-0.223-0.111-0.304-0.177
		c0.028-0.073,0.048-0.139,0.059-0.196c0.012-0.058,0.022-0.132,0.031-0.225h0.056C39.592,34.308,39.626,34.364,39.668,34.422"/>
	<path fill="#979AA1" d="M43.798,32.236c-0.008-0.199-0.017-0.401-0.025-0.609c0.04,0.006,0.08,0.013,0.117,0.017
		c0.037,0.005,0.076,0.006,0.113,0.006s0.076-0.001,0.113-0.006c0.037-0.004,0.077-0.011,0.117-0.017
		c-0.009,0.208-0.018,0.41-0.025,0.609s-0.012,0.402-0.012,0.61v0.81c0,0.208,0.004,0.412,0.012,0.612
		c0.008,0.202,0.017,0.399,0.025,0.593c-0.071-0.006-0.148-0.009-0.23-0.009s-0.159,0.003-0.23,0.009
		c0.009-0.193,0.018-0.391,0.025-0.593c0.009-0.2,0.012-0.404,0.012-0.612v-0.81C43.81,32.639,43.807,32.436,43.798,32.236"/>
	<path fill="#979AA1" d="M46.771,32.538c0.086-0.21,0.207-0.387,0.361-0.529c0.156-0.146,0.342-0.255,0.559-0.329
		c0.217-0.076,0.454-0.113,0.712-0.113c0.26,0,0.499,0.037,0.716,0.113c0.217,0.074,0.402,0.184,0.557,0.329
		c0.156,0.143,0.276,0.319,0.363,0.529c0.087,0.209,0.129,0.447,0.129,0.715c0,0.266-0.042,0.503-0.129,0.713
		c-0.087,0.208-0.207,0.385-0.363,0.528c-0.154,0.146-0.34,0.253-0.557,0.323c-0.217,0.071-0.456,0.106-0.716,0.106
		c-0.258,0-0.495-0.035-0.712-0.106c-0.217-0.07-0.402-0.177-0.559-0.323c-0.154-0.144-0.275-0.32-0.361-0.528
		c-0.088-0.21-0.131-0.447-0.131-0.713C46.64,32.985,46.683,32.747,46.771,32.538 M49.606,32.575
		c-0.065-0.188-0.157-0.347-0.274-0.471s-0.256-0.216-0.415-0.275c-0.158-0.06-0.329-0.089-0.515-0.089
		c-0.183,0-0.354,0.029-0.512,0.089c-0.159,0.06-0.297,0.151-0.414,0.275s-0.21,0.282-0.276,0.471
		c-0.065,0.19-0.099,0.416-0.099,0.678c0,0.26,0.033,0.484,0.099,0.674c0.066,0.19,0.159,0.348,0.276,0.472s0.255,0.217,0.414,0.276
		c0.158,0.059,0.329,0.089,0.512,0.089c0.186,0,0.356-0.03,0.515-0.089c0.159-0.06,0.298-0.152,0.415-0.276s0.209-0.281,0.274-0.472
		c0.067-0.189,0.1-0.414,0.1-0.674C49.706,32.991,49.674,32.766,49.606,32.575"/>
	<path fill="#979AA1" d="M54.109,33.641c-0.408-0.438-0.816-0.874-1.224-1.308c-0.005,0.088-0.008,0.206-0.011,0.354
		s-0.004,0.35-0.004,0.604c0,0.065,0.001,0.146,0.003,0.245c0.001,0.097,0.003,0.199,0.004,0.305
		c0.002,0.108,0.003,0.215,0.008,0.326c0.003,0.11,0.006,0.211,0.009,0.307c0.003,0.093,0.006,0.175,0.009,0.246
		c0.003,0.07,0.008,0.119,0.011,0.143c-0.051-0.006-0.105-0.009-0.165-0.009c-0.064,0-0.122,0.003-0.174,0.009
		c0.006-0.031,0.012-0.089,0.021-0.172c0.008-0.087,0.015-0.188,0.021-0.305c0.007-0.119,0.014-0.245,0.021-0.384
		c0.009-0.14,0.015-0.277,0.02-0.416c0.004-0.138,0.009-0.271,0.012-0.403c0.003-0.133,0.004-0.25,0.004-0.354
		c0-0.302,0-0.561-0.001-0.777c-0.003-0.216-0.006-0.379-0.012-0.484h0.074c0.191,0.206,0.396,0.43,0.614,0.666
		c0.219,0.235,0.435,0.471,0.649,0.702c0.216,0.23,0.421,0.449,0.614,0.653c0.192,0.205,0.36,0.381,0.505,0.524v-0.64
		c0-0.328-0.002-0.649-0.006-0.963c-0.006-0.312-0.015-0.606-0.031-0.883c0.062,0.016,0.116,0.022,0.16,0.022
		c0.037,0,0.088-0.007,0.15-0.022c-0.006,0.068-0.014,0.173-0.021,0.311c-0.008,0.139-0.017,0.285-0.024,0.443
		c-0.007,0.155-0.015,0.311-0.021,0.462c-0.006,0.149-0.009,0.271-0.009,0.362v0.282c0,0.107,0,0.219,0.001,0.334
		c0.002,0.116,0.003,0.233,0.005,0.351c0.001,0.118,0.004,0.228,0.006,0.33c0.001,0.103,0.001,0.191,0.001,0.266v0.156h-0.065
		C54.903,34.507,54.519,34.078,54.109,33.641"/>
	<path fill="#979AA1" d="M14.361,39.43c-5.378,0-9.753-4.338-9.753-9.671c0-5.332,4.375-9.671,9.753-9.671
		c5.379,0,9.754,4.339,9.754,9.671C24.115,35.092,19.74,39.43,14.361,39.43z M14.361,20.428c-5.19,0-9.413,4.186-9.413,9.331
		c0,5.146,4.223,9.331,9.413,9.331s9.414-4.185,9.414-9.331C23.775,24.613,19.552,20.428,14.361,20.428z"/>
	<path fill="#979AA1" d="M13.798,33.484c0,0-0.247-1.302-0.905-2.481c-0.638-1.144-1.758-1.794-2.029-0.15
		c-0.13,0.788-0.113,1.779,0.165,2.852c0.589,2.276,2.086,5.648,2.086,5.648s-0.829-0.596-1.854-1.686
		c-1.145-1.22-2.49-2.859-3.469-5.237c-0.507-1.234-0.474-3.252,0.041-4.456c1.166-2.729,2.947-3.768,4.119-3.675
		c1.053,0.082,1.64,1.288,2.023,2.468c0.379,1.164,0.578,2.304,0.578,2.304s2.261-3.866,4.536-3.565
		c2.276,0.302,3.332,3.25,2.756,5.69c-0.25,1.06-1.757,3.338-3.715,5.333c-2.551,2.599-5.649,4.992-5.649,4.992
		s1.151-1.536,2.413-3.565c0.757-1.219,1.568-2.756,2.153-3.853c0.668-1.259,1.17-2.322,1.274-3.072
		c0.127-0.908-0.293-1.368-1.206-1.33c-0.658,0.028-1.488,1.113-2.057,1.92C14.314,32.678,13.798,33.484,13.798,33.484"/>
	<path fill="#979AA1" d="M16.175,20.653c0,1.201-0.974,2.175-2.174,2.175s-2.174-0.974-2.174-2.175c0-1.2,0.974-2.174,2.174-2.174
		S16.175,19.453,16.175,20.653"/>
	<path fill="#979AA1" d="M21.395,22.527c0,1.2-0.974,2.174-2.174,2.174c-1.201,0-2.175-0.974-2.175-2.174
		c0-1.201,0.974-2.174,2.175-2.174C20.421,20.354,21.395,21.326,21.395,22.527"/>
</g>
</svg>
