<?xml version="1.0" encoding="utf-8"?>
<!-- Generator: Adobe Illustrator 16.0.0, SVG Export Plug-In . SVG Version: 6.00 Build 0)  -->
<!DOCTYPE svg PUBLIC "-//W3C//DTD SVG 1.1//EN" "http://www.w3.org/Graphics/SVG/1.1/DTD/svg11.dtd">
<svg version="1.1" id="Layer_1" xmlns:sketch="http://www.bohemiancoding.com/sketch/ns"
	 xmlns="http://www.w3.org/2000/svg" xmlns:xlink="http://www.w3.org/1999/xlink" x="0px" y="0px" width="60px" height="60px"
	 viewBox="0 0 60 60" enable-background="new 0 0 60 60" xml:space="preserve">
<title>google</title>
<desc>Created with Sketch.</desc>
<g>
	<g>
		<path fill-rule="evenodd" clip-rule="evenodd" fill="#979AA1" d="M44.558,31.028c1.763,0,3.526,0,5.316,0c0,0.297,0,0.562,0,0.847
			c-2.618,0-5.229,0-7.887,0c0-0.238-0.022-0.479,0.013-0.71c0.013-0.086,0.148-0.184,0.249-0.222
			c1.612-0.609,3.229-1.21,4.844-1.814c0.092-0.033,0.182-0.074,0.264-0.171c-1.771,0-3.542,0-5.341,0c0-0.303,0-0.569,0-0.855
			c2.616,0,5.227,0,7.886,0c0,0.24,0.027,0.48-0.013,0.709c-0.016,0.093-0.164,0.194-0.272,0.235
			c-1.581,0.598-3.166,1.186-4.748,1.775c-0.111,0.042-0.219,0.092-0.327,0.138C44.547,30.982,44.553,31.006,44.558,31.028z"/>
		<path fill-rule="evenodd" clip-rule="evenodd" fill="#979AA1" d="M41.404,31.896c-0.323,0-0.619,0.021-0.908-0.013
			c-0.097-0.011-0.23-0.149-0.255-0.252c-0.129-0.531-0.451-0.644-0.972-0.627c-1.301,0.043-2.604,0.01-3.905,0.023
			c-0.127,0.001-0.344,0.102-0.364,0.191c-0.146,0.641-0.565,0.772-1.136,0.678c-0.066-0.011-0.135-0.008-0.242-0.014
			c0.054-0.135,0.096-0.248,0.145-0.359c0.454-1.046,0.915-2.091,1.362-3.141c0.09-0.211,0.193-0.31,0.446-0.307
			c1.303,0.016,2.604,0.011,3.906,0.004c0.19-0.001,0.311,0.034,0.395,0.232c0.481,1.134,0.979,2.262,1.47,3.392
			C41.367,31.754,41.378,31.808,41.404,31.896z M35.463,30.121c1.395,0,2.729,0,4.107,0c-0.163-0.373-0.297-0.711-0.461-1.034
			c-0.038-0.074-0.176-0.139-0.269-0.141c-0.878-0.01-1.757-0.008-2.635-0.002c-0.09,0.002-0.229,0.039-0.261,0.102
			C35.773,29.387,35.629,29.742,35.463,30.121z"/>
		<path fill-rule="evenodd" clip-rule="evenodd" fill="#979AA1" d="M50.35,31.883c0.294-0.676,0.575-1.32,0.856-1.966
			c0.231-0.533,0.47-1.064,0.691-1.604c0.072-0.173,0.164-0.236,0.356-0.234c1.336,0.009,2.673,0.001,4.009,0.011
			c0.103,0.001,0.262,0.063,0.297,0.142c0.537,1.197,1.057,2.4,1.608,3.663c-0.355,0-0.669,0.022-0.976-0.014
			c-0.091-0.011-0.207-0.175-0.234-0.288c-0.116-0.488-0.406-0.601-0.891-0.587c-1.324,0.039-2.65,0.016-3.976,0.012
			c-0.172-0.001-0.33,0.004-0.369,0.21c-0.121,0.627-0.534,0.765-1.096,0.67C50.551,31.884,50.473,31.889,50.35,31.883z
			 M52.201,30.122c1.392,0,2.727,0,4.108,0c-0.163-0.372-0.299-0.709-0.459-1.033c-0.034-0.071-0.154-0.141-0.235-0.142
			c-0.901-0.01-1.803-0.009-2.704-0.003c-0.078,0.002-0.199,0.042-0.228,0.1C52.515,29.387,52.368,29.743,52.201,30.122z"/>
		<path fill-rule="evenodd" clip-rule="evenodd" fill="#979AA1" d="M32.075,30.809c0-0.941,0-1.807,0-2.699c0.348,0,0.672,0,1.028,0
			c0,1.246,0,2.494,0,3.772c-0.522,0.005-1.019,0.062-1.524-0.205c-1.514-0.8-3.051-1.551-4.58-2.323
			c-0.1-0.051-0.203-0.097-0.373-0.178c0,0.928,0,1.806,0,2.701c-0.375,0-0.691,0-1.039,0c0-1.25,0-2.498,0-3.785
			c0.489,0.014,0.966-0.07,1.451,0.185c1.525,0.802,3.072,1.562,4.611,2.336C31.768,30.673,31.89,30.724,32.075,30.809z"/>
	</g>
	<g>
		<path fill-rule="evenodd" clip-rule="evenodd" fill="#979AA1" d="M1.524,29.99c0-6.355,5.184-11.538,11.541-11.534
			c6.485,0.005,11.672,5.33,11.549,11.774c-0.116,6.075-5.042,11.287-11.539,11.312C6.707,41.566,1.524,36.366,1.524,29.99z
			 M13.075,40.836c6.048,0.006,10.879-4.982,10.84-10.931c-0.038-5.885-4.89-10.73-10.836-10.744
			C7.11,19.148,2.223,24.027,2.224,29.998C2.225,35.975,7.093,40.839,13.075,40.836z"/>
		<path fill-rule="evenodd" clip-rule="evenodd" fill="#979AA1" d="M23.083,29.318c-0.816-0.259-1.602-0.507-2.386-0.757
			c-4.622-1.474-9.244-2.947-13.864-4.428c-0.205-0.065-0.335-0.05-0.48,0.123c-1.275,1.522-1.99,3.269-2.107,5.252
			c-0.012,0.203-0.075,0.283-0.271,0.291c-0.305,0.012-0.609,0.037-0.98,0.059c0.033-0.421,0.041-0.824,0.099-1.221
			c0.324-2.24,1.284-4.165,2.881-5.773c0.146-0.147,0.27-0.174,0.463-0.113c4.929,1.58,9.86,3.154,14.791,4.728
			c0.095,0.03,0.19,0.055,0.354,0.104c-0.903-2.833-2.704-4.753-5.472-5.894c0.681-0.149,1.272-0.285,1.867-0.403
			c0.077-0.015,0.18,0.038,0.255,0.084c2.643,1.637,4.243,3.984,4.779,7.049c0.042,0.246,0.064,0.496,0.093,0.745
			C23.109,29.201,23.095,29.237,23.083,29.318z"/>
		<path fill-rule="evenodd" clip-rule="evenodd" fill="#979AA1" d="M6.613,35.999c2.813,3.339,9.019,4.226,12.926,0.065
			c0.264,0.29,0.529,0.579,0.798,0.873C16.35,41.463,8.436,41.137,4.821,35.74c0.392-0.306,0.784-0.613,1.178-0.919
			c2.244-1.739,4.489-3.477,6.73-5.219c0.165-0.129,0.305-0.162,0.504-0.088c0.388,0.142,0.785,0.257,1.232,0.4
			C11.814,31.969,9.214,33.983,6.613,35.999z"/>
		<path fill-rule="evenodd" clip-rule="evenodd" fill="#979AA1" d="M7.87,36.189c0.774-0.6,1.498-1.163,2.222-1.724
			c1.745-1.353,3.492-2.705,5.235-4.06c0.134-0.104,0.25-0.147,0.426-0.091c2.242,0.723,4.485,1.443,6.732,2.149
			c0.271,0.084,0.357,0.188,0.235,0.444c-0.027,0.058-0.038,0.124-0.061,0.185c-0.067,0.182-0.088,0.437-0.22,0.523
			c-0.112,0.076-0.351-0.064-0.535-0.065c-0.38,0-0.759,0.021-1.138,0.047c-2.469,0.182-4.938,0.385-7.41,0.535
			c-0.571,0.036-1.016,0.211-1.451,0.567c-0.881,0.726-1.8,1.403-2.697,2.109c-0.155,0.122-0.274,0.146-0.438,0.022
			C8.493,36.62,8.201,36.424,7.87,36.189z M14.313,32.848c0.01,0.018,0.021,0.034,0.031,0.052c1.463-0.104,2.926-0.206,4.408-0.31
			c-0.029-0.039-0.037-0.063-0.05-0.067c-0.889-0.285-1.778-0.573-2.67-0.853c-0.068-0.021-0.175-0.009-0.23,0.033
			C15.302,32.079,14.808,32.465,14.313,32.848z"/>
		<path fill-rule="evenodd" clip-rule="evenodd" fill="#979AA1" d="M23.009,31.666c-0.625-0.198-1.198-0.38-1.771-0.563
			c-4.621-1.473-9.242-2.947-13.861-4.429c-0.214-0.069-0.306-0.032-0.405,0.164c-0.691,1.36-0.918,2.79-0.684,4.295
			c0.019,0.126,0.043,0.253,0.072,0.421c-0.394,0.034-0.767,0.063-1.184,0.101c-0.047-0.325-0.111-0.632-0.134-0.939
			c-0.147-1.959,0.325-3.751,1.454-5.368c0.12-0.171,0.237-0.124,0.382-0.077c2.227,0.711,4.453,1.42,6.68,2.13
			c3.083,0.983,6.166,1.971,9.252,2.943c0.256,0.082,0.348,0.189,0.304,0.45C23.068,31.064,23.047,31.341,23.009,31.666z"/>
		<path fill-rule="evenodd" clip-rule="evenodd" fill="#979AA1" d="M7.404,29.386c-0.029-0.362-0.062-0.683-0.071-1.004
			c-0.002-0.058,0.095-0.166,0.15-0.168c0.649-0.025,1.295-0.18,1.948,0.078c0.653,0.259,1.337,0.438,2.007,0.651
			c0.067,0.022,0.132,0.051,0.195,0.135C10.232,29.18,8.831,29.282,7.404,29.386z"/>
	</g>
</g>
</svg>
