<?xml version="1.0" encoding="UTF-8" standalone="no"?>
<svg width="60px" height="60px" viewBox="0 0 60 60" version="1.1" xmlns="http://www.w3.org/2000/svg" xmlns:xlink="http://www.w3.org/1999/xlink" xmlns:sketch="http://www.bohemiancoding.com/sketch/ns">
    <!-- Generator: Sketch 3.3 (11970) - http://www.bohemiancoding.com/sketch -->
    <title>pinterest</title>
    <desc>Created with Sketch.</desc>
    <defs></defs>
    <g id="Page-1" stroke="none" stroke-width="1" fill="none" fill-rule="evenodd" sketch:type="MSPage">
        <g id="pinterest" sketch:type="MSArtboardGroup" fill="#979AA1">
            <g sketch:type="MSLayerGroup" transform="translate(7.909091, 24.000000)" id="Shape">
                <path d="M8.78181818,4.36363636 C8.78181818,6.81818182 7.41818182,8.67272727 5.4,8.67272727 C4.69090909,8.67272727 4.09090909,8.29090909 3.81818182,7.90909091 C3.81818182,7.90909091 3.49090909,9.32727273 3.38181818,9.65454545 C3.10909091,10.6363636 2.34545455,11.6181818 2.23636364,11.6727273 C2.18181818,11.7272727 2.12727273,11.7272727 2.07272727,11.6181818 C2.07272727,11.5090909 1.85454545,10.2545455 2.12727273,9.21818182 C2.23636364,8.72727273 2.94545455,5.78181818 2.94545455,5.78181818 C2.94545455,5.78181818 2.72727273,5.4 2.72727273,4.8 C2.72727273,3.87272727 3.27272727,3.16363636 3.92727273,3.16363636 C4.52727273,3.16363636 4.8,3.6 4.8,4.09090909 C4.8,4.69090909 4.47272727,5.56363636 4.25454545,6.32727273 C4.09090909,6.98181818 4.58181818,7.52727273 5.23636364,7.52727273 C6.43636364,7.52727273 7.25454545,6 7.25454545,4.2 C7.25454545,2.83636364 6.32727273,1.8 4.63636364,1.8 C2.72727273,1.8 1.52727273,3.21818182 1.52727273,4.8 C1.52727273,5.34545455 1.69090909,5.72727273 1.96363636,6.05454545 C2.07272727,6.16363636 2.07272727,6.21818182 2.01818182,6.38181818 C1.96363636,6.49090909 1.96363636,6.81818182 1.90909091,6.87272727 C1.85454545,7.03636364 1.74545455,7.09090909 1.58181818,7.03636364 C0.654545455,6.70909091 0.272727273,5.72727273 0.272727273,4.63636364 C0.272727273,2.89090909 1.74545455,0.709090909 4.8,0.709090909 C7.2,0.763636364 8.78181818,2.50909091 8.78181818,4.36363636 L8.78181818,4.36363636 Z M41.8909091,7.14545455 C41.6727273,8.01818182 41.5090909,8.61818182 41.5090909,8.89090909 C41.5090909,9.21818182 41.6727273,9.38181818 42,9.38181818 C42.4909091,9.38181818 42.7636364,8.94545455 42.8727273,8.56363636 C42.8727273,8.50909091 42.9272727,8.45454545 43.0363636,8.45454545 L43.4727273,8.45454545 C43.5818182,8.45454545 43.6363636,8.50909091 43.5818182,8.61818182 C43.2545455,9.70909091 42.5454545,10.5272727 41.3454545,10.5272727 C40.4727273,10.5272727 40.1454545,10.0363636 40.1454545,9.32727273 C40.1454545,8.83636364 40.9090909,6.05454545 40.9090909,6.05454545 L40.1454545,6.05454545 C40.0363636,6.05454545 39.9272727,6 39.9818182,5.83636364 C40.0363636,5.72727273 40.0909091,5.4 40.1454545,5.18181818 C40.2,5.01818182 40.2545455,4.96363636 40.4181818,4.96363636 L41.1818182,4.96363636 C41.1818182,4.96363636 41.6181818,3.65454545 41.6181818,2.94545455 C41.6181818,2.01818182 41.0181818,1.47272727 40.2,1.47272727 C38.9454545,1.47272727 38.3454545,2.4 38.3454545,3.38181818 C38.3454545,5.07272727 39.6545455,5.18181818 39.6545455,6 C39.6545455,6.27272727 39.4909091,6.54545455 39.1090909,6.54545455 C38.6727273,6.54545455 38.4,6.21818182 38.2909091,5.89090909 C38.1818182,5.83636364 37.9090909,5.83636364 37.5818182,5.83636364 C37.0909091,5.83636364 36.8181818,6 36.8181818,6.32727273 C36.8181818,6.76363636 37.3636364,6.92727273 38.0181818,7.09090909 C38.7818182,7.41818182 39.5454545,7.74545455 39.5454545,8.67272727 C39.5454545,9.65454545 38.7272727,10.4181818 37.2545455,10.4181818 C36.2181818,10.4181818 35.3454545,9.98181818 35.0181818,9.43636364 C34.3636364,9.98181818 33.5454545,10.4181818 32.4,10.4181818 C30.9272727,10.4181818 30.1090909,9.43636364 30.1090909,8.29090909 C30.1090909,8.07272727 30.1090909,7.90909091 30.1636364,7.63636364 C29.9454545,7.58181818 29.7272727,7.58181818 29.5090909,7.52727273 C29.2909091,7.69090909 29.0181818,7.74545455 28.7454545,7.74545455 C28.3090909,7.74545455 27.9818182,7.47272727 27.9818182,7.14545455 C27.9818182,6.70909091 28.3090909,6.49090909 28.7454545,6.54545455 C28.8,6.49090909 28.8,6.38181818 28.8,6.27272727 C28.8,6 28.6363636,5.78181818 28.3090909,5.78181818 C27.4363636,5.78181818 26.8363636,7.25454545 26.5090909,8.67272727 C26.2909091,9.43636364 26.1818182,9.92727273 26.1818182,9.98181818 C26.1272727,10.0909091 26.0727273,10.2 25.9090909,10.2 L24.9818182,10.2 C24.8181818,10.2 24.7636364,10.0909091 24.7636364,9.98181818 C24.7636364,9.92727273 24.8181818,9.65454545 24.9818182,9.21818182 C24.3818182,9.87272727 23.5090909,10.3090909 22.4727273,10.3090909 C21.3818182,10.3090909 20.6727273,9.76363636 20.3454545,9.05454545 C19.9636364,9.70909091 19.3090909,10.3090909 18.2727273,10.3090909 C17.6181818,10.3090909 17.2909091,9.98181818 17.1818182,9.54545455 C16.8545455,9.98181818 16.3090909,10.3090909 15.6545455,10.3090909 C14.6727273,10.3090909 14.4545455,9.65454545 14.4545455,9.10909091 C14.4545455,8.45454545 15,6.87272727 15.0545455,6.43636364 C15.1090909,6.05454545 14.8363636,5.83636364 14.5090909,5.83636364 C13.8545455,5.83636364 13.4181818,6.32727273 13.2,7.03636364 C13.2,7.03636364 12.4909091,9.81818182 12.4363636,9.92727273 C12.3818182,10.0909091 12.3818182,10.1454545 12.1636364,10.1454545 L11.2363636,10.1454545 C11.0727273,10.1454545 11.0181818,10.0363636 11.0727273,9.87272727 C11.0727273,9.87272727 11.1272727,9.70909091 11.1818182,9.54545455 C10.8,9.92727273 10.2545455,10.3090909 9.6,10.3090909 C8.78181818,10.3090909 8.45454545,9.81818182 8.45454545,9.10909091 C8.45454545,8.78181818 8.67272727,7.90909091 8.89090909,7.14545455 C9.16363636,6.05454545 9.38181818,5.07272727 9.38181818,5.07272727 C9.43636364,4.96363636 9.49090909,4.85454545 9.65454545,4.85454545 L10.5818182,4.85454545 C10.7454545,4.85454545 10.8,4.96363636 10.7454545,5.07272727 C10.7454545,5.12727273 10.5272727,6 10.2545455,6.98181818 C10.0363636,7.8 9.87272727,8.45454545 9.87272727,8.72727273 C9.87272727,9 9.98181818,9.21818182 10.3090909,9.21818182 C10.8545455,9.21818182 11.4,8.50909091 11.6181818,7.63636364 C11.9454545,6.43636364 12.2727273,5.12727273 12.2727273,5.01818182 C12.3272727,4.90909091 12.3272727,4.8 12.5454545,4.8 L13.4727273,4.8 C13.6363636,4.8 13.6909091,4.90909091 13.6909091,5.01818182 C13.6363636,5.12727273 13.5818182,5.4 13.5818182,5.4 C13.8545455,5.07272727 14.4545455,4.69090909 15.0545455,4.69090909 C15.9818182,4.69090909 16.4181818,5.18181818 16.4181818,6 C16.4181818,6.65454545 15.8727273,8.01818182 15.8727273,8.61818182 C15.8727273,8.94545455 16.0363636,9.10909091 16.3636364,9.10909091 C16.9090909,9.10909091 17.2909091,8.07272727 17.3454545,7.63636364 C17.5636364,6.70909091 17.8363636,5.72727273 17.8363636,5.72727273 L17.0727273,5.72727273 C16.9090909,5.72727273 16.8545455,5.67272727 16.8545455,5.50909091 C16.9090909,5.4 16.9636364,5.07272727 17.0181818,4.85454545 C17.0727273,4.69090909 17.1272727,4.63636364 17.2909091,4.63636364 L18.0545455,4.63636364 C18.0545455,4.63636364 18.4363636,3.10909091 18.4363636,3.05454545 C18.4909091,2.83636364 18.6,2.78181818 18.7090909,2.72727273 C18.8727273,2.72727273 19.6363636,2.56363636 19.6363636,2.56363636 C19.8,2.50909091 19.9090909,2.61818182 19.8545455,2.78181818 C19.8545455,2.83636364 19.4181818,4.58181818 19.4181818,4.58181818 L20.3454545,4.58181818 C20.5090909,4.58181818 20.5636364,4.63636364 20.5636364,4.8 C20.5090909,4.90909091 20.4545455,5.23636364 20.4,5.45454545 C20.3454545,5.56363636 20.2909091,5.67272727 20.1272727,5.67272727 L19.1454545,5.67272727 C19.0363636,6.16363636 18.9272727,6.54545455 18.8727273,6.81818182 C18.6545455,7.63636364 18.4909091,8.29090909 18.4909091,8.56363636 C18.4909091,8.89090909 18.6545455,9.05454545 18.9272727,9.05454545 C19.5818182,9.05454545 20.1272727,8.12727273 20.1818182,7.52727273 C20.3454545,5.94545455 21.4363636,4.58181818 23.1818182,4.58181818 C24.3818182,4.58181818 24.9818182,5.29090909 24.9818182,6 C24.9818182,7.25454545 24.0545455,7.90909091 22.6363636,7.90909091 C22.3090909,7.90909091 21.8181818,7.85454545 21.6,7.74545455 C21.6,8.67272727 22.0363636,9.10909091 22.9090909,9.10909091 C24.1636364,9.10909091 25.1454545,8.18181818 25.3636364,7.41818182 C25.6909091,6.21818182 26.0181818,4.96363636 26.0181818,4.85454545 C26.0727273,4.69090909 26.1272727,4.63636364 26.2909091,4.63636364 L27.2181818,4.63636364 C27.3818182,4.63636364 27.4363636,4.74545455 27.4363636,4.85454545 C27.4363636,4.90909091 27.3818182,5.18181818 27.2181818,5.56363636 C27.6545455,4.90909091 28.2545455,4.52727273 28.8545455,4.52727273 C29.7818182,4.52727273 30.1090909,5.18181818 30.1090909,5.72727273 C30.1090909,6.05454545 30.0545455,6.32727273 29.9454545,6.54545455 C30.0545455,6.6 30.1636364,6.6 30.2727273,6.6 C30.6545455,5.50909091 31.5272727,4.52727273 33.1636364,4.52727273 C34.3636364,4.52727273 34.9636364,5.23636364 34.9636364,5.94545455 C34.9636364,7.2 33.9818182,7.85454545 32.5636364,7.85454545 C32.2363636,7.85454545 31.7454545,7.8 31.5272727,7.69090909 C31.5272727,8.61818182 31.9636364,9.05454545 32.7818182,9.05454545 C33.6545455,9.05454545 34.2545455,8.78181818 34.8,8.29090909 C34.8545455,7.96363636 35.1272727,7.63636364 35.5090909,7.63636364 C35.8909091,7.63636364 36.1090909,7.85454545 36.1090909,8.18181818 C36.1090909,8.4 36.0545455,8.50909091 35.9454545,8.56363636 C36,8.72727273 36.4363636,9.05454545 37.2,9.05454545 C37.8545455,9.05454545 38.1272727,8.83636364 38.1272727,8.50909091 C38.1272727,8.01818182 37.5272727,7.90909091 36.9272727,7.69090909 C36.2181818,7.47272727 35.4545455,7.09090909 35.4545455,6.10909091 C35.4545455,5.07272727 36.2181818,4.36363636 37.5818182,4.36363636 L37.8545455,4.36363636 C37.6363636,4.03636364 37.4727273,3.49090909 37.4727273,3.05454545 C37.4727273,1.41818182 38.5636364,0.327272727 40.3090909,0.327272727 C41.7818182,0.327272727 42.9272727,1.36363636 42.9272727,2.61818182 C42.9272727,3.27272727 42.6,4.2 42.5454545,4.52727273 L43.5818182,4.52727273 C43.6909091,4.52727273 43.8,4.58181818 43.7454545,4.74545455 C43.6909091,4.85454545 43.6363636,5.18181818 43.5818182,5.4 C43.5272727,5.50909091 43.4727273,5.61818182 43.3090909,5.61818182 L42.2727273,5.61818182 C42.2181818,6.05454545 42,6.76363636 41.8909091,7.14545455 L41.8909091,7.14545455 Z M9.6,3.76363636 C9.65454545,3.27272727 10.0909091,2.89090909 10.5818182,2.89090909 C11.0727273,2.89090909 11.3454545,3.27272727 11.2909091,3.76363636 C11.2363636,4.25454545 10.8,4.63636364 10.3090909,4.63636364 C9.76363636,4.63636364 9.49090909,4.2 9.6,3.76363636 L9.6,3.76363636 Z M21.6545455,7.36363636 C21.8727273,7.41818182 22.2,7.47272727 22.4181818,7.47272727 C23.1272727,7.47272727 23.5636364,7.14545455 23.5636364,6.54545455 C23.5636364,6.21818182 23.4,5.94545455 22.9090909,5.94545455 C22.0909091,6 21.7636364,6.87272727 21.6545455,7.36363636 L21.6545455,7.36363636 Z M31.5818182,7.36363636 C31.8,7.41818182 32.0727273,7.47272727 32.3454545,7.47272727 C33,7.47272727 33.4363636,7.14545455 33.4363636,6.54545455 C33.4363636,6.21818182 33.2181818,5.94545455 32.7818182,5.94545455 C32.0181818,6 31.6363636,6.87272727 31.5818182,7.36363636 L31.5818182,7.36363636 Z" sketch:type="MSShapeGroup"></path>
            </g>
        </g>
    </g>
</svg>
