<?xml version="1.0" encoding="utf-8"?>
<!-- Generator: Adobe Illustrator 16.0.0, SVG Export Plug-In . SVG Version: 6.00 Build 0)  -->
<!DOCTYPE svg PUBLIC "-//W3C//DTD SVG 1.1//EN" "http://www.w3.org/Graphics/SVG/1.1/DTD/svg11.dtd">
<svg version="1.1" id="Layer_1" xmlns:sketch="http://www.bohemiancoding.com/sketch/ns"
	 xmlns="http://www.w3.org/2000/svg" xmlns:xlink="http://www.w3.org/1999/xlink" x="0px" y="0px" width="60px" height="60px"
	 viewBox="0 0 60 60" enable-background="new 0 0 60 60" xml:space="preserve">
<title>google</title>
<desc>Created with Sketch.</desc>
<g>
	<g>
		<path fill="#979AA1" d="M56.582,23.392H50.41v10.594h1.481c0.665-0.867,1.711-1.427,2.889-1.427s2.224,0.56,2.889,1.427h1.48
			v-5.279L56.582,23.392z M57.551,28.492H52.01v-3.828h3.912l1.629,3.37V28.492z"/>
		<path fill="#979AA1" d="M54.78,33.308c-1.597,0-2.89,1.294-2.89,2.89s1.293,2.889,2.89,2.889c1.596,0,2.889-1.293,2.889-2.889
			S56.376,33.308,54.78,33.308z M54.78,37.481c-0.709,0-1.284-0.575-1.284-1.284s0.575-1.284,1.284-1.284s1.284,0.575,1.284,1.284
			S55.489,37.481,54.78,37.481z"/>
		<path fill="#979AA1" d="M40.393,33.308c-1.596,0-2.889,1.294-2.889,2.89s1.293,2.889,2.889,2.889s2.89-1.293,2.89-2.889
			S41.988,33.308,40.393,33.308z M40.393,37.481c-0.709,0-1.284-0.575-1.284-1.284s0.575-1.284,1.284-1.284s1.284,0.575,1.284,1.284
			S41.102,37.481,40.393,37.481z"/>
		<path fill="#979AA1" d="M57.669,33.985c0.47,0.613,0.75,1.38,0.75,2.212h0.73v-2.212H57.669z"/>
		<g>
			<path fill="#979AA1" d="M35.262,33.985v2.212h1.492c0-0.832,0.28-1.599,0.75-2.212H35.262z"/>
			<path fill="#979AA1" d="M43.281,33.985c0.47,0.613,0.75,1.38,0.75,2.212h7.11c0-0.832,0.28-1.599,0.75-2.212H43.281z"/>
		</g>
		<circle fill="#979AA1" cx="49.073" cy="22.801" r="1.284"/>
		<path fill="#979AA1" d="M49.982,21.713c0,0,0.25-0.928,1.195-0.785C51.178,20.928,50.787,21.905,49.982,21.713z"/>
		<circle fill="#979AA1" cx="43.467" cy="27.008" r="0.831"/>
		<path fill="#979AA1" d="M42.973,26.234c0,0-0.524-0.334-0.253-0.89C42.72,25.344,43.247,25.774,42.973,26.234z"/>
		<path fill="#979AA1" d="M39.245,30.244c-0.683,0-1.236,0.554-1.236,1.236c0,0.684,0.554,1.237,1.236,1.237
			c0.684,0,1.237-0.554,1.237-1.237C40.482,30.798,39.929,30.244,39.245,30.244z M38.564,30.939
			c-0.399,0.605-0.077,1.165-0.148,1.083C37.9,31.431,38.716,30.712,38.564,30.939z"/>
		<path fill="#979AA1" d="M38.484,23.358c-0.341,0-0.618,0.276-0.618,0.618c0,0.341,0.277,0.618,0.618,0.618
			c0.342,0,0.619-0.277,0.619-0.618C39.104,23.634,38.826,23.358,38.484,23.358z M38.145,23.706c-0.2,0.303-0.039,0.582-0.074,0.541
			C37.812,23.951,38.22,23.591,38.145,23.706z"/>
		<path fill="#979AA1" d="M45.613,27.792c-0.342,0-0.618,0.277-0.618,0.619c0,0.342,0.276,0.618,0.618,0.618
			c0.341,0,0.618-0.276,0.618-0.618C46.231,28.069,45.954,27.792,45.613,27.792z M45.273,28.14
			c-0.201,0.302-0.039,0.583-0.075,0.541C44.94,28.386,45.349,28.026,45.273,28.14z"/>
		<g>
			<path fill="#979AA1" d="M35.048,22.185c0.003-0.026,0.033-0.227,0.192-0.102c0.16,0.126,0.356,0.747,0.356,0.747L35.048,22.185z"
				/>
			<path fill="#979AA1" d="M35.563,21.847c0.018-0.027,0.175-0.227,0.271,0.007c0.097,0.234-0.069,1.03-0.069,1.03L35.563,21.847z"
				/>
			<path fill="#979AA1" d="M36.113,22.019c0.023-0.013,0.209-0.098,0.192,0.104c-0.017,0.203-0.427,0.712-0.427,0.712L36.113,22.019
				z"/>
		</g>
		<path fill="#979AA1" d="M39.481,23.387c-0.002,0.004,0.006-0.004,0.015-0.013c0.112-0.109,0.324-0.413-0.137-0.839l-0.105,0.271
			C39.254,22.807,39.653,22.949,39.481,23.387z"/>
		<g>
			<path fill="#979AA1" d="M36.251,31.427c0,0-0.146-0.646,0.164-0.638c0.311,0.007,0.209,0.144,0.153,0.251
				c-0.056,0.106-0.23,0.46-0.23,0.46L36.251,31.427z"/>
			<path fill="#979AA1" d="M37.27,31.134c-0.338-0.179-0.584,0.09-0.654,0.139c-0.059,0.041-0.182,0.106-0.221,0.127
				c-0.042-0.012-0.177-0.048-0.243-0.076c-0.079-0.032-0.378-0.241-0.669,0.008c-0.29,0.248-0.588,1.578,0.597,2.229
				c0,0,0.313,0.032,0.456-0.191c0,0,0.035-0.025,0.071-0.044c0.04,0.011,0.079,0.027,0.079,0.027
				c0.188,0.188,0.487,0.088,0.487,0.088C38.188,32.546,37.607,31.312,37.27,31.134z M35.794,31.695
				c-0.366,0.713,0.056,1.287-0.034,1.205C35.124,32.314,35.932,31.427,35.794,31.695z"/>
		</g>
		<g>
			<path fill="#979AA1" d="M44.923,30.012c0,0-0.067-0.298,0.076-0.295c0.144,0.004,0.096,0.067,0.07,0.116
				c-0.025,0.05-0.106,0.213-0.106,0.213L44.923,30.012z"/>
			<path fill="#979AA1" d="M45.394,29.877c-0.155-0.083-0.27,0.041-0.302,0.064c-0.027,0.02-0.085,0.049-0.103,0.059
				c-0.02-0.005-0.082-0.023-0.112-0.035c-0.036-0.016-0.175-0.112-0.31,0.003s-0.271,0.73,0.276,1.031c0,0,0.145,0.015,0.211-0.089
				c0,0,0.016-0.012,0.032-0.021c0.019,0.005,0.037,0.014,0.037,0.014c0.087,0.086,0.225,0.04,0.225,0.04
				C45.818,30.53,45.55,29.96,45.394,29.877z M44.711,30.137c-0.169,0.329,0.026,0.595-0.016,0.557
				C44.402,30.423,44.775,30.013,44.711,30.137z"/>
		</g>
		<g>
			<path fill="#979AA1" d="M43.087,24.068c0,0-0.067-0.298,0.076-0.295s0.096,0.067,0.07,0.116
				c-0.025,0.049-0.106,0.213-0.106,0.213L43.087,24.068z"/>
			<path fill="#979AA1" d="M43.558,23.933c-0.155-0.083-0.27,0.042-0.302,0.064c-0.027,0.019-0.085,0.049-0.103,0.058
				c-0.02-0.005-0.082-0.022-0.112-0.035c-0.036-0.016-0.175-0.112-0.31,0.003c-0.134,0.115-0.272,0.73,0.276,1.031
				c0,0,0.145,0.014,0.21-0.089c0,0,0.017-0.012,0.033-0.021c0.019,0.005,0.037,0.013,0.037,0.013
				c0.087,0.086,0.226,0.04,0.226,0.04C43.982,24.586,43.715,24.016,43.558,23.933z M42.875,24.192
				c-0.169,0.33,0.026,0.596-0.015,0.558C42.565,24.479,42.938,24.068,42.875,24.192z"/>
		</g>
		<path fill="#979AA1" d="M36.788,28.634c0,0,0.509-0.763,0.31-0.89C36.898,27.618,36.764,28.329,36.788,28.634z"/>
		<path fill="#979AA1" d="M37.065,28.999c0,0,0.871-0.284,0.939-0.058C38.072,29.167,37.352,29.104,37.065,28.999z"/>
		<path fill="#979AA1" d="M36.961,28.805c0,0,0.85-0.332,0.72-0.535C37.55,28.066,37.083,28.553,36.961,28.805z"/>
		<path fill="#979AA1" d="M35.259,30.128l0.005-0.004L35.259,30.128c0,0,2.563,0.218,1.581-1.149l0.002-0.001
			c-0.004-0.005-0.009-0.009-0.013-0.015c-0.004-0.006-0.008-0.011-0.012-0.017l-0.001,0.001
			C35.766,27.632,35.259,30.128,35.259,30.128z M36.061,29.827c0.613,0.013,0.783-0.5,0.771-0.406
			C36.755,30.096,35.83,29.822,36.061,29.827z"/>
		<path fill="#979AA1" d="M49.974,32.512C49.974,32.512,49.975,32.512,49.974,32.512c0-0.002,0-0.002,0-0.002
			c-0.002-0.013-0.006-0.021-0.006-0.021h-0.002c-0.049-0.129-0.202-0.083-0.202-0.083c-0.384-0.609-1.161-0.496-1.161-0.496
			c-0.993,0.208-1.025,0.766-1.011,0.939c0.003,0.033,0.007,0.052,0.007,0.052l-0.004-0.019c-0.236,0.04-0.116,0.23-0.116,0.23
			h0.001c0.062,0.136,0.183,0.083,0.183,0.083c0.398,0.6,1.173,0.469,1.173,0.469c0.988-0.231,1.008-0.79,0.988-0.963
			c-0.003-0.033-0.009-0.052-0.009-0.052l0.006,0.019C49.971,32.624,49.98,32.55,49.974,32.512z M49.085,32.361
			c-0.696-0.194-1.129,0.283-1.072,0.189C48.415,31.882,49.348,32.434,49.085,32.361z"/>
		<path fill="#979AA1" d="M47.091,25.412C47.091,25.412,47.091,25.412,47.091,25.412c0-0.001,0-0.001,0-0.001
			c-0.002-0.008-0.004-0.013-0.004-0.013h-0.001c-0.031-0.082-0.13-0.053-0.13-0.053c-0.244-0.388-0.74-0.317-0.74-0.317
			c-0.634,0.133-0.653,0.489-0.645,0.6c0.002,0.021,0.005,0.033,0.005,0.033l-0.003-0.012c-0.15,0.025-0.074,0.147-0.074,0.147l0,0
			c0.04,0.087,0.118,0.053,0.118,0.053c0.253,0.383,0.747,0.299,0.747,0.299c0.63-0.147,0.643-0.503,0.631-0.614
			c-0.003-0.021-0.006-0.033-0.006-0.033l0.003,0.012C47.089,25.484,47.094,25.436,47.091,25.412z M46.523,25.316
			c-0.444-0.124-0.719,0.181-0.684,0.121C46.097,25.01,46.691,25.363,46.523,25.316z"/>
		<path fill="#979AA1" d="M41.079,26.931L41.079,26.931L41.079,26.931c-0.009,0.006-0.014,0.011-0.014,0.011l0.002,0
			c-0.076,0.073,0.001,0.166,0.001,0.166c-0.309,0.448,0.001,0.955,0.001,0.955c0.441,0.628,0.839,0.485,0.955,0.423
			c0.022-0.012,0.034-0.021,0.034-0.021l-0.012,0.009c0.098,0.152,0.194,0.012,0.194,0.012v0c0.076-0.083,0.003-0.152,0.003-0.152
			c0.299-0.455-0.023-0.955-0.023-0.955c-0.455-0.618-0.85-0.465-0.964-0.4C41.234,26.99,41.223,27,41.223,27l0.012-0.009
			C41.159,26.899,41.104,26.915,41.079,26.931z M41.239,27.593c0.073,0.542,0.534,0.701,0.452,0.689
			C41.106,28.202,41.212,27.39,41.239,27.593z"/>
		<path fill="#979AA1" d="M36.033,24.811c-0.187-0.553,0.009-1.291,0.009-1.291c0.238-0.709-0.357-0.56-0.489-0.457
			c-0.462,0.361,0.236,1.901,0.236,1.901C35.9,25.176,36.061,24.891,36.033,24.811z M35.691,24.372
			c-0.352-0.333-0.08-0.916-0.114-0.744C35.488,24.083,35.74,24.418,35.691,24.372z"/>
		<g>
			<path fill="#979AA1" d="M46.812,24.819c-0.009-0.012-0.069-0.112,0.047-0.115s0.43,0.196,0.43,0.196L46.812,24.819z"/>
			<path fill="#979AA1" d="M46.913,24.482c-0.002-0.019-0.007-0.164,0.121-0.097c0.128,0.066,0.349,0.476,0.349,0.476L46.913,24.482
				z"/>
			<path fill="#979AA1" d="M47.217,24.354c0.005-0.014,0.055-0.12,0.121-0.024c0.067,0.094,0.075,0.467,0.075,0.467L47.217,24.354z"
				/>
		</g>
		<path fill="#979AA1" d="M48.207,25.604c-0.284-0.173-0.47-0.567-0.47-0.567c-0.157-0.397-0.362-0.113-0.382-0.02
			c-0.07,0.328,0.801,0.744,0.801,0.744C48.283,25.812,48.249,25.629,48.207,25.604z M47.896,25.538
			c-0.274-0.016-0.371-0.371-0.322-0.283C47.701,25.486,47.936,25.54,47.896,25.538z"/>
		<g>
			<path fill="#979AA1" d="M45.147,31.359c0.011,0.011,0.094,0.097-0.022,0.126c-0.115,0.029-0.475-0.102-0.475-0.102L45.147,31.359
				z"/>
			<path fill="#979AA1" d="M45.12,31.721c0.006,0.019,0.043,0.163-0.101,0.124s-0.455-0.401-0.455-0.401L45.12,31.721z"/>
			<path fill="#979AA1" d="M44.843,31.915c-0.002,0.016-0.028,0.133-0.116,0.053c-0.089-0.08-0.18-0.454-0.18-0.454L44.843,31.915z"
				/>
		</g>
		<path fill="#979AA1" d="M43.571,30.879c0.325,0.111,0.599,0.466,0.599,0.466c0.245,0.365,0.389,0.034,0.388-0.064
			c-0.002-0.344-0.97-0.57-0.97-0.57C43.45,30.686,43.525,30.862,43.571,30.879z M43.898,30.876c0.28-0.044,0.455,0.291,0.388,0.214
			C44.106,30.885,43.859,30.883,43.898,30.876z"/>
		<path fill="#979AA1" d="M36.374,23.594c0,0,0.55-1.273,2.018-0.642c0.253,0.109,1.338-0.112,0.683-0.864
			C38.771,21.738,36.934,21.044,36.374,23.594z M38.428,22.047c0.08,0.064-0.452-0.219-1.005,0.173
			C37.215,22.367,37.861,21.585,38.428,22.047z"/>
		<path fill="#979AA1" d="M47.742,26.949c0,0.003,0.002-0.003,0.005-0.008c0.045-0.077,0.113-0.273-0.201-0.434L47.53,26.67
			C47.53,26.67,47.768,26.686,47.742,26.949z"/>
		<path fill="#979AA1" d="M46.091,27.535c0,0,0.104-0.773,0.995-0.655c0.153,0.021,0.707-0.265,0.238-0.572
			C47.105,26.165,46.006,26.069,46.091,27.535z M46.968,26.384c0.053,0.023-0.278-0.05-0.518,0.247
			C46.359,26.743,46.59,26.22,46.968,26.384z"/>
		<path fill="#979AA1" d="M46.326,31.938c0,0,1.017,0.166,0.664,0.746c-0.353,0.581-1.12,1.203-1.535,0.851
			c0,0-0.684-0.602-0.27-1.597C45.601,30.942,46.306,31.669,46.326,31.938z"/>
		<path fill="#979AA1" d="M46.65,31.859h-0.251c0,0,0.205-0.697-0.184-0.722c-0.388-0.024-0.135,0.249-0.135,0.249
			S45.6,31.113,46,30.889C46.399,30.664,46.765,31.287,46.65,31.859z"/>
		<path fill="#979AA1" d="M41.787,25.134c0,0,0.776,0.126,0.507,0.571c-0.27,0.443-0.854,0.918-1.173,0.649
			c0,0-0.522-0.459-0.206-1.22C41.232,24.374,41.771,24.928,41.787,25.134z"/>
		<path fill="#979AA1" d="M42.035,25.074h-0.192c0,0,0.157-0.533-0.14-0.551c-0.297-0.02-0.104,0.19-0.104,0.19
			s-0.367-0.209-0.062-0.38C41.843,24.161,42.122,24.636,42.035,25.074z"/>
		<path fill="#979AA1" d="M48.74,27.25c0,0,0.823-0.798,0.659-1.867c-0.086-0.566,0.472-1.645,0.737-0.297
			c0.028,0.142,0.109,2.301-1.205,2.408C48.854,27.501,48.633,27.432,48.74,27.25z"/>
		<path fill="#979AA1" d="M39.93,24.807c0,0-0.654,0.249-0.821,0.889c-0.087,0.339-0.661,0.81-0.484-0.011
			c0.019-0.087,0.493-1.318,1.257-1.061C39.926,24.639,40.033,24.731,39.93,24.807z"/>
		<g>
			<path fill="#979AA1" d="M39.583,21.748L39.583,21.748c0.012,1.143,0.946,2.06,2.09,2.048c1.142-0.012,2.059-0.948,2.047-2.09v0
				L39.583,21.748z"/>
			<path fill="#979AA1" d="M39.786,21.746C39.787,21.746,39.786,21.746,39.786,21.746c0.011,1.03,0.854,1.856,1.885,1.846
				c1.029-0.01,1.855-0.854,1.845-1.883c0,0,0,0,0-0.001L39.786,21.746z"/>
			<path fill="#979AA1" d="M39.956,21.744C39.956,21.744,39.956,21.744,39.956,21.744c0.01,0.937,0.776,1.688,1.713,1.678
				c0.936-0.009,1.687-0.776,1.677-1.712v-0.001L39.956,21.744z"/>
			<path fill="#979AA1" d="M40.861,21.828c0,0,0.018-0.014,0.044-0.024c0.026-0.012,0.062-0.019,0.096-0.02
				c0.035,0,0.071,0.006,0.097,0.017c0.027,0.01,0.045,0.023,0.045,0.023s-0.018,0.014-0.044,0.024
				c-0.026,0.012-0.061,0.019-0.097,0.019c-0.034,0-0.069-0.006-0.097-0.017C40.879,21.842,40.861,21.828,40.861,21.828z"/>
			<path fill="#979AA1" d="M40.456,22.097c0,0,0.018-0.014,0.045-0.024c0.025-0.011,0.061-0.019,0.096-0.019
				c0.035,0,0.07,0.006,0.097,0.016s0.045,0.024,0.045,0.024s-0.019,0.014-0.045,0.024c-0.025,0.011-0.062,0.018-0.096,0.019
				c-0.035,0-0.07-0.006-0.097-0.017C40.474,22.11,40.456,22.097,40.456,22.097z"/>
			<path fill="#979AA1" d="M40.077,21.878c0,0,0.018-0.014,0.043-0.024c0.026-0.012,0.062-0.019,0.097-0.02
				c0.035,0,0.07,0.006,0.097,0.018c0.026,0.009,0.044,0.023,0.044,0.023s-0.018,0.014-0.043,0.025
				c-0.026,0.011-0.062,0.018-0.097,0.019c-0.035,0-0.07-0.006-0.097-0.017C40.095,21.892,40.077,21.878,40.077,21.878z"/>
			<path fill="#979AA1" d="M41.042,22.186c0,0,0.01-0.021,0.028-0.042c0.018-0.021,0.046-0.044,0.077-0.06s0.065-0.027,0.094-0.029
				c0.028-0.003,0.051,0.001,0.051,0.001s-0.01,0.021-0.028,0.042c-0.018,0.022-0.047,0.044-0.077,0.06
				c-0.031,0.017-0.065,0.026-0.094,0.029C41.064,22.189,41.042,22.186,41.042,22.186z"/>
			<path fill="#979AA1" d="M40.803,22.608c0,0,0.009-0.021,0.027-0.042s0.047-0.044,0.078-0.06s0.065-0.027,0.094-0.028
				c0.027-0.004,0.05,0,0.05,0s-0.009,0.021-0.027,0.042c-0.019,0.022-0.047,0.044-0.078,0.06s-0.065,0.027-0.094,0.029
				C40.825,22.612,40.803,22.608,40.803,22.608z"/>
			<path fill="#979AA1" d="M40.365,22.585c0,0,0.01-0.021,0.027-0.042c0.019-0.021,0.047-0.044,0.077-0.06
				c0.031-0.016,0.066-0.027,0.094-0.029c0.029-0.003,0.051,0.001,0.051,0.001s-0.01,0.021-0.028,0.042
				c-0.018,0.022-0.046,0.044-0.077,0.06s-0.065,0.026-0.094,0.029C40.387,22.589,40.365,22.585,40.365,22.585z"/>
			<path fill="#979AA1" d="M41.042,22.186c0,0,0.01-0.021,0.028-0.042c0.018-0.021,0.046-0.044,0.077-0.06s0.065-0.027,0.094-0.029
				c0.028-0.003,0.051,0.001,0.051,0.001s-0.01,0.021-0.028,0.042c-0.018,0.022-0.047,0.044-0.077,0.06
				c-0.031,0.017-0.065,0.026-0.094,0.029C41.064,22.189,41.042,22.186,41.042,22.186z"/>
			<path fill="#979AA1" d="M40.824,23.044c0,0,0.005-0.022,0.018-0.047c0.014-0.025,0.036-0.053,0.062-0.076
				s0.058-0.041,0.085-0.049c0.026-0.009,0.049-0.01,0.049-0.01s-0.004,0.022-0.018,0.047c-0.013,0.025-0.035,0.053-0.062,0.076
				c-0.026,0.023-0.058,0.04-0.084,0.049C40.847,23.044,40.824,23.044,40.824,23.044z"/>
			<path fill="#979AA1" d="M40.814,22.627c0,0,0.006-0.021,0.021-0.045c0.015-0.025,0.038-0.051,0.066-0.072
				c0.028-0.021,0.061-0.037,0.088-0.043c0.027-0.008,0.05-0.007,0.05-0.007s-0.005,0.021-0.021,0.045
				c-0.014,0.024-0.038,0.051-0.066,0.072c-0.028,0.021-0.061,0.036-0.088,0.043C40.837,22.627,40.814,22.627,40.814,22.627z"/>
			<path fill="#979AA1" d="M40.365,22.585c0,0,0.01-0.021,0.027-0.042c0.019-0.021,0.047-0.044,0.077-0.06
				c0.031-0.016,0.066-0.027,0.094-0.029c0.029-0.003,0.051,0.001,0.051,0.001s-0.01,0.021-0.028,0.042
				c-0.018,0.022-0.046,0.044-0.077,0.06s-0.065,0.026-0.094,0.029C40.387,22.589,40.365,22.585,40.365,22.585z"/>
			<path fill="#979AA1" d="M41.422,22.391c0,0,0-0.022,0.008-0.049c0.006-0.028,0.022-0.06,0.043-0.088s0.048-0.053,0.072-0.067
				c0.023-0.015,0.046-0.021,0.046-0.021s0,0.023-0.008,0.05c-0.007,0.028-0.022,0.06-0.044,0.088
				c-0.021,0.028-0.047,0.052-0.071,0.066C41.444,22.385,41.422,22.391,41.422,22.391z"/>
			<path fill="#979AA1" d="M41.268,23.173c0,0-0.008-0.021-0.01-0.049c-0.003-0.028,0.002-0.063,0.012-0.097
				c0.011-0.034,0.027-0.065,0.047-0.087c0.017-0.022,0.035-0.035,0.035-0.035s0.009,0.021,0.011,0.049
				c0.002,0.029-0.002,0.064-0.013,0.098s-0.027,0.065-0.046,0.087C41.286,23.161,41.268,23.173,41.268,23.173z"/>
			<path fill="#979AA1" d="M42.442,21.812c0,0-0.018-0.014-0.044-0.023c-0.026-0.011-0.062-0.017-0.097-0.017
				c-0.035,0-0.07,0.007-0.097,0.019c-0.025,0.01-0.043,0.025-0.043,0.025s0.018,0.014,0.044,0.023
				c0.026,0.011,0.062,0.017,0.097,0.017s0.07-0.007,0.097-0.019C42.425,21.827,42.442,21.812,42.442,21.812z"/>
			<path fill="#979AA1" d="M42.854,22.072c0,0-0.019-0.014-0.045-0.023c-0.025-0.011-0.062-0.018-0.097-0.017
				c-0.034,0-0.07,0.007-0.096,0.019c-0.026,0.01-0.044,0.024-0.044,0.024s0.018,0.015,0.044,0.024
				c0.026,0.011,0.062,0.017,0.097,0.017s0.07-0.007,0.097-0.019C42.836,22.086,42.854,22.072,42.854,22.072z"/>
			<path fill="#979AA1" d="M43.229,21.846c0,0-0.018-0.014-0.045-0.023c-0.025-0.011-0.061-0.017-0.097-0.017
				c-0.034,0.001-0.07,0.008-0.096,0.019c-0.026,0.01-0.044,0.024-0.044,0.024s0.018,0.014,0.044,0.024
				c0.027,0.01,0.062,0.017,0.098,0.017c0.034,0,0.069-0.007,0.096-0.019C43.211,21.86,43.229,21.846,43.229,21.846z"/>
			<path fill="#979AA1" d="M42.27,22.172c0,0-0.01-0.02-0.029-0.041c-0.019-0.021-0.047-0.043-0.078-0.059
				c-0.032-0.016-0.066-0.026-0.095-0.027c-0.028-0.003-0.05,0.002-0.05,0.002s0.01,0.021,0.028,0.041
				c0.019,0.021,0.048,0.042,0.079,0.058s0.066,0.025,0.095,0.027C42.248,22.177,42.27,22.172,42.27,22.172z"/>
			<path fill="#979AA1" d="M42.518,22.59c0,0-0.01-0.021-0.029-0.041c-0.019-0.021-0.046-0.043-0.078-0.058
				c-0.031-0.017-0.066-0.026-0.095-0.027c-0.028-0.003-0.05,0.001-0.05,0.001s0.009,0.021,0.028,0.041
				c0.019,0.022,0.048,0.043,0.079,0.059c0.031,0.015,0.065,0.025,0.095,0.027C42.495,22.595,42.518,22.59,42.518,22.59z"/>
			<path fill="#979AA1" d="M42.954,22.558c0,0-0.009-0.02-0.028-0.041c-0.019-0.021-0.047-0.043-0.079-0.059
				c-0.031-0.015-0.065-0.025-0.094-0.027c-0.027-0.002-0.05,0.002-0.05,0.002s0.009,0.021,0.028,0.041
				c0.019,0.022,0.047,0.043,0.079,0.059c0.031,0.016,0.065,0.025,0.094,0.027C42.933,22.563,42.954,22.558,42.954,22.558z"/>
			<path fill="#979AA1" d="M42.27,22.172c0,0-0.01-0.02-0.029-0.041c-0.019-0.021-0.047-0.043-0.078-0.059
				c-0.032-0.016-0.066-0.026-0.095-0.027c-0.028-0.003-0.05,0.002-0.05,0.002s0.01,0.021,0.028,0.041
				c0.019,0.021,0.048,0.042,0.079,0.058s0.066,0.025,0.095,0.027C42.248,22.177,42.27,22.172,42.27,22.172z"/>
			<path fill="#979AA1" d="M41.751,21.966c0,0-0.009-0.021-0.028-0.041c-0.019-0.022-0.047-0.043-0.078-0.059
				c-0.031-0.016-0.066-0.025-0.095-0.027c-0.028-0.002-0.05,0.002-0.05,0.002s0.009,0.021,0.028,0.041
				c0.019,0.022,0.047,0.043,0.079,0.059c0.031,0.015,0.065,0.025,0.094,0.027C41.729,21.971,41.751,21.966,41.751,21.966z"/>
			<path fill="#979AA1" d="M42.505,23.027c0,0-0.005-0.021-0.02-0.046c-0.013-0.025-0.036-0.053-0.063-0.075
				s-0.059-0.039-0.086-0.047c-0.026-0.009-0.049-0.009-0.049-0.009s0.005,0.022,0.019,0.046c0.014,0.025,0.037,0.053,0.063,0.075
				c0.027,0.022,0.06,0.04,0.087,0.047C42.482,23.027,42.505,23.027,42.505,23.027z"/>
			<path fill="#979AA1" d="M42.506,22.609c0,0-0.006-0.021-0.021-0.044c-0.015-0.025-0.04-0.05-0.068-0.071
				s-0.062-0.036-0.089-0.042c-0.027-0.008-0.05-0.006-0.05-0.006s0.006,0.021,0.021,0.045s0.04,0.049,0.068,0.07
				c0.029,0.021,0.062,0.036,0.089,0.042C42.483,22.611,42.506,22.609,42.506,22.609z"/>
			<path fill="#979AA1" d="M42.954,22.558c0,0-0.009-0.02-0.028-0.041c-0.019-0.021-0.047-0.043-0.079-0.059
				c-0.031-0.015-0.065-0.025-0.094-0.027c-0.027-0.002-0.05,0.002-0.05,0.002s0.009,0.021,0.028,0.041
				c0.019,0.022,0.047,0.043,0.079,0.059c0.031,0.016,0.065,0.025,0.094,0.027C42.933,22.563,42.954,22.558,42.954,22.558z"/>
			<path fill="#979AA1" d="M41.894,22.386c0,0,0-0.023-0.008-0.05c-0.008-0.027-0.023-0.06-0.046-0.087
				c-0.021-0.028-0.048-0.052-0.073-0.066c-0.023-0.014-0.046-0.02-0.046-0.02s0,0.023,0.008,0.05
				c0.008,0.027,0.024,0.06,0.046,0.087s0.048,0.052,0.073,0.065C41.872,22.38,41.894,22.386,41.894,22.386z"/>
			<path fill="#979AA1" d="M41.732,22.879c0,0,0.008-0.021,0.009-0.049c0.002-0.029-0.003-0.064-0.014-0.097
				c-0.012-0.033-0.029-0.064-0.048-0.086c-0.019-0.022-0.037-0.034-0.037-0.034s-0.008,0.021-0.009,0.049
				c-0.002,0.029,0.003,0.064,0.015,0.098c0.011,0.033,0.028,0.064,0.048,0.085C41.714,22.867,41.732,22.879,41.732,22.879z"/>
			<path fill="#979AA1" d="M42.064,23.165c0,0,0.008-0.021,0.009-0.049c0.002-0.029-0.003-0.064-0.014-0.097
				c-0.012-0.034-0.029-0.065-0.049-0.086c-0.018-0.022-0.036-0.034-0.036-0.034s-0.008,0.021-0.009,0.049
				c-0.002,0.028,0.003,0.064,0.014,0.097c0.012,0.033,0.029,0.064,0.048,0.086C42.046,23.153,42.064,23.165,42.064,23.165z"/>
			<path fill="#979AA1" d="M41.698,23.31c0,0,0.013-0.019,0.021-0.045c0.01-0.027,0.015-0.062,0.014-0.097
				c-0.001-0.036-0.01-0.07-0.021-0.096c-0.011-0.026-0.025-0.043-0.025-0.043s-0.014,0.018-0.022,0.044
				c-0.01,0.027-0.016,0.062-0.014,0.097c0.002,0.036,0.01,0.07,0.021,0.096C41.683,23.292,41.698,23.31,41.698,23.31z"/>
		</g>
		<g>
			<circle fill="#979AA1" cx="42.799" cy="32.352" r="0.32"/>
			<circle fill="#979AA1" cx="43.765" cy="32.681" r="0.32"/>
			<circle fill="#979AA1" cx="42.967" cy="32.623" r="0.32"/>
			<circle fill="#979AA1" cx="43.467" cy="32.793" r="0.32"/>
			<circle fill="#979AA1" cx="43.085" cy="32.275" r="0.32"/>
			<circle fill="#979AA1" cx="43.585" cy="32.445" r="0.32"/>
			<circle fill="#979AA1" cx="43.403" cy="32.162" r="0.32"/>
		</g>
		<path fill="#979AA1" d="M42.855,33.423c0.062,0.062,0.122,0.126,0.179,0.192l0.09-0.336l0.365-0.201l-0.078-0.096l-0.242,0.135
			l0.082-0.309l-0.123-0.042l-0.123,0.295l-0.109-0.255l-0.12,0.028l0.165,0.383L42.855,33.423z"/>
		<g>
			<g>
				<path fill="#979AA1" d="M39.16,29.868c0,0-0.384,0.41-0.802-0.005c-0.419-0.415,0.279-1.173,0.279-1.173s0.998-1.183,1.825-0.55
					c0,0,0.087,0.296-0.404,0.493s-0.612,0.555-0.612,0.555s-0.063,0.162-0.104,0.325C39.292,29.709,39.16,29.868,39.16,29.868z"/>
				<path fill="#979AA1" d="M40.47,28.201c0,0,0.052,0.22-0.203,0.379c0,0-0.07,0.091-0.007-0.246c0,0-0.244-0.005-0.252-0.055
					c-0.007-0.05,0.214-0.181,0.214-0.181s-0.226-0.139-0.214-0.187c0.01-0.048,0.392,0.063,0.455,0.229L40.47,28.201z"/>
				<g>
					<path fill="#979AA1" d="M40.422,28.125l0.012,0.08c0.104-0.014,0.164,0.101,0.166,0.105l0.073-0.035
						C40.669,28.268,40.586,28.103,40.422,28.125z"/>
				</g>
			</g>
			<path fill="#979AA1" d="M38.859,29.625c-0.165,0.129-0.299,0.204-0.242,0.276c0.058,0.073,0.252,0.044,0.417-0.084
				c0.165-0.13,0.235-0.317,0.177-0.39C39.154,29.354,39.024,29.495,38.859,29.625z"/>
		</g>
		<g>
			<g>
				<path fill="#979AA1" d="M45.857,22.778c0,0-0.29,0.157-0.445-0.152s0.375-0.601,0.375-0.601s0.776-0.472,1.118,0.035
					c0,0-0.007,0.181-0.316,0.199c-0.311,0.018-0.445,0.194-0.445,0.194s-0.065,0.078-0.118,0.162
					C45.96,22.715,45.857,22.778,45.857,22.778z"/>
				<path fill="#979AA1" d="M46.897,22.096c0,0-0.013,0.131-0.184,0.172c0,0-0.057,0.037,0.042-0.138c0,0-0.135-0.049-0.129-0.078
					c0.005-0.029,0.152-0.061,0.152-0.061s-0.1-0.119-0.085-0.144c0.016-0.024,0.207,0.108,0.211,0.212L46.897,22.096z"/>
				<g>
					<path fill="#979AA1" d="M46.886,22.044l-0.01,0.047c0.062,0.011,0.073,0.086,0.073,0.089l0.048-0.006
						C46.996,22.17,46.98,22.063,46.886,22.044z"/>
				</g>
			</g>
			<path fill="#979AA1" d="M45.735,22.587c-0.116,0.041-0.204,0.058-0.187,0.108c0.019,0.052,0.132,0.072,0.248,0.031
				c0.116-0.041,0.189-0.132,0.171-0.184C45.95,22.492,45.852,22.545,45.735,22.587z"/>
		</g>
		<g>
			<path fill="#979AA1" d="M50.125,29.924c0.231,0.5-0.01,1.222-0.595,1.493c-0.585,0.271-1.292-0.013-1.522-0.512
				c-0.231-0.5,0.1-1.026,0.685-1.297C49.277,29.337,49.894,29.424,50.125,29.924z"/>
			<path fill="#979AA1" d="M48.665,30.568c0.066,0.245,0.03,0.47-0.127,0.513c-0.158,0.042-0.378-0.112-0.444-0.357
				c-0.067-0.246,0.058-0.493,0.215-0.537C48.467,30.144,48.599,30.322,48.665,30.568z"/>
			<path fill="#979AA1" d="M48.979,29.58c0.186-0.145,0.49-0.141,0.49-0.141c-0.34-0.131-0.776,0.168-0.776,0.168
				s-0.002,0-0.006,0.001c-0.039-0.055-0.124-0.146-0.292-0.227l-0.016,0.048c0,0,0.213,0.083,0.304,0.181
				c-0.071,0.021-0.511,0.165-0.62,0.481c0,0,0.193-0.234,0.424-0.282c0,0-0.299,0.279-0.231,0.551c0,0,0.211-0.387,0.396-0.528
				c0,0,0.26,0.468,0.47,0.457c0,0-0.361-0.553-0.23-0.567c0.231-0.026,0.658,0.039,0.658,0.039
				C49.385,29.532,48.979,29.58,48.979,29.58z"/>
		</g>
		<g>
			<path fill="#979AA1" d="M46.052,23.725c0.104,0.222-0.004,0.542-0.264,0.663c-0.26,0.121-0.574-0.005-0.677-0.228
				c-0.102-0.222,0.045-0.455,0.305-0.576C45.676,23.464,45.949,23.503,46.052,23.725z"/>
			<path fill="#979AA1" d="M45.403,24.011c0.03,0.109,0.014,0.208-0.056,0.228c-0.07,0.019-0.168-0.05-0.198-0.159
				c-0.029-0.109,0.025-0.219,0.096-0.238C45.315,23.822,45.374,23.902,45.403,24.011z"/>
			<path fill="#979AA1" d="M45.543,23.572c0.082-0.064,0.218-0.063,0.218-0.063c-0.151-0.058-0.346,0.075-0.346,0.075s0,0-0.002,0
				c-0.017-0.024-0.055-0.065-0.129-0.101l-0.007,0.021c0,0,0.094,0.038,0.135,0.081c-0.032,0.009-0.227,0.073-0.276,0.213
				c0,0,0.087-0.104,0.188-0.125c0,0-0.133,0.125-0.103,0.245c0,0,0.093-0.172,0.176-0.234c0,0,0.115,0.208,0.209,0.202
				c0,0-0.16-0.245-0.103-0.252c0.103-0.011,0.292,0.018,0.292,0.018C45.724,23.551,45.543,23.572,45.543,23.572z"/>
		</g>
		<g>
			<path fill="#979AA1" d="M38.428,26.234c0.15,0.325-0.007,0.794-0.387,0.971c-0.381,0.176-0.84-0.008-0.99-0.333
				c-0.15-0.325,0.065-0.667,0.445-0.843C37.877,25.852,38.277,25.909,38.428,26.234z"/>
			<path fill="#979AA1" d="M37.479,26.652c0.043,0.161,0.02,0.306-0.082,0.333c-0.104,0.028-0.246-0.072-0.29-0.232
				c-0.043-0.16,0.037-0.321,0.141-0.349C37.35,26.377,37.436,26.493,37.479,26.652z"/>
			<path fill="#979AA1" d="M37.683,26.01c0.12-0.094,0.318-0.091,0.318-0.091c-0.222-0.085-0.505,0.109-0.505,0.109
				s-0.001,0-0.004,0.001c-0.025-0.036-0.081-0.096-0.19-0.147l-0.01,0.031c0,0,0.138,0.055,0.198,0.117
				c-0.047,0.014-0.333,0.108-0.403,0.313c0,0,0.125-0.152,0.275-0.184c0,0-0.194,0.182-0.15,0.358c0,0,0.137-0.251,0.258-0.343
				c0,0,0.169,0.304,0.305,0.297c0,0-0.234-0.36-0.149-0.369c0.15-0.017,0.428,0.025,0.428,0.025
				C37.947,25.979,37.683,26.01,37.683,26.01z"/>
		</g>
		<g>
			<path fill="#979AA1" d="M47.594,29.879c0.036-0.225-0.117-0.437-0.342-0.473c-0.226-0.036-0.438,0.117-0.474,0.342
				c-0.034,0.213,0.103,0.415,0.31,0.465c0.013,0.043,0.006,0.086-0.037,0.116c0,0,0.307-0.102,0.392-0.193l0,0
				C47.521,30.075,47.576,29.984,47.594,29.879z"/>
			<path fill="#979AA1" d="M47.104,29.685c-0.042,0.075-0.104,0.119-0.15,0.092c-0.048-0.026-0.064-0.115-0.022-0.189
				c0.042-0.074,0.13-0.104,0.178-0.077C47.157,29.538,47.146,29.611,47.104,29.685z"/>
			<path fill="#979AA1" d="M47.473,29.171c0.281-0.056,0.182-0.142,0.182-0.142c0.152-0.076,0.045-0.247,0.029-0.269l0.001,0
				c0,0-0.001,0-0.002,0c0-0.001-0.001-0.001-0.001-0.001l-0.001,0c-0.025-0.009-0.217-0.073-0.254,0.093
				c0,0-0.107-0.076-0.094,0.211c0,0-0.072-0.046-0.076,0.08c0,0-0.056-0.047-0.045,0.219c0.261-0.055,0.201-0.097,0.201-0.097
				C47.535,29.231,47.473,29.171,47.473,29.171z"/>
			<path fill="#979AA1" d="M47.024,29.099c-0.25-0.141-0.128-0.191-0.128-0.191c-0.121-0.121,0.034-0.249,0.056-0.265v-0.001
				c0,0,0.001,0,0.002,0c0.001,0,0.002-0.001,0.002-0.001v0.001c0.027-0.001,0.229-0.001,0.211,0.168c0,0,0.127-0.038,0.023,0.23
				c0,0,0.083-0.021,0.047,0.1c0,0,0.068-0.027-0.025,0.223c-0.23-0.134-0.16-0.155-0.16-0.155
				C46.945,29.136,47.024,29.099,47.024,29.099z"/>
			<path fill="#979AA1" d="M47.348,29.069c0.22-0.184,0.091-0.211,0.091-0.211c0.098-0.141-0.08-0.237-0.104-0.25v0h-0.001
				c-0.001,0-0.002,0-0.002,0v0.001c-0.027,0.004-0.226,0.041-0.178,0.205c0,0-0.131-0.015,0.02,0.229c0,0-0.086-0.005-0.027,0.107
				c0,0-0.072-0.015,0.065,0.214c0.202-0.174,0.13-0.182,0.13-0.182C47.431,29.091,47.348,29.069,47.348,29.069z"/>
		</g>
		<g>
			<path fill="#979AA1" d="M40.733,24.13c-0.079-0.169-0.28-0.242-0.45-0.163c-0.17,0.079-0.243,0.281-0.163,0.45
				c0.075,0.162,0.261,0.235,0.425,0.174c0.028,0.024,0.044,0.056,0.028,0.096c0,0,0.161-0.211,0.177-0.312l0,0
				C40.774,24.297,40.771,24.21,40.733,24.13z"/>
			<path fill="#979AA1" d="M40.312,24.225c0.006,0.069-0.016,0.128-0.061,0.132c-0.045,0.003-0.096-0.049-0.103-0.119
				c-0.005-0.07,0.041-0.13,0.085-0.134C40.279,24.101,40.307,24.155,40.312,24.225z"/>
			<path fill="#979AA1" d="M40.325,23.706c0.166-0.167,0.059-0.18,0.059-0.18c0.068-0.122-0.084-0.188-0.104-0.196v-0.001
				c0,0-0.001,0-0.002,0l-0.001,0v0c-0.021,0.006-0.182,0.051-0.13,0.182c0,0-0.108-0.002,0.034,0.186c0,0-0.07,0.002-0.015,0.09
				c0,0-0.06-0.007,0.07,0.169c0.151-0.158,0.092-0.159,0.092-0.159C40.395,23.718,40.325,23.706,40.325,23.706z"/>
			<path fill="#979AA1" d="M39.987,23.864c-0.235,0.019-0.176-0.072-0.176-0.072c-0.138-0.026-0.091-0.185-0.084-0.206v0
				c0,0,0,0,0.001,0c0-0.001,0.001-0.001,0.001-0.001v0c0.019-0.014,0.155-0.107,0.222,0.016c0,0,0.068-0.083,0.121,0.146
				c0,0,0.048-0.053,0.079,0.047c0,0,0.033-0.05,0.085,0.163c-0.219,0.016-0.181-0.032-0.181-0.032
				C39.951,23.925,39.987,23.864,39.987,23.864z"/>
			<path fill="#979AA1" d="M40.193,23.694c0.064-0.227-0.036-0.186-0.036-0.186c0.001-0.141-0.164-0.125-0.187-0.122v-0.001
				c0,0,0,0.001-0.001,0.001c-0.001,0-0.001,0-0.001,0v0c-0.017,0.016-0.135,0.132-0.026,0.221c0,0-0.096,0.051,0.119,0.147
				c0,0-0.061,0.037,0.031,0.086c0,0-0.056,0.023,0.143,0.115c0.058-0.211,0.004-0.183,0.004-0.183
				C40.26,23.671,40.193,23.694,40.193,23.694z"/>
		</g>
		<g>
			<g>
				<path fill="#979AA1" d="M40.218,29.74c-0.05,0.037-0.089,0.098-0.123,0.171c-0.016-0.065-0.033-0.133,0-0.206
					c-0.071-0.042-0.129-0.087-0.194-0.146c0.104-0.031,0.117-0.124,0.058-0.229c0.032,0.014,0.062,0.033,0.095,0.047"/>
			</g>
			<path fill="#979AA1" d="M40.229,28.976c0.278-0.123,0.811-0.064,0.899,0.136c0.087,0.196-0.225,0.633-0.503,0.756
				s-0.396-0.064-0.505-0.311C40.013,29.311,39.951,29.099,40.229,28.976z"/>
			<g>
				<path fill="#979AA1" d="M40.515,29.765c0,0-0.004,0.008-0.011,0.016s-0.018,0.016-0.029,0.021
					c-0.012,0.005-0.025,0.008-0.035,0.007c-0.011,0-0.019-0.002-0.019-0.002s0.003-0.008,0.01-0.015
					c0.008-0.008,0.019-0.016,0.03-0.021c0.012-0.005,0.024-0.008,0.035-0.007C40.507,29.762,40.515,29.765,40.515,29.765z"/>
				<path fill="#979AA1" d="M40.367,29.622c0,0-0.004,0.008-0.012,0.016c-0.007,0.008-0.017,0.016-0.029,0.021
					c-0.012,0.005-0.024,0.008-0.035,0.008s-0.019-0.002-0.019-0.002s0.004-0.008,0.011-0.016c0.008-0.007,0.018-0.016,0.029-0.021
					c0.013-0.005,0.025-0.008,0.036-0.008S40.367,29.622,40.367,29.622z"/>
				<path fill="#979AA1" d="M40.599,29.581c0,0-0.004,0.008-0.011,0.016c-0.007,0.008-0.018,0.016-0.029,0.021
					c-0.012,0.006-0.025,0.008-0.036,0.008c-0.01,0-0.019-0.002-0.019-0.002s0.004-0.008,0.012-0.016
					c0.007-0.008,0.018-0.016,0.029-0.021s0.024-0.008,0.035-0.008S40.599,29.581,40.599,29.581z"/>
				<path fill="#979AA1" d="M40.391,29.447c0,0-0.004,0.007-0.011,0.015c-0.007,0.008-0.018,0.017-0.029,0.021
					c-0.012,0.005-0.025,0.008-0.036,0.008c-0.01,0-0.019-0.002-0.019-0.002s0.004-0.008,0.011-0.016
					c0.008-0.008,0.019-0.015,0.03-0.021c0.012-0.005,0.024-0.007,0.035-0.007S40.391,29.447,40.391,29.447z"/>
				<path fill="#979AA1" d="M40.316,29.07c0,0-0.004,0.007-0.011,0.016c-0.007,0.008-0.018,0.016-0.029,0.021
					c-0.012,0.005-0.024,0.008-0.035,0.008s-0.019-0.002-0.019-0.002s0.004-0.007,0.01-0.016c0.008-0.008,0.019-0.015,0.03-0.021
					s0.024-0.008,0.035-0.008S40.316,29.07,40.316,29.07z"/>
				<path fill="#979AA1" d="M40.243,29.304c0,0-0.004,0.008-0.012,0.016c-0.007,0.008-0.018,0.016-0.029,0.021
					c-0.012,0.005-0.024,0.008-0.035,0.007c-0.011,0.001-0.019-0.001-0.019-0.001s0.003-0.008,0.011-0.016
					c0.007-0.008,0.018-0.016,0.029-0.021c0.012-0.005,0.025-0.008,0.036-0.008C40.234,29.301,40.243,29.304,40.243,29.304z"/>
				<path fill="#979AA1" d="M40.475,29.263c0,0-0.004,0.007-0.012,0.016c-0.007,0.008-0.017,0.016-0.028,0.021
					c-0.013,0.005-0.025,0.008-0.036,0.008c-0.011,0-0.019-0.003-0.019-0.003s0.003-0.007,0.011-0.015
					c0.008-0.008,0.018-0.016,0.03-0.021c0.012-0.005,0.024-0.008,0.035-0.008S40.475,29.263,40.475,29.263z"/>
				<path fill="#979AA1" d="M40.632,29.351c0,0-0.004,0.007-0.011,0.015c-0.008,0.008-0.018,0.016-0.03,0.021
					c-0.012,0.006-0.024,0.008-0.035,0.008s-0.019-0.002-0.019-0.002s0.004-0.008,0.011-0.016c0.008-0.008,0.018-0.016,0.029-0.021
					c0.013-0.005,0.025-0.008,0.036-0.008C40.623,29.348,40.632,29.351,40.632,29.351z"/>
				<path fill="#979AA1" d="M40.802,29.429c0,0-0.003,0.008-0.011,0.016c-0.007,0.008-0.018,0.016-0.029,0.021
					c-0.012,0.005-0.024,0.008-0.036,0.007c-0.01,0.001-0.019-0.002-0.019-0.002s0.004-0.007,0.012-0.015
					c0.007-0.008,0.018-0.016,0.029-0.021c0.012-0.005,0.024-0.008,0.035-0.008C40.794,29.427,40.802,29.429,40.802,29.429z"/>
				<path fill="#979AA1" d="M41.017,29.349c0,0-0.004,0.007-0.011,0.016c-0.007,0.008-0.018,0.016-0.03,0.021
					c-0.011,0.005-0.024,0.007-0.035,0.007c-0.01,0-0.019-0.002-0.019-0.002s0.004-0.007,0.011-0.016
					c0.007-0.007,0.018-0.015,0.029-0.021c0.013-0.005,0.024-0.008,0.035-0.008S41.017,29.349,41.017,29.349z"/>
				<path fill="#979AA1" d="M40.825,29.255c0,0-0.004,0.007-0.011,0.015s-0.018,0.016-0.029,0.021
					c-0.012,0.006-0.024,0.008-0.035,0.008s-0.02-0.002-0.02-0.002s0.004-0.007,0.012-0.016c0.007-0.008,0.018-0.016,0.029-0.021
					c0.012-0.005,0.024-0.008,0.035-0.008S40.825,29.255,40.825,29.255z"/>
				<path fill="#979AA1" d="M41.069,29.147c0,0-0.004,0.007-0.011,0.015c-0.007,0.008-0.018,0.016-0.029,0.021
					s-0.025,0.008-0.035,0.008c-0.011,0-0.02-0.002-0.02-0.002s0.004-0.008,0.011-0.016c0.007-0.008,0.019-0.016,0.03-0.021
					c0.012-0.005,0.024-0.008,0.035-0.007C41.062,29.144,41.069,29.147,41.069,29.147z"/>
				<path fill="#979AA1" d="M40.678,29.112c0,0-0.004,0.007-0.011,0.015s-0.018,0.016-0.03,0.021
					c-0.012,0.005-0.024,0.008-0.034,0.008c-0.012,0-0.02-0.002-0.02-0.002s0.004-0.008,0.012-0.015
					c0.007-0.008,0.017-0.016,0.028-0.021c0.013-0.005,0.025-0.008,0.036-0.007C40.67,29.109,40.678,29.112,40.678,29.112z"/>
				<path fill="#979AA1" d="M40.796,29.625c0,0-0.004,0.007-0.012,0.016c-0.007,0.007-0.018,0.016-0.029,0.021
					c-0.012,0.005-0.024,0.008-0.035,0.008s-0.02-0.002-0.02-0.002s0.004-0.008,0.012-0.016c0.007-0.008,0.018-0.015,0.029-0.021
					c0.012-0.005,0.025-0.007,0.036-0.007C40.787,29.623,40.796,29.625,40.796,29.625z"/>
				<path fill="#979AA1" d="M40.52,29c0,0-0.004,0.007-0.012,0.016c-0.007,0.008-0.018,0.016-0.029,0.021
					c-0.012,0.005-0.024,0.008-0.036,0.008c-0.01,0-0.019-0.002-0.019-0.002s0.004-0.007,0.012-0.016
					c0.007-0.008,0.018-0.015,0.029-0.021s0.024-0.008,0.036-0.008C40.511,28.997,40.52,29,40.52,29z"/>
				<path fill="#979AA1" d="M40.909,29.07c0,0-0.004,0.008-0.011,0.016s-0.018,0.016-0.029,0.021
					c-0.012,0.005-0.025,0.008-0.036,0.007c-0.01,0.001-0.019-0.002-0.019-0.002s0.004-0.008,0.012-0.015
					c0.007-0.008,0.018-0.016,0.029-0.021c0.012-0.005,0.024-0.008,0.035-0.007C40.901,29.068,40.909,29.07,40.909,29.07z"/>
			</g>
		</g>
		<g>
			<g>
				<path fill="#979AA1" d="M41.294,29.848c-0.013,0.061-0.002,0.132,0.022,0.209c-0.056-0.039-0.114-0.076-0.138-0.153
					c-0.081,0.017-0.154,0.021-0.242,0.021c0.058-0.094,0.004-0.17-0.11-0.209c0.034-0.011,0.068-0.017,0.103-0.028"/>
			</g>
			<path fill="#979AA1" d="M40.792,29.27c0.125-0.277,0.562-0.588,0.761-0.499c0.195,0.088,0.255,0.622,0.13,0.899
				s-0.338,0.216-0.583,0.105C40.854,29.665,40.666,29.548,40.792,29.27z"/>
			<g>
				<path fill="#979AA1" d="M41.531,29.668c0,0,0.002,0.008,0.002,0.019c0,0.01-0.003,0.023-0.008,0.035
					c-0.006,0.012-0.013,0.022-0.021,0.029c-0.008,0.007-0.016,0.011-0.016,0.011s-0.002-0.008-0.002-0.019
					c0-0.01,0.003-0.023,0.008-0.035c0.006-0.012,0.013-0.023,0.021-0.03C41.523,29.671,41.531,29.668,41.531,29.668z"/>
				<path fill="#979AA1" d="M41.325,29.66c0,0,0.003,0.008,0.003,0.019c0,0.011-0.004,0.023-0.009,0.036
					c-0.005,0.012-0.013,0.022-0.021,0.029c-0.008,0.008-0.016,0.011-0.016,0.011s-0.003-0.008-0.003-0.019
					c0-0.011,0.003-0.023,0.009-0.035c0.005-0.012,0.013-0.022,0.021-0.03C41.318,29.664,41.325,29.66,41.325,29.66z"/>
				<path fill="#979AA1" d="M41.471,29.475c0,0,0.002,0.008,0.002,0.019s-0.003,0.023-0.008,0.036
					c-0.006,0.012-0.014,0.022-0.021,0.029c-0.008,0.008-0.016,0.011-0.016,0.011s-0.002-0.008-0.002-0.019
					c0-0.011,0.003-0.023,0.008-0.035c0.006-0.012,0.014-0.023,0.021-0.03S41.471,29.475,41.471,29.475z"/>
				<path fill="#979AA1" d="M41.227,29.514c0,0,0.003,0.009,0.002,0.019c0,0.011-0.003,0.024-0.008,0.036s-0.014,0.022-0.021,0.03
					c-0.008,0.007-0.016,0.01-0.016,0.01s-0.002-0.008-0.002-0.019c0-0.01,0.003-0.023,0.008-0.035
					c0.006-0.012,0.014-0.022,0.021-0.029C41.219,29.518,41.227,29.514,41.227,29.514z"/>
				<path fill="#979AA1" d="M40.92,29.283c0,0,0.002,0.008,0.002,0.019s-0.003,0.023-0.008,0.036
					c-0.006,0.012-0.013,0.022-0.021,0.029c-0.008,0.008-0.015,0.011-0.015,0.011s-0.003-0.008-0.003-0.019
					c0-0.011,0.003-0.024,0.008-0.036c0.006-0.012,0.014-0.022,0.021-0.029S40.92,29.283,40.92,29.283z"/>
				<path fill="#979AA1" d="M41.021,29.506c0,0,0.002,0.008,0.001,0.019c0,0.011-0.002,0.023-0.008,0.035
					c-0.005,0.012-0.013,0.023-0.021,0.03S40.979,29.6,40.979,29.6s-0.003-0.008-0.002-0.019c-0.001-0.011,0.002-0.024,0.008-0.036
					c0.005-0.012,0.013-0.022,0.021-0.029C41.013,29.509,41.021,29.506,41.021,29.506z"/>
				<path fill="#979AA1" d="M41.166,29.32c0,0,0.002,0.009,0.002,0.019c0,0.011-0.003,0.023-0.008,0.035
					c-0.006,0.012-0.013,0.022-0.021,0.03c-0.008,0.007-0.016,0.011-0.016,0.011s-0.002-0.008-0.002-0.019
					c0-0.011,0.003-0.024,0.008-0.036c0.006-0.012,0.014-0.022,0.021-0.029C41.158,29.324,41.166,29.32,41.166,29.32z"/>
				<path fill="#979AA1" d="M41.342,29.281c0,0,0.002,0.009,0.002,0.019c0,0.011-0.003,0.024-0.009,0.036
					c-0.005,0.012-0.013,0.023-0.021,0.03s-0.016,0.01-0.016,0.01s-0.003-0.008-0.002-0.019c0-0.01,0.002-0.023,0.008-0.035
					c0.005-0.012,0.014-0.022,0.021-0.029C41.333,29.285,41.342,29.281,41.342,29.281z"/>
				<path fill="#979AA1" d="M41.521,29.226c0,0,0.003,0.008,0.003,0.019c0,0.011-0.003,0.024-0.008,0.036
					c-0.006,0.012-0.014,0.022-0.021,0.029c-0.008,0.007-0.016,0.011-0.016,0.011s-0.002-0.008-0.002-0.019s0.003-0.023,0.008-0.035
					c0.006-0.012,0.013-0.023,0.021-0.03C41.514,29.23,41.521,29.226,41.521,29.226z"/>
				<path fill="#979AA1" d="M41.627,29.024c0,0,0.003,0.008,0.003,0.019c0,0.01-0.003,0.023-0.009,0.035
					c-0.005,0.012-0.014,0.023-0.021,0.03c-0.007,0.007-0.016,0.011-0.016,0.011s-0.002-0.008-0.002-0.019
					c0-0.01,0.003-0.023,0.009-0.035c0.005-0.012,0.013-0.022,0.021-0.029C41.619,29.027,41.627,29.024,41.627,29.024z"/>
				<path fill="#979AA1" d="M41.422,29.08c0,0,0.002,0.008,0.002,0.019c0,0.011-0.003,0.024-0.008,0.036s-0.013,0.022-0.021,0.029
					c-0.007,0.007-0.016,0.011-0.016,0.011s-0.002-0.008-0.001-0.019c-0.001-0.011,0.002-0.023,0.008-0.035
					c0.005-0.012,0.013-0.022,0.021-0.03C41.414,29.084,41.422,29.08,41.422,29.08z"/>
				<path fill="#979AA1" d="M41.531,28.837c0,0,0.003,0.008,0.003,0.019c0,0.011-0.003,0.023-0.009,0.036
					c-0.005,0.012-0.013,0.022-0.021,0.03c-0.008,0.007-0.016,0.01-0.016,0.01s-0.003-0.008-0.003-0.019
					c0-0.011,0.003-0.023,0.009-0.035c0.005-0.012,0.013-0.022,0.021-0.029C41.524,28.841,41.531,28.837,41.531,28.837z"/>
				<path fill="#979AA1" d="M41.217,29.073c0,0,0.002,0.008,0.002,0.019c0,0.011-0.003,0.023-0.009,0.035
					c-0.005,0.012-0.013,0.023-0.021,0.03s-0.016,0.011-0.016,0.011s-0.003-0.008-0.002-0.019c-0.001-0.011,0.003-0.023,0.008-0.036
					c0.005-0.012,0.014-0.022,0.021-0.029C41.209,29.076,41.217,29.073,41.217,29.073z"/>
				<path fill="#979AA1" d="M41.647,29.376c0,0,0.002,0.008,0.001,0.019c0,0.011-0.002,0.023-0.008,0.036
					c-0.005,0.012-0.013,0.022-0.021,0.029c-0.008,0.008-0.016,0.011-0.016,0.011s-0.003-0.009-0.002-0.019
					c-0.001-0.011,0.002-0.023,0.008-0.035c0.005-0.012,0.013-0.022,0.021-0.03C41.639,29.38,41.647,29.376,41.647,29.376z"/>
				<path fill="#979AA1" d="M41.023,29.095c0,0,0.003,0.008,0.002,0.019c0,0.011-0.003,0.023-0.008,0.035
					c-0.005,0.012-0.014,0.022-0.021,0.029c-0.008,0.007-0.016,0.011-0.016,0.011s-0.002-0.008-0.002-0.019
					c0-0.011,0.003-0.024,0.008-0.036c0.006-0.012,0.014-0.022,0.021-0.029C41.016,29.098,41.023,29.095,41.023,29.095z"/>
				<path fill="#979AA1" d="M41.361,28.887c0,0,0.003,0.009,0.003,0.019c0,0.011-0.004,0.023-0.009,0.035
					c-0.005,0.012-0.013,0.022-0.021,0.03c-0.009,0.007-0.016,0.011-0.016,0.011s-0.003-0.008-0.003-0.019s0.003-0.023,0.008-0.036
					c0.006-0.012,0.014-0.022,0.021-0.029C41.354,28.891,41.361,28.887,41.361,28.887z"/>
			</g>
		</g>
		<g>
			<g>
				<path fill="#979AA1" d="M48.762,27.836c0.013-0.061,0.001-0.132-0.022-0.209c0.056,0.039,0.113,0.076,0.138,0.153
					c0.08-0.017,0.153-0.021,0.242-0.021c-0.058,0.094-0.004,0.17,0.11,0.208c-0.034,0.011-0.068,0.018-0.103,0.029"/>
			</g>
			<path fill="#979AA1" d="M49.264,28.413c-0.125,0.278-0.562,0.589-0.761,0.499c-0.196-0.088-0.256-0.621-0.13-0.899
				c0.125-0.277,0.338-0.216,0.583-0.105C49.202,28.02,49.389,28.136,49.264,28.413z"/>
			<g>
				<path fill="#979AA1" d="M48.524,28.017c0,0-0.003-0.008-0.002-0.019c-0.001-0.01,0.003-0.023,0.008-0.035
					s0.014-0.022,0.021-0.029c0.008-0.007,0.016-0.011,0.016-0.011s0.002,0.009,0.002,0.019c0,0.011-0.003,0.024-0.009,0.036
					c-0.005,0.012-0.013,0.022-0.021,0.029C48.532,28.013,48.524,28.017,48.524,28.017z"/>
				<path fill="#979AA1" d="M48.73,28.024c0,0-0.003-0.009-0.003-0.019c0-0.011,0.003-0.023,0.008-0.035
					c0.006-0.012,0.014-0.022,0.021-0.03c0.008-0.007,0.016-0.01,0.016-0.01s0.003,0.008,0.002,0.019
					c0,0.01-0.002,0.023-0.008,0.035c-0.006,0.012-0.013,0.022-0.021,0.029C48.738,28.021,48.73,28.024,48.73,28.024z"/>
				<path fill="#979AA1" d="M48.585,28.209c0,0-0.002-0.008-0.002-0.019c0-0.011,0.002-0.023,0.008-0.036
					c0.005-0.012,0.013-0.022,0.021-0.029c0.007-0.008,0.016-0.011,0.016-0.011s0.002,0.008,0.001,0.019
					c0.001,0.011-0.002,0.023-0.008,0.035c-0.005,0.012-0.013,0.022-0.021,0.03C48.593,28.206,48.585,28.209,48.585,28.209z"/>
				<path fill="#979AA1" d="M48.829,28.17c0,0-0.002-0.008-0.002-0.019c0-0.011,0.003-0.023,0.008-0.036
					c0.006-0.011,0.013-0.022,0.021-0.029c0.007-0.007,0.015-0.01,0.015-0.01s0.003,0.008,0.003,0.019
					c0,0.01-0.003,0.023-0.008,0.035c-0.006,0.012-0.014,0.022-0.022,0.029C48.837,28.167,48.829,28.17,48.829,28.17z"/>
				<path fill="#979AA1" d="M49.136,28.401c0,0-0.003-0.008-0.003-0.019s0.003-0.023,0.008-0.036
					c0.006-0.012,0.014-0.022,0.021-0.029c0.008-0.008,0.016-0.011,0.016-0.011s0.003,0.009,0.003,0.019
					c0,0.011-0.004,0.023-0.009,0.035c-0.005,0.012-0.013,0.022-0.021,0.03C49.144,28.397,49.136,28.401,49.136,28.401z"/>
				<path fill="#979AA1" d="M49.034,28.178c0,0-0.002-0.008-0.002-0.019s0.003-0.023,0.008-0.035
					c0.006-0.012,0.014-0.022,0.021-0.029c0.008-0.007,0.016-0.011,0.016-0.011s0.003,0.008,0.003,0.019
					c0,0.011-0.004,0.024-0.009,0.036s-0.013,0.022-0.021,0.029C49.042,28.174,49.034,28.178,49.034,28.178z"/>
				<path fill="#979AA1" d="M48.89,28.363c0,0-0.003-0.008-0.003-0.019s0.004-0.023,0.009-0.035
					c0.005-0.011,0.013-0.022,0.021-0.029c0.008-0.007,0.015-0.011,0.015-0.011s0.003,0.008,0.003,0.019
					c0,0.011-0.003,0.024-0.009,0.036c-0.005,0.012-0.013,0.022-0.021,0.029C48.897,28.36,48.89,28.363,48.89,28.363z"/>
				<path fill="#979AA1" d="M48.715,28.403c0,0-0.003-0.008-0.003-0.019c0-0.01,0.003-0.023,0.008-0.035
					c0.006-0.012,0.014-0.023,0.021-0.03s0.016-0.01,0.016-0.01s0.002,0.008,0.002,0.019c0,0.01-0.003,0.023-0.008,0.035
					c-0.006,0.012-0.014,0.022-0.021,0.029C48.722,28.399,48.715,28.403,48.715,28.403z"/>
				<path fill="#979AA1" d="M48.534,28.458c0,0-0.002-0.008-0.002-0.02c0-0.01,0.003-0.023,0.008-0.035
					c0.006-0.012,0.014-0.022,0.021-0.03c0.008-0.007,0.015-0.011,0.015-0.011s0.004,0.008,0.003,0.019
					c0,0.01-0.003,0.023-0.008,0.035c-0.006,0.012-0.014,0.022-0.021,0.029C48.542,28.454,48.534,28.458,48.534,28.458z"/>
				<path fill="#979AA1" d="M48.428,28.66c0,0-0.002-0.008-0.002-0.019c0-0.01,0.003-0.023,0.009-0.035
					c0.005-0.012,0.013-0.022,0.021-0.029c0.008-0.007,0.016-0.011,0.016-0.011s0.003,0.008,0.002,0.019
					c0.001,0.01-0.002,0.023-0.008,0.035c-0.005,0.012-0.013,0.022-0.021,0.029C48.437,28.657,48.428,28.66,48.428,28.66z"/>
				<path fill="#979AA1" d="M48.634,28.604c0,0-0.003-0.009-0.003-0.02c0-0.01,0.004-0.023,0.009-0.035s0.013-0.022,0.021-0.03
					c0.008-0.007,0.016-0.011,0.016-0.011s0.003,0.008,0.003,0.019c0,0.01-0.003,0.023-0.009,0.035
					c-0.005,0.012-0.014,0.022-0.021,0.029C48.642,28.6,48.634,28.604,48.634,28.604z"/>
				<path fill="#979AA1" d="M48.523,28.846c0,0-0.002-0.008-0.002-0.018c0-0.011,0.003-0.023,0.008-0.036
					c0.006-0.011,0.014-0.022,0.021-0.029s0.016-0.01,0.016-0.01s0.003,0.008,0.002,0.019c0,0.01-0.002,0.023-0.008,0.035
					c-0.006,0.012-0.013,0.022-0.021,0.029C48.532,28.843,48.523,28.846,48.523,28.846z"/>
				<path fill="#979AA1" d="M48.839,28.611c0,0-0.002-0.008-0.002-0.019c0-0.011,0.003-0.023,0.008-0.036
					c0.005-0.012,0.013-0.022,0.021-0.029c0.007-0.008,0.016-0.011,0.016-0.011s0.002,0.008,0.002,0.019s-0.003,0.023-0.008,0.036
					c-0.006,0.012-0.014,0.022-0.021,0.029S48.839,28.611,48.839,28.611z"/>
				<path fill="#979AA1" d="M48.409,28.308c0,0-0.003-0.008-0.003-0.019c0-0.011,0.003-0.023,0.008-0.036
					c0.006-0.012,0.014-0.022,0.021-0.03c0.008-0.007,0.016-0.01,0.016-0.01s0.002,0.008,0.002,0.019
					c0,0.01-0.003,0.023-0.008,0.035c-0.006,0.012-0.013,0.022-0.021,0.029C48.416,28.304,48.409,28.308,48.409,28.308z"/>
				<path fill="#979AA1" d="M49.032,28.589c0,0-0.002-0.008-0.002-0.019s0.003-0.023,0.008-0.035
					c0.006-0.012,0.013-0.022,0.021-0.029c0.008-0.007,0.015-0.011,0.015-0.011s0.003,0.008,0.003,0.019
					c0,0.011-0.003,0.023-0.008,0.036c-0.006,0.011-0.014,0.021-0.021,0.029C49.04,28.585,49.032,28.589,49.032,28.589z"/>
				<path fill="#979AA1" d="M48.694,28.796c0,0-0.003-0.008-0.003-0.019c0-0.011,0.003-0.023,0.008-0.036
					c0.006-0.012,0.014-0.022,0.021-0.029s0.016-0.011,0.016-0.011s0.002,0.008,0.002,0.019c0,0.011-0.003,0.023-0.008,0.036
					c-0.006,0.012-0.013,0.022-0.021,0.029C48.702,28.793,48.694,28.796,48.694,28.796z"/>
			</g>
		</g>
		<g id="XMLID_1243_">
			<path id="XMLID_1254_" fill="#979AA1" d="M35.635,25.231c0.051,0.052,0.035,0.143-0.01,0.199
				c-0.064,0.082-0.165,0.114-0.228,0.195c-0.08,0.105-0.146,0.235-0.168,0.366c-0.073,0.422,0.384,0.676,0.754,0.62
				c0.251-0.037,0.534-0.226,0.585-0.483c0.047-0.246-0.042-0.504-0.265-0.632c-0.081-0.047-0.176-0.062-0.262-0.101
				c-0.086-0.038-0.168-0.11-0.171-0.204c-0.033,0.05-0.062,0.104-0.084,0.16c-0.05-0.043-0.1-0.088-0.15-0.131"/>
			<path id="XMLID_1253_" fill="#979AA1" d="M35.711,25.21c0.051,0.052,0.035,0.142-0.01,0.199
				c-0.064,0.082-0.166,0.114-0.228,0.195c-0.08,0.105-0.146,0.234-0.168,0.366c-0.073,0.421,0.384,0.675,0.755,0.62
				c0.249-0.038,0.533-0.227,0.583-0.484c0.048-0.245-0.041-0.503-0.263-0.631c-0.082-0.047-0.177-0.063-0.263-0.101
				c-0.086-0.038-0.169-0.111-0.171-0.205c-0.033,0.05-0.062,0.104-0.084,0.16c-0.05-0.044-0.1-0.087-0.149-0.131"/>
			<path id="XMLID_1252_" fill="#979AA1" d="M35.581,25.605c0,0-0.002,0.003-0.007,0.009c-0.004,0.005-0.009,0.014-0.014,0.025
				c-0.007,0.011-0.013,0.025-0.019,0.042c-0.007,0.016-0.013,0.035-0.018,0.056c-0.006,0.021-0.011,0.043-0.016,0.068
				c-0.006,0.025-0.012,0.05-0.017,0.077c-0.006,0.026-0.01,0.053-0.014,0.081c-0.004,0.028-0.005,0.055-0.002,0.083v0.01
				l0.002,0.01c0.001,0.007,0.002,0.015,0.003,0.021l0.004,0.02c0.002,0.006,0.004,0.013,0.006,0.02
				c0.009,0.026,0.018,0.051,0.03,0.074c0.012,0.023,0.025,0.045,0.039,0.065s0.029,0.039,0.042,0.055
				c0.015,0.016,0.027,0.031,0.039,0.044c0.012,0.013,0.022,0.025,0.031,0.034c0.018,0.019,0.028,0.029,0.028,0.029
				s-0.003-0.002-0.01-0.006c-0.005-0.004-0.014-0.009-0.023-0.016c-0.011-0.007-0.024-0.017-0.038-0.028
				c-0.007-0.006-0.014-0.012-0.021-0.019s-0.016-0.014-0.024-0.021c-0.015-0.015-0.032-0.033-0.049-0.053
				c-0.016-0.02-0.032-0.042-0.047-0.066c-0.015-0.024-0.026-0.051-0.036-0.08c-0.003-0.007-0.005-0.014-0.007-0.021
				c-0.002-0.008-0.004-0.016-0.005-0.023c-0.002-0.008-0.003-0.015-0.004-0.021l-0.002-0.012v-0.012
				c-0.003-0.031-0.001-0.062,0.003-0.091c0.004-0.03,0.011-0.058,0.018-0.084s0.015-0.052,0.022-0.076
				c0.008-0.024,0.016-0.047,0.023-0.068c0.008-0.021,0.017-0.04,0.026-0.055c0.009-0.016,0.018-0.029,0.025-0.039
				c0.008-0.011,0.016-0.018,0.02-0.022C35.578,25.607,35.581,25.605,35.581,25.605z"/>
			<path id="XMLID_1251_" fill="#979AA1" d="M35.836,25.57c0,0,0.005,0.01,0.013,0.029c0.004,0.01,0.009,0.021,0.014,0.034
				c0.005,0.014,0.011,0.029,0.016,0.045c0.007,0.016,0.013,0.034,0.019,0.054c0.006,0.019,0.013,0.039,0.019,0.06
				c0.006,0.021,0.012,0.042,0.018,0.064c0.007,0.022,0.012,0.045,0.018,0.068c0.005,0.022,0.01,0.045,0.015,0.067
				c0.005,0.022,0.009,0.045,0.013,0.066c0.004,0.022,0.008,0.042,0.011,0.062c0.003,0.02,0.006,0.039,0.007,0.056
				c0.003,0.018,0.004,0.034,0.006,0.048c0.001,0.014,0.002,0.026,0.003,0.037c0.002,0.021,0.002,0.032,0.002,0.032
				s-0.004-0.011-0.011-0.031c-0.006-0.019-0.015-0.047-0.023-0.081c-0.005-0.017-0.01-0.035-0.016-0.054
				c-0.004-0.019-0.01-0.04-0.016-0.061c-0.011-0.042-0.021-0.087-0.032-0.132c-0.01-0.045-0.021-0.09-0.029-0.133
				c-0.005-0.021-0.009-0.042-0.013-0.061c-0.005-0.02-0.008-0.039-0.011-0.055c-0.007-0.034-0.012-0.063-0.016-0.083
				C35.837,25.581,35.836,25.57,35.836,25.57z"/>
			<path id="XMLID_1250_" fill="#979AA1" d="M36.206,25.517c0,0,0.003,0.001,0.008,0.004c0.005,0.003,0.013,0.007,0.021,0.014
				c0.018,0.013,0.039,0.036,0.062,0.066c0.011,0.015,0.022,0.032,0.034,0.049c0.013,0.018,0.023,0.037,0.035,0.057
				c0.012,0.021,0.022,0.042,0.032,0.064s0.02,0.046,0.027,0.07c0.003,0.012,0.007,0.024,0.01,0.037
				c0.003,0.012,0.006,0.024,0.008,0.037c0.004,0.025,0.007,0.049,0.007,0.074c-0.001,0.024-0.003,0.048-0.008,0.069
				c-0.003,0.011-0.006,0.022-0.009,0.032s-0.007,0.02-0.011,0.028c-0.008,0.018-0.017,0.034-0.025,0.047
				c-0.009,0.012-0.019,0.023-0.025,0.031c-0.008,0.008-0.015,0.014-0.02,0.017s-0.008,0.005-0.008,0.005l-0.003-0.003
				c0,0,0.002-0.002,0.005-0.008c0.004-0.005,0.008-0.012,0.013-0.021s0.011-0.021,0.017-0.034c0.005-0.013,0.01-0.028,0.015-0.045
				c0.004-0.017,0.008-0.035,0.011-0.055c0.002-0.02,0.004-0.041,0.005-0.062c0-0.022,0-0.045-0.003-0.068
				c0-0.012-0.002-0.023-0.004-0.035s-0.004-0.023-0.007-0.036c-0.006-0.022-0.014-0.046-0.021-0.067
				c-0.008-0.022-0.018-0.043-0.027-0.064c-0.009-0.021-0.02-0.041-0.029-0.059c-0.011-0.018-0.021-0.035-0.031-0.051
				c-0.019-0.031-0.037-0.055-0.053-0.069c-0.008-0.007-0.015-0.012-0.019-0.015c-0.005-0.003-0.008-0.005-0.008-0.005
				L36.206,25.517z"/>
			<path id="XMLID_1249_" fill="#979AA1" d="M35.688,26.307c0.021,0.022,0.044,0.04,0.072,0.047c0.045,0.011,0.128,0,0.12-0.065
				c-0.002-0.015-0.01-0.028-0.017-0.04c-0.055-0.1-0.089-0.21-0.098-0.322c-0.007-0.068,0.022-0.161-0.021-0.221
				c-0.048-0.064-0.104-0.018-0.137,0.034c-0.04,0.062-0.06,0.127-0.061,0.202c-0.002,0.114,0.034,0.229,0.104,0.321
				C35.663,26.278,35.675,26.293,35.688,26.307z"/>
			<path id="XMLID_1248_" fill="#979AA1" d="M35.419,25.761c-0.091,0.154-0.093,0.358-0.005,0.514
				c0.011,0.018,0.025,0.037,0.046,0.037c0.009-0.027-0.007-0.055-0.021-0.081c-0.066-0.127-0.073-0.283-0.02-0.415
				c0.006-0.013,0.011-0.028,0.004-0.041"/>
			<path id="XMLID_1244_" fill="#979AA1" d="M35.433,25.716c0.002-0.014,0.004-0.028,0.012-0.039
				c0.007-0.01,0.023-0.017,0.035-0.011c0,0.021-0.01,0.042-0.025,0.056c-0.008,0.006-0.022,0.008-0.023-0.001"/>
		</g>
		<g id="XMLID_39_">
			<path id="XMLID_47_" fill="#979AA1" d="M47.399,27.166c0.036,0.037,0.024,0.1-0.007,0.14c-0.046,0.058-0.116,0.081-0.16,0.138
				c-0.057,0.074-0.102,0.165-0.118,0.257c-0.052,0.296,0.27,0.475,0.53,0.436c0.176-0.027,0.376-0.16,0.41-0.341
				c0.034-0.172-0.029-0.354-0.185-0.443c-0.058-0.033-0.124-0.044-0.185-0.071c-0.061-0.027-0.118-0.078-0.12-0.144
				c-0.023,0.035-0.043,0.073-0.059,0.112c-0.036-0.03-0.07-0.062-0.105-0.093"/>
			<path id="XMLID_46_" fill="#979AA1" d="M47.453,27.151c0.036,0.036,0.024,0.099-0.008,0.139c-0.044,0.058-0.116,0.08-0.159,0.137
				c-0.056,0.074-0.102,0.165-0.118,0.257c-0.052,0.297,0.27,0.475,0.53,0.436c0.176-0.026,0.375-0.159,0.411-0.34
				c0.032-0.172-0.029-0.354-0.187-0.443c-0.057-0.033-0.124-0.044-0.184-0.071c-0.061-0.027-0.118-0.078-0.12-0.144
				c-0.023,0.036-0.043,0.073-0.06,0.113c-0.035-0.031-0.069-0.062-0.104-0.093"/>
			<path id="XMLID_45_" fill="#979AA1" d="M47.361,27.428c0,0-0.001,0.002-0.004,0.006c-0.003,0.004-0.006,0.01-0.011,0.018
				c-0.004,0.008-0.009,0.017-0.013,0.029c-0.005,0.011-0.008,0.025-0.013,0.04c-0.004,0.015-0.007,0.031-0.011,0.047
				c-0.003,0.018-0.008,0.036-0.012,0.054s-0.007,0.037-0.009,0.057c-0.003,0.02-0.003,0.039-0.002,0.058v0.008l0.001,0.007
				c0.001,0.005,0.001,0.01,0.003,0.015l0.003,0.014c0,0.004,0.002,0.009,0.004,0.014c0.006,0.018,0.012,0.036,0.021,0.052
				s0.019,0.032,0.028,0.046c0.009,0.014,0.02,0.027,0.029,0.039c0.01,0.011,0.019,0.022,0.027,0.031s0.016,0.017,0.022,0.023
				c0.012,0.013,0.02,0.02,0.02,0.02s-0.003-0.001-0.007-0.004s-0.01-0.006-0.018-0.012c-0.007-0.005-0.016-0.012-0.025-0.02
				c-0.005-0.003-0.011-0.008-0.016-0.012c-0.006-0.005-0.011-0.01-0.017-0.016c-0.011-0.01-0.023-0.022-0.035-0.037
				c-0.011-0.014-0.022-0.029-0.032-0.046c-0.01-0.018-0.02-0.036-0.025-0.057c-0.002-0.005-0.004-0.01-0.005-0.015
				c-0.002-0.005-0.003-0.011-0.004-0.017c-0.001-0.005-0.001-0.01-0.003-0.015l-0.001-0.008l-0.001-0.009
				c-0.001-0.021,0-0.043,0.004-0.063c0.002-0.021,0.007-0.041,0.012-0.06c0.005-0.019,0.01-0.037,0.016-0.053
				c0.005-0.017,0.011-0.033,0.017-0.047c0.005-0.015,0.012-0.028,0.018-0.039s0.013-0.021,0.019-0.027
				c0.006-0.007,0.011-0.012,0.014-0.016C47.359,27.43,47.361,27.428,47.361,27.428z"/>
			<path id="XMLID_44_" fill="#979AA1" d="M47.541,27.404c0,0,0.003,0.008,0.009,0.021c0.003,0.007,0.006,0.015,0.01,0.024
				c0.003,0.009,0.007,0.02,0.011,0.032c0.005,0.011,0.009,0.023,0.014,0.037c0.004,0.014,0.008,0.027,0.013,0.042
				c0.004,0.015,0.008,0.03,0.013,0.046c0.003,0.016,0.008,0.031,0.012,0.047c0.004,0.017,0.007,0.032,0.01,0.047
				c0.004,0.016,0.007,0.032,0.01,0.047s0.005,0.03,0.007,0.044c0.003,0.014,0.004,0.027,0.006,0.039
				c0.001,0.012,0.002,0.023,0.004,0.034c0.001,0.01,0.001,0.019,0.001,0.025c0.002,0.014,0.002,0.023,0.002,0.023
				s-0.003-0.008-0.007-0.022c-0.005-0.014-0.011-0.033-0.017-0.057c-0.004-0.012-0.008-0.024-0.011-0.038
				c-0.004-0.014-0.008-0.028-0.012-0.043c-0.008-0.029-0.016-0.061-0.022-0.093c-0.008-0.031-0.015-0.063-0.021-0.093
				c-0.003-0.015-0.006-0.03-0.009-0.043s-0.005-0.027-0.007-0.039c-0.005-0.024-0.009-0.045-0.011-0.059
				C47.541,27.412,47.541,27.404,47.541,27.404z"/>
			<path id="XMLID_43_" fill="#979AA1" d="M47.801,27.367c0,0,0.002,0,0.006,0.003c0.004,0.001,0.009,0.005,0.015,0.01
				c0.013,0.009,0.027,0.025,0.043,0.046c0.008,0.011,0.017,0.021,0.024,0.035c0.009,0.013,0.017,0.025,0.024,0.04
				c0.009,0.014,0.016,0.03,0.023,0.045c0.007,0.016,0.013,0.033,0.019,0.05c0.002,0.008,0.005,0.017,0.007,0.025
				c0.002,0.009,0.004,0.018,0.006,0.026c0.003,0.017,0.005,0.035,0.005,0.051c0,0.018-0.002,0.034-0.006,0.049
				c-0.002,0.007-0.004,0.015-0.006,0.021s-0.006,0.014-0.008,0.02c-0.006,0.012-0.012,0.023-0.018,0.032
				c-0.007,0.009-0.013,0.017-0.018,0.022c-0.006,0.005-0.011,0.01-0.014,0.012c-0.004,0.002-0.006,0.004-0.006,0.004l-0.002-0.002
				c0,0,0.001-0.002,0.004-0.005c0.002-0.003,0.005-0.008,0.009-0.015c0.003-0.006,0.007-0.014,0.011-0.023s0.008-0.021,0.011-0.033
				c0.003-0.012,0.006-0.024,0.008-0.039c0.002-0.014,0.003-0.028,0.003-0.044c0-0.015,0-0.031-0.001-0.047
				c-0.001-0.008-0.002-0.016-0.004-0.024c-0.001-0.008-0.003-0.017-0.005-0.024c-0.004-0.016-0.009-0.032-0.015-0.048
				s-0.012-0.031-0.02-0.045c-0.007-0.014-0.014-0.028-0.021-0.041c-0.007-0.012-0.015-0.025-0.021-0.035
				c-0.013-0.022-0.026-0.039-0.038-0.049c-0.005-0.005-0.01-0.008-0.013-0.01c-0.004-0.002-0.006-0.004-0.006-0.004L47.801,27.367z
				"/>
			<path id="XMLID_42_" fill="#979AA1" d="M47.437,27.922c0.015,0.015,0.031,0.028,0.052,0.033c0.032,0.007,0.09,0,0.084-0.046
				c-0.001-0.01-0.007-0.02-0.012-0.028c-0.038-0.069-0.062-0.147-0.069-0.227c-0.003-0.048,0.018-0.112-0.014-0.155
				c-0.033-0.045-0.072-0.012-0.096,0.023c-0.028,0.044-0.042,0.09-0.043,0.143c-0.002,0.08,0.024,0.161,0.072,0.226
				C47.419,27.901,47.428,27.912,47.437,27.922z"/>
			<path id="XMLID_41_" fill="#979AA1" d="M47.248,27.538c-0.064,0.108-0.065,0.251-0.004,0.361
				c0.008,0.013,0.019,0.026,0.032,0.025c0.007-0.019-0.005-0.039-0.015-0.056c-0.047-0.089-0.052-0.199-0.014-0.292
				c0.004-0.009,0.008-0.02,0.003-0.029"/>
			<path id="XMLID_40_" fill="#979AA1" d="M47.258,27.506c0.001-0.01,0.002-0.019,0.007-0.027c0.006-0.008,0.017-0.012,0.025-0.008
				c0,0.015-0.007,0.03-0.018,0.039c-0.006,0.004-0.016,0.006-0.017,0"/>
		</g>
		<g id="XMLID_1301_">
			<g id="XMLID_1304_">
				<g id="XMLID_1305_">
					<path id="XMLID_1309_" fill="#979AA1" d="M41.049,31.792c-0.01-0.033-0.018-0.068-0.023-0.104
						c-0.003-0.018-0.004-0.036-0.015-0.051c-0.017-0.027-0.055-0.035-0.085-0.028c-0.031,0.009-0.057,0.031-0.079,0.054
						c-0.008,0.008-0.015,0.016-0.018,0.025c-0.004,0.019,0.008,0.035,0.02,0.05c0.03,0.037,0.066,0.07,0.106,0.098L41.049,31.792z"
						/>
					<path id="XMLID_1308_" fill="#979AA1" d="M41.088,31.769c-0.01-0.034-0.018-0.068-0.022-0.104
						c-0.003-0.018-0.005-0.036-0.016-0.051c-0.017-0.027-0.054-0.036-0.085-0.027c-0.031,0.008-0.057,0.03-0.079,0.053
						c-0.008,0.008-0.015,0.016-0.018,0.025c-0.004,0.019,0.008,0.036,0.02,0.05c0.03,0.037,0.066,0.07,0.106,0.098L41.088,31.769z"
						/>
					<path id="XMLID_1307_" fill="#979AA1" d="M41.289,31.829c-0.104-0.115-0.316-0.076-0.401,0.055
						c-0.084,0.132-0.056,0.312,0.037,0.438c0.092,0.126,0.236,0.204,0.382,0.258c0.161,0.06,0.332,0.096,0.503,0.081
						s0.341-0.081,0.46-0.204c0.015-0.016,0.029-0.033,0.032-0.055c0.003-0.021-0.011-0.046-0.032-0.047
						c-0.01-0.001-0.02,0.004-0.029,0.008c-0.143,0.065-0.313,0.047-0.453-0.024s-0.251-0.19-0.336-0.322
						c-0.051-0.078-0.1-0.166-0.185-0.202"/>
					<path id="XMLID_1306_" fill="#979AA1" d="M41.345,31.789c-0.125-0.102-0.317-0.077-0.401,0.054
						c-0.084,0.132-0.056,0.313,0.036,0.438c0.093,0.126,0.236,0.204,0.383,0.258c0.16,0.06,0.333,0.096,0.503,0.081
						c0.171-0.015,0.34-0.081,0.459-0.204c0.016-0.016,0.029-0.033,0.032-0.055c0.004-0.021-0.01-0.046-0.031-0.047
						c-0.011,0-0.02,0.004-0.029,0.008c-0.143,0.065-0.314,0.047-0.454-0.024s-0.25-0.19-0.336-0.322
						C41.456,31.897,41.422,31.856,41.345,31.789"/>
				</g>
			</g>
			
				<ellipse id="XMLID_1303_" transform="matrix(0.6459 -0.7634 0.7634 0.6459 -9.749 42.7886)" fill="#979AA1" cx="41.254" cy="31.904" rx="0.067" ry="0.087"/>
			<circle id="XMLID_1302_" fill="#979AA1" cx="41.37" cy="31.996" r="0.031"/>
		</g>
		<g id="XMLID_48_">
			<g id="XMLID_51_">
				<g id="XMLID_52_">
					<path id="XMLID_56_" fill="#979AA1" d="M47.653,23.551c0.019-0.028,0.034-0.057,0.049-0.087
						c0.008-0.015,0.015-0.031,0.026-0.042c0.023-0.019,0.06-0.018,0.085-0.001c0.026,0.015,0.043,0.042,0.057,0.069
						c0.005,0.008,0.009,0.018,0.009,0.028c-0.001,0.017-0.016,0.03-0.03,0.039c-0.038,0.025-0.079,0.045-0.122,0.059L47.653,23.551
						z"/>
					<path id="XMLID_55_" fill="#979AA1" d="M47.625,23.519c0.019-0.028,0.034-0.057,0.049-0.087
						c0.007-0.015,0.014-0.031,0.026-0.042c0.023-0.02,0.06-0.018,0.085-0.002c0.025,0.016,0.042,0.042,0.057,0.069
						c0.005,0.009,0.009,0.019,0.008,0.028c0,0.018-0.016,0.03-0.03,0.04c-0.037,0.025-0.079,0.045-0.122,0.059L47.625,23.519z"/>
					<path id="XMLID_54_" fill="#979AA1" d="M47.427,23.52c0.126-0.076,0.306,0.017,0.347,0.157
						c0.041,0.141-0.034,0.296-0.151,0.384c-0.116,0.088-0.267,0.12-0.413,0.129c-0.161,0.01-0.325-0.004-0.475-0.063
						c-0.149-0.059-0.283-0.165-0.358-0.308c-0.009-0.018-0.018-0.037-0.015-0.057c0.003-0.02,0.022-0.038,0.042-0.034
						c0.009,0.003,0.017,0.01,0.023,0.016c0.111,0.097,0.271,0.127,0.416,0.1c0.145-0.027,0.276-0.104,0.389-0.199
						c0.066-0.057,0.134-0.123,0.221-0.132"/>
					<path id="XMLID_53_" fill="#979AA1" d="M47.389,23.469c0.14-0.058,0.305,0.016,0.346,0.157c0.041,0.141-0.033,0.296-0.15,0.385
						c-0.117,0.088-0.268,0.12-0.413,0.129c-0.161,0.01-0.325-0.004-0.475-0.063c-0.149-0.058-0.284-0.165-0.358-0.307
						c-0.01-0.018-0.019-0.038-0.015-0.058c0.003-0.02,0.021-0.039,0.041-0.034c0.01,0.002,0.017,0.009,0.023,0.015
						c0.111,0.098,0.271,0.127,0.416,0.101c0.146-0.026,0.276-0.104,0.389-0.2C47.26,23.536,47.301,23.509,47.389,23.469"/>
				</g>
			</g>
			
				<ellipse id="XMLID_50_" transform="matrix(-0.4091 -0.9125 0.9125 -0.4091 45.3113 76.5371)" fill="#979AA1" cx="47.438" cy="23.597" rx="0.062" ry="0.081"/>
			<circle id="XMLID_49_" fill="#979AA1" cx="47.31" cy="23.648" r="0.03"/>
		</g>
		<g id="XMLID_512_">
			<path id="XMLID_523_" fill="#979AA1" d="M50.245,28.559c-0.09-0.171-0.245-0.322-0.437-0.347c-0.1-0.012-0.212,0.016-0.271,0.097
				c-0.06,0.081-0.038,0.219,0.055,0.256c0.011,0.004,0.021,0.007,0.028,0.016c0.013,0.018-0.001,0.041-0.016,0.056
				c-0.032,0.035-0.065,0.072-0.109,0.088c-0.028,0.01-0.053,0.047-0.061,0.06c-0.014,0.024,0.022,0.022,0.036,0.045
				c0.04,0.066,0.094,0.124,0.159,0.166c0.036,0.024,0.062,0.074,0.097,0.047c0.034-0.026,0.054-0.11,0.062-0.153
				c0.012-0.056,0.053-0.104,0.107-0.124c0.006,0.079,0.08,0.141,0.158,0.144c0.077,0.003,0.152-0.047,0.188-0.116
				s0.031-0.147,0.007-0.221L50.245,28.559z"/>
			<path id="XMLID_522_" fill="#979AA1" d="M50.219,28.826c-0.036,0.07-0.11,0.119-0.188,0.116
				c-0.034-0.001-0.068-0.014-0.097-0.036c-0.034-0.026-0.059-0.065-0.062-0.108c-0.009,0.003-0.017,0.007-0.024,0.011
				c-0.042,0.023-0.073,0.065-0.082,0.112c-0.009,0.042-0.003,0.094-0.038,0.121c-0.034,0.027-0.084,0.009-0.121-0.016
				c-0.064-0.042-0.119-0.099-0.158-0.166c-0.014-0.023-0.025-0.053-0.013-0.077c0.008-0.013,0.022-0.021,0.036-0.029
				c0.041-0.024,0.078-0.054,0.109-0.088c0.01-0.01,0.019-0.023,0.021-0.036c0-0.007,0-0.014-0.005-0.02
				c-0.007-0.009-0.018-0.012-0.027-0.016c-0.012-0.004-0.023-0.011-0.033-0.02h-0.001c-0.063-0.053-0.073-0.166-0.022-0.236
				c0.06-0.082,0.172-0.109,0.271-0.097c0.191,0.025,0.348,0.16,0.437,0.331l0.013,0.032C50.259,28.682,50.255,28.757,50.219,28.826
				z"/>
			<path id="XMLID_521_" fill="#979AA1" d="M49.712,28.525l-0.002,0.026c0.002,0.017-0.049,0.071-0.089,0.081
				c-0.006,0.001-0.013,0.002-0.02,0.001c0-0.007,0-0.014-0.005-0.02c-0.007-0.009-0.018-0.012-0.027-0.016
				c-0.012-0.004-0.023-0.011-0.033-0.02h-0.001c0-0.003,0-0.005,0.001-0.008c0.003-0.031,0.032-0.051,0.061-0.065
				c0.02-0.01,0.041-0.019,0.064-0.017C49.684,28.489,49.712,28.497,49.712,28.525z"/>
			<path id="XMLID_518_" fill="#979AA1" d="M49.848,28.81c0.001-0.012,0.003-0.023,0.006-0.036c0.009-0.034,0.033-0.07,0.068-0.071
				c0.04,0,0.067,0.044,0.068,0.083c0.001,0.046-0.021,0.092-0.057,0.12c-0.034-0.026-0.059-0.065-0.062-0.108
				C49.863,28.802,49.855,28.806,49.848,28.81z"/>
			<path id="XMLID_516_" fill="#979AA1" d="M50.085,28.501c0.114-0.001,0.153,0.195,0.125,0.275
				c-0.008,0.023-0.021,0.046-0.042,0.057c-0.022,0.011-0.053,0.005-0.062-0.018c-0.006-0.014-0.001-0.03,0.002-0.045
				c0.01-0.044,0.01-0.092-0.001-0.137c-0.011-0.04-0.042-0.078-0.03-0.122"/>
			<path id="XMLID_515_" fill="#979AA1" d="M49.791,28.808c-0.036,0.063-0.073,0.126-0.112,0.187
				c-0.005,0.008-0.013,0.016-0.021,0.016c-0.006,0-0.01-0.004-0.015-0.007c-0.022-0.016-0.081-0.041-0.066-0.069
				c0.01-0.02,0.054-0.026,0.071-0.036c0.034-0.017,0.067-0.035,0.1-0.055c0.012-0.007,0.024-0.016,0.031-0.028L49.791,28.808z"/>
			<path id="XMLID_514_" fill="#979AA1" d="M50.048,28.433c-0.013-0.021-0.037-0.036-0.061-0.038c-0.004,0-0.007,0-0.009,0.001
				c-0.005,0.004-0.002,0.012,0.002,0.018c0.008,0.012,0.017,0.022,0.027,0.032c0.009,0.007,0.018,0.014,0.028,0.013
				c0.011-0.001,0.02-0.014,0.013-0.022"/>
			<path id="XMLID_513_" fill="#979AA1" d="M49.651,28.277c-0.037,0.006-0.063,0.037-0.086,0.066
				c-0.017,0.021-0.033,0.045-0.026,0.07c0.002,0.007,0.008,0.014,0.015,0.012c0.002,0,0.004-0.002,0.006-0.004
				c0.023-0.02,0.03-0.054,0.054-0.073c0.009-0.007,0.019-0.011,0.027-0.017s0.018-0.015,0.021-0.025
				c0.002-0.011-0.004-0.023-0.015-0.025"/>
			<path id="XMLID_530_" fill="#979AA1" d="M49.567,28.901c-0.012,0.015-0.036,0.008-0.05-0.005s-0.021-0.032-0.037-0.042
				c0.007-0.01,0.022-0.006,0.034,0c0.018,0.01,0.034,0.024,0.047,0.042"/>
		</g>
		<g id="XMLID_21_">
			<path id="XMLID_30_" fill="#979AA1" d="M41.759,30.78c-0.09-0.172-0.245-0.322-0.436-0.347c-0.101-0.013-0.212,0.016-0.271,0.097
				s-0.038,0.219,0.056,0.256c0.01,0.005,0.021,0.008,0.027,0.017c0.013,0.017-0.001,0.04-0.015,0.056
				c-0.032,0.034-0.066,0.072-0.11,0.088c-0.028,0.01-0.052,0.047-0.061,0.061c-0.014,0.022,0.023,0.021,0.037,0.045
				c0.039,0.066,0.094,0.123,0.158,0.165c0.037,0.024,0.063,0.074,0.098,0.048c0.034-0.027,0.053-0.11,0.062-0.153
				c0.011-0.056,0.053-0.104,0.106-0.123c0.006,0.077,0.08,0.14,0.158,0.144c0.078,0.003,0.152-0.048,0.188-0.116
				c0.037-0.069,0.032-0.146,0.007-0.222L41.759,30.78z"/>
			<path id="XMLID_29_" fill="#979AA1" d="M41.733,31.047c-0.037,0.069-0.111,0.119-0.188,0.116
				c-0.036-0.001-0.069-0.015-0.098-0.035c-0.034-0.026-0.058-0.065-0.062-0.108c-0.008,0.003-0.017,0.007-0.024,0.011
				c-0.042,0.023-0.072,0.065-0.082,0.113c-0.009,0.042-0.003,0.094-0.037,0.121c-0.034,0.026-0.085,0.008-0.122-0.016
				c-0.064-0.043-0.119-0.101-0.158-0.167c-0.014-0.022-0.025-0.053-0.013-0.075c0.009-0.014,0.023-0.021,0.036-0.029
				c0.041-0.023,0.078-0.054,0.11-0.088c0.009-0.011,0.018-0.023,0.02-0.036c0.001-0.007,0-0.014-0.005-0.02
				c-0.006-0.009-0.018-0.013-0.027-0.016c-0.013-0.006-0.023-0.013-0.033-0.021l0,0c-0.064-0.054-0.073-0.166-0.022-0.236
				c0.06-0.081,0.171-0.109,0.271-0.096c0.191,0.024,0.347,0.16,0.436,0.331l0.014,0.032C41.772,30.901,41.77,30.978,41.733,31.047z
				"/>
			<path id="XMLID_28_" fill="#979AA1" d="M41.226,30.745l-0.002,0.026c0.002,0.018-0.049,0.071-0.089,0.08
				c-0.006,0.002-0.013,0.002-0.02,0.002c0.001-0.007,0-0.014-0.005-0.02c-0.006-0.009-0.018-0.013-0.027-0.016
				c-0.013-0.006-0.023-0.013-0.033-0.021l0,0c0-0.002,0-0.005,0-0.008c0.004-0.03,0.032-0.051,0.06-0.064
				c0.021-0.01,0.043-0.019,0.065-0.017C41.197,30.71,41.226,30.717,41.226,30.745z"/>
			<path id="XMLID_27_" fill="#979AA1" d="M41.361,31.031c0.001-0.013,0.003-0.024,0.006-0.036c0.01-0.034,0.034-0.07,0.069-0.071
				c0.04,0,0.066,0.044,0.067,0.083c0.002,0.047-0.021,0.092-0.057,0.121c-0.034-0.026-0.058-0.065-0.062-0.108
				C41.378,31.022,41.369,31.026,41.361,31.031z"/>
			<path id="XMLID_26_" fill="#979AA1" d="M41.6,30.721c0.114,0,0.151,0.196,0.124,0.276c-0.008,0.022-0.021,0.045-0.042,0.057
				c-0.021,0.01-0.053,0.004-0.062-0.019c-0.006-0.015-0.002-0.029,0.001-0.045c0.009-0.044,0.01-0.093-0.001-0.137
				c-0.011-0.041-0.042-0.078-0.029-0.123"/>
			<path id="XMLID_25_" fill="#979AA1" d="M41.305,31.027c-0.035,0.064-0.073,0.127-0.113,0.188
				c-0.005,0.007-0.011,0.016-0.021,0.015c-0.005,0-0.01-0.003-0.015-0.006c-0.021-0.016-0.081-0.04-0.066-0.069
				c0.01-0.021,0.054-0.025,0.072-0.035c0.034-0.017,0.067-0.035,0.099-0.056c0.013-0.008,0.024-0.016,0.031-0.028L41.305,31.027z"
				/>
			<path id="XMLID_24_" fill="#979AA1" d="M41.562,30.653c-0.014-0.021-0.036-0.035-0.062-0.037
				c-0.002-0.001-0.005-0.001-0.008,0.001c-0.005,0.004-0.002,0.012,0.002,0.018c0.008,0.011,0.018,0.022,0.028,0.031
				c0.008,0.008,0.017,0.015,0.027,0.014s0.02-0.015,0.012-0.022"/>
			<path id="XMLID_23_" fill="#979AA1" d="M41.165,30.498c-0.036,0.006-0.063,0.037-0.086,0.066c-0.016,0.02-0.032,0.045-0.025,0.07
				c0.001,0.006,0.007,0.014,0.014,0.012c0.002,0,0.005-0.002,0.006-0.004c0.022-0.02,0.03-0.054,0.054-0.072
				c0.009-0.007,0.019-0.012,0.028-0.018c0.009-0.006,0.018-0.015,0.02-0.024c0.002-0.011-0.004-0.024-0.014-0.026"/>
			<path id="XMLID_22_" fill="#979AA1" d="M41.081,31.121c-0.012,0.016-0.036,0.009-0.05-0.005s-0.021-0.031-0.037-0.042
				c0.008-0.01,0.023-0.007,0.033-0.001c0.02,0.01,0.036,0.024,0.048,0.042"/>
		</g>
		<g id="XMLID_57_">
			<path id="XMLID_66_" fill="#979AA1" d="M44.828,24.538c-0.088-0.171-0.244-0.322-0.436-0.347c-0.1-0.013-0.212,0.016-0.271,0.097
				c-0.06,0.082-0.038,0.219,0.055,0.256c0.011,0.004,0.022,0.008,0.028,0.016c0.013,0.017-0.001,0.041-0.016,0.056
				c-0.031,0.035-0.065,0.072-0.109,0.087c-0.027,0.01-0.053,0.047-0.061,0.061c-0.014,0.023,0.022,0.021,0.036,0.044
				c0.04,0.067,0.095,0.124,0.159,0.166c0.037,0.024,0.062,0.075,0.098,0.047c0.033-0.027,0.053-0.11,0.061-0.153
				c0.012-0.056,0.054-0.104,0.107-0.124c0.006,0.078,0.08,0.141,0.158,0.144c0.078,0.002,0.152-0.047,0.188-0.117
				c0.036-0.069,0.031-0.146,0.007-0.221L44.828,24.538z"/>
			<path id="XMLID_65_" fill="#979AA1" d="M44.803,24.805c-0.035,0.069-0.11,0.119-0.188,0.116
				c-0.035-0.001-0.069-0.014-0.097-0.035c-0.034-0.027-0.059-0.065-0.062-0.109c-0.008,0.003-0.017,0.008-0.024,0.012
				c-0.042,0.023-0.073,0.065-0.082,0.112c-0.009,0.042-0.003,0.094-0.037,0.121c-0.034,0.026-0.085,0.009-0.122-0.016
				c-0.064-0.042-0.119-0.1-0.158-0.167c-0.014-0.023-0.026-0.052-0.013-0.076c0.008-0.013,0.022-0.021,0.036-0.029
				c0.041-0.023,0.078-0.053,0.109-0.088c0.01-0.01,0.019-0.023,0.021-0.036c0.001-0.007,0-0.014-0.005-0.02
				c-0.007-0.009-0.018-0.012-0.027-0.016c-0.013-0.005-0.023-0.012-0.033-0.019l0,0c-0.064-0.054-0.074-0.166-0.022-0.237
				c0.059-0.081,0.172-0.109,0.271-0.097c0.191,0.025,0.348,0.16,0.437,0.331l0.014,0.032C44.843,24.66,44.839,24.736,44.803,24.805
				z"/>
			<path id="XMLID_64_" fill="#979AA1" d="M44.296,24.504l-0.002,0.026c0.002,0.018-0.049,0.071-0.088,0.08
				c-0.007,0.002-0.014,0.002-0.021,0.002c0.001-0.007,0-0.014-0.005-0.02c-0.007-0.009-0.018-0.012-0.027-0.016
				c-0.013-0.005-0.023-0.012-0.033-0.019l0,0c0-0.003,0-0.006,0-0.009c0.004-0.03,0.033-0.05,0.061-0.064
				c0.02-0.01,0.042-0.019,0.064-0.018C44.268,24.468,44.296,24.476,44.296,24.504z"/>
			<path id="XMLID_63_" fill="#979AA1" d="M44.432,24.789c0.001-0.013,0.003-0.024,0.006-0.036c0.009-0.034,0.034-0.07,0.069-0.071
				c0.04-0.001,0.065,0.044,0.067,0.083c0.002,0.046-0.021,0.091-0.057,0.121c-0.034-0.027-0.059-0.065-0.062-0.108
				C44.447,24.78,44.439,24.785,44.432,24.789z"/>
			<path id="XMLID_62_" fill="#979AA1" d="M44.67,24.479c0.113,0,0.152,0.196,0.124,0.276c-0.008,0.023-0.021,0.045-0.042,0.056
				s-0.053,0.004-0.062-0.018c-0.006-0.014-0.002-0.03,0.001-0.044c0.01-0.044,0.01-0.093-0.001-0.137
				c-0.011-0.041-0.042-0.078-0.03-0.122"/>
			<path id="XMLID_61_" fill="#979AA1" d="M44.375,24.786c-0.036,0.064-0.073,0.127-0.113,0.188
				c-0.005,0.008-0.012,0.016-0.021,0.016c-0.006,0-0.01-0.003-0.015-0.007c-0.022-0.016-0.08-0.04-0.066-0.069
				c0.01-0.02,0.054-0.026,0.071-0.035c0.034-0.017,0.067-0.036,0.1-0.056c0.013-0.007,0.024-0.015,0.032-0.028L44.375,24.786z"/>
			<path id="XMLID_60_" fill="#979AA1" d="M44.632,24.412c-0.013-0.021-0.036-0.036-0.061-0.038c-0.004,0-0.007,0-0.009,0.001
				c-0.005,0.004-0.002,0.012,0.002,0.018c0.008,0.012,0.018,0.022,0.028,0.032c0.007,0.007,0.017,0.014,0.027,0.013
				c0.011-0.001,0.019-0.015,0.013-0.022"/>
			<path id="XMLID_59_" fill="#979AA1" d="M44.234,24.256c-0.035,0.006-0.062,0.037-0.085,0.066
				c-0.017,0.021-0.033,0.045-0.025,0.07c0.002,0.007,0.007,0.014,0.014,0.013c0.002-0.001,0.004-0.003,0.006-0.004
				c0.023-0.021,0.03-0.054,0.054-0.073c0.009-0.007,0.019-0.011,0.027-0.018c0.01-0.006,0.018-0.014,0.021-0.025
				c0.002-0.01-0.004-0.023-0.015-0.025"/>
			<path id="XMLID_58_" fill="#979AA1" d="M44.151,24.879c-0.012,0.015-0.036,0.008-0.05-0.005s-0.021-0.032-0.037-0.042
				c0.007-0.01,0.023-0.007,0.034-0.001c0.019,0.01,0.034,0.024,0.047,0.041"/>
		</g>
		<g id="XMLID_1604_">
			<path id="XMLID_1607_" fill="#979AA1" d="M37.308,24.085c0,0.193-0.155,0.35-0.347,0.35c-0.095,0-0.181-0.038-0.244-0.101
				c-0.062-0.063-0.103-0.151-0.103-0.249c0-0.192,0.155-0.35,0.347-0.35c0.035,0,0.069,0.006,0.103,0.016
				C37.205,23.795,37.308,23.928,37.308,24.085z"/>
			<path id="XMLID_1606_" fill="#979AA1" d="M37.166,24c0,0.193-0.155,0.35-0.347,0.35c-0.036,0-0.07-0.005-0.103-0.015
				c-0.062-0.063-0.103-0.151-0.103-0.249c0-0.192,0.155-0.35,0.347-0.35c0.035,0,0.069,0.006,0.103,0.016
				C37.127,23.814,37.166,23.902,37.166,24z"/>
			
				<ellipse id="XMLID_1605_" transform="matrix(0.9456 0.3252 -0.3252 0.9456 9.7923 -10.671)" fill="#979AA1" cx="36.816" cy="23.956" rx="0.098" ry="0.106"/>
		</g>
		<g id="XMLID_1_">
			<path id="XMLID_4_" fill="#979AA1" d="M47.648,31.266c0,0.193-0.155,0.349-0.347,0.349c-0.095,0-0.182-0.038-0.244-0.101
				c-0.063-0.062-0.103-0.151-0.103-0.248c0-0.193,0.155-0.35,0.347-0.35c0.035,0,0.069,0.005,0.102,0.016
				C47.545,30.975,47.648,31.107,47.648,31.266z"/>
			<path id="XMLID_3_" fill="#979AA1" d="M47.507,31.18c0,0.193-0.155,0.35-0.347,0.35c-0.035,0-0.07-0.005-0.103-0.016
				c-0.063-0.062-0.103-0.151-0.103-0.248c0-0.193,0.155-0.35,0.347-0.35c0.035,0,0.069,0.005,0.102,0.016
				C47.467,30.994,47.507,31.082,47.507,31.18z"/>
			
				<ellipse id="XMLID_2_" transform="matrix(0.9451 0.3268 -0.3268 0.9451 12.7629 -13.6998)" fill="#979AA1" cx="47.156" cy="31.136" rx="0.097" ry="0.105"/>
		</g>
		<g id="XMLID_5_">
			<path id="XMLID_8_" fill="#979AA1" d="M47.113,22.862c0,0.192-0.154,0.349-0.347,0.349c-0.094,0-0.181-0.039-0.243-0.101
				c-0.063-0.063-0.104-0.152-0.104-0.249c0-0.193,0.155-0.35,0.347-0.35c0.036,0,0.07,0.005,0.103,0.015
				C47.011,22.572,47.113,22.705,47.113,22.862z"/>
			<path id="XMLID_7_" fill="#979AA1" d="M46.972,22.777c0,0.192-0.154,0.349-0.347,0.349c-0.035,0-0.069-0.005-0.102-0.015
				c-0.063-0.063-0.104-0.152-0.104-0.249c0-0.193,0.155-0.35,0.347-0.35c0.036,0,0.07,0.005,0.103,0.015
				C46.933,22.591,46.972,22.679,46.972,22.777z"/>
			
				<ellipse id="XMLID_6_" transform="matrix(0.9466 0.3223 -0.3223 0.9466 9.8133 -13.8118)" fill="#979AA1" cx="46.622" cy="22.733" rx="0.097" ry="0.105"/>
		</g>
		<g id="XMLID_9_">
			<path id="XMLID_12_" fill="#979AA1" d="M42.919,31.088c0,0.192-0.155,0.35-0.347,0.35c-0.095,0-0.181-0.039-0.243-0.102
				c-0.064-0.063-0.104-0.151-0.104-0.248c0-0.193,0.155-0.351,0.347-0.351c0.035,0,0.069,0.006,0.102,0.016
				C42.815,30.798,42.919,30.931,42.919,31.088z"/>
			<path id="XMLID_11_" fill="#979AA1" d="M42.777,31.002c0,0.193-0.155,0.35-0.347,0.35c-0.035,0-0.069-0.006-0.102-0.016
				c-0.064-0.063-0.104-0.151-0.104-0.248c0-0.193,0.155-0.351,0.347-0.351c0.035,0,0.069,0.006,0.102,0.016
				C42.738,30.816,42.777,30.905,42.777,31.002z"/>
			
				<ellipse id="XMLID_10_" transform="matrix(0.9451 0.3268 -0.3268 0.9451 12.4452 -12.1641)" fill="#979AA1" cx="42.427" cy="30.958" rx="0.097" ry="0.105"/>
		</g>
		<g id="XMLID_13_">
			<path id="XMLID_16_" fill="#979AA1" d="M40.424,26.62c0,0.193-0.155,0.35-0.347,0.35c-0.095,0-0.182-0.039-0.244-0.101
				c-0.063-0.063-0.104-0.152-0.104-0.249c0-0.193,0.155-0.35,0.348-0.35c0.035,0,0.069,0.005,0.102,0.016
				C40.32,26.329,40.424,26.462,40.424,26.62z"/>
			<path id="XMLID_15_" fill="#979AA1" d="M40.282,26.534c0,0.193-0.155,0.35-0.348,0.35c-0.035,0-0.069-0.006-0.102-0.016
				c-0.063-0.063-0.104-0.152-0.104-0.249c0-0.193,0.155-0.35,0.348-0.35c0.035,0,0.069,0.005,0.102,0.016
				C40.242,26.348,40.282,26.437,40.282,26.534z"/>
			
				<ellipse id="XMLID_14_" transform="matrix(0.9459 0.3245 -0.3245 0.9459 10.7577 -11.5248)" fill="#979AA1" cx="39.932" cy="26.49" rx="0.097" ry="0.105"/>
		</g>
		<g id="XMLID_17_">
			<path id="XMLID_20_" fill="#979AA1" d="M36.103,27.761c0,0.193-0.155,0.35-0.346,0.35c-0.096,0-0.182-0.039-0.244-0.101
				c-0.063-0.063-0.103-0.151-0.103-0.249c0-0.193,0.155-0.35,0.347-0.35c0.035,0,0.069,0.005,0.102,0.015
				C36,27.471,36.103,27.604,36.103,27.761z"/>
			<path id="XMLID_19_" fill="#979AA1" d="M35.961,27.675c0,0.193-0.155,0.35-0.346,0.35c-0.036,0-0.07-0.005-0.103-0.015
				c-0.063-0.063-0.103-0.151-0.103-0.249c0-0.193,0.155-0.35,0.347-0.35c0.035,0,0.069,0.005,0.102,0.015
				C35.922,27.49,35.961,27.578,35.961,27.675z"/>
			
				<ellipse id="XMLID_18_" transform="matrix(0.9451 0.3268 -0.3268 0.9451 10.984 -10.1197)" fill="#979AA1" cx="35.611" cy="27.632" rx="0.097" ry="0.105"/>
		</g>
		<g id="XMLID_31_">
			<path id="XMLID_34_" fill="#979AA1" d="M45.19,25.761c0,0.193-0.155,0.35-0.347,0.35c-0.096,0-0.182-0.039-0.244-0.101
				c-0.063-0.063-0.104-0.152-0.104-0.249c0-0.193,0.155-0.35,0.348-0.35c0.035,0,0.069,0.005,0.102,0.016
				C45.087,25.47,45.19,25.604,45.19,25.761z"/>
			<path id="XMLID_33_" fill="#979AA1" d="M45.049,25.675c0,0.193-0.155,0.35-0.348,0.35c-0.035,0-0.069-0.006-0.102-0.016
				c-0.063-0.063-0.104-0.152-0.104-0.249c0-0.193,0.155-0.35,0.348-0.35c0.035,0,0.069,0.005,0.102,0.016
				C45.009,25.489,45.049,25.578,45.049,25.675z"/>
			
				<ellipse id="XMLID_32_" transform="matrix(0.9459 0.3245 -0.3245 0.9459 10.737 -13.1182)" fill="#979AA1" cx="44.698" cy="25.632" rx="0.097" ry="0.105"/>
		</g>
		<g id="XMLID_35_">
			<path id="XMLID_38_" fill="#979AA1" d="M49.059,26.141c0,0.193-0.155,0.349-0.348,0.349c-0.094,0-0.181-0.039-0.243-0.101
				c-0.063-0.063-0.103-0.151-0.103-0.249c0-0.193,0.155-0.35,0.346-0.35c0.036,0,0.07,0.005,0.103,0.015
				C48.955,25.85,49.059,25.983,49.059,26.141z"/>
			<path id="XMLID_37_" fill="#979AA1" d="M48.917,26.055c0,0.192-0.155,0.349-0.348,0.349c-0.035,0-0.069-0.005-0.102-0.015
				c-0.063-0.063-0.103-0.151-0.103-0.249c0-0.193,0.155-0.35,0.346-0.35c0.036,0,0.07,0.005,0.103,0.015
				C48.877,25.87,48.917,25.958,48.917,26.055z"/>
			
				<ellipse id="XMLID_36_" transform="matrix(0.9451 0.3268 -0.3268 0.9451 11.1658 -14.4419)" fill="#979AA1" cx="48.566" cy="26.012" rx="0.097" ry="0.105"/>
		</g>
		<g>
			<path fill="#979AA1" d="M43.693,23.102c0.001-0.022-0.112-0.742,0.339-0.973c0.479-0.247,0.837,0.246,0.65,0.629
				c-0.268,0.55-0.948,0.815-1.01,0.701C43.611,23.344,43.689,23.353,43.693,23.102z"/>
			<circle fill="#979AA1" cx="44.477" cy="22.495" r="0.171"/>
			<path fill="#979AA1" d="M44.181,21.507c0,0,0.336,0.072,0.312,0.51C44.493,22.017,44.111,21.979,44.181,21.507z"/>
			<path fill="#979AA1" d="M44.434,22.046c0.033,0.006,0.05,0.016,0.073,0.029c0.059-0.08,0.149-0.245,0.075-0.405
				c0,0-0.051-0.013-0.083,0.05C44.499,21.719,44.583,21.874,44.434,22.046z"/>
			<path fill="#979AA1" d="M44.513,22.051c0,0,0.236-0.335,0.706-0.105C45.219,21.946,44.998,22.348,44.513,22.051z"/>
		</g>
		<g>
			<path fill="#979AA1" d="M45.121,27.231c0-0.013-0.064-0.427,0.194-0.56c0.275-0.142,0.482,0.142,0.375,0.362
				c-0.155,0.317-0.546,0.469-0.581,0.403S45.118,27.375,45.121,27.231z"/>
			<circle fill="#979AA1" cx="45.571" cy="26.883" r="0.098"/>
			<path fill="#979AA1" d="M45.401,26.315c0,0,0.193,0.042,0.18,0.293C45.581,26.608,45.361,26.586,45.401,26.315z"/>
			<path fill="#979AA1" d="M45.547,26.625c0.019,0.003,0.028,0.009,0.042,0.017c0.033-0.047,0.086-0.141,0.043-0.234
				c0,0-0.029-0.007-0.048,0.029C45.584,26.437,45.633,26.526,45.547,26.625z"/>
			<path fill="#979AA1" d="M45.592,26.628c0,0,0.136-0.193,0.406-0.061C45.998,26.567,45.871,26.798,45.592,26.628z"/>
		</g>
		<g>
			<g>
				<g>
					<circle fill="#979AA1" cx="43.069" cy="29.16" r="0.268"/>
					<circle opacity="0.4" fill="#979AA1" cx="42.968" cy="29.242" r="0.089"/>
				</g>
				<g>
					<circle fill="#979AA1" cx="43.167" cy="28.636" r="0.268"/>
					<circle opacity="0.4" fill="#979AA1" cx="43.066" cy="28.719" r="0.089"/>
				</g>
				<g>
					<circle fill="#979AA1" cx="43.018" cy="29.708" r="0.267"/>
					<circle opacity="0.4" fill="#979AA1" cx="42.917" cy="29.791" r="0.089"/>
				</g>
				<g>
					<circle fill="#979AA1" cx="42.967" cy="30.257" r="0.267"/>
					<circle opacity="0.4" fill="#979AA1" cx="42.866" cy="30.34" r="0.089"/>
				</g>
				<g>
					<circle fill="#979AA1" cx="43.357" cy="29.94" r="0.267"/>
					<circle opacity="0.4" fill="#979AA1" cx="43.256" cy="30.023" r="0.089"/>
				</g>
				<g>
					<circle fill="#979AA1" cx="43.408" cy="29.391" r="0.268"/>
					<circle opacity="0.4" fill="#979AA1" cx="43.307" cy="29.474" r="0.089"/>
				</g>
				<g>
					<circle fill="#979AA1" cx="43.775" cy="29.643" r="0.268"/>
					<circle opacity="0.4" fill="#979AA1" cx="43.674" cy="29.726" r="0.089"/>
				</g>
				<g>
					<circle fill="#979AA1" cx="44.205" cy="29.332" r="0.268"/>
					<circle opacity="0.4" fill="#979AA1" cx="44.104" cy="29.415" r="0.088"/>
				</g>
				<g>
					<circle fill="#979AA1" cx="43.843" cy="29.099" r="0.267"/>
					<circle opacity="0.4" fill="#979AA1" cx="43.742" cy="29.182" r="0.089"/>
				</g>
				<g>
					<circle fill="#979AA1" cx="43.461" cy="28.838" r="0.267"/>
					<circle opacity="0.4" fill="#979AA1" cx="43.361" cy="28.921" r="0.089"/>
				</g>
			</g>
			<path fill="#979AA1" d="M44.038,27.753c-0.012-0.006-0.047,0.009-0.032,0.022c0.135,0.112,0.275,0.248,0.176,0.432
				c-0.044,0.083-0.141,0.165-0.24,0.199c0.016-0.076,0.034-0.183-0.009-0.225c-0.061-0.061-0.257,0.197-0.146,0.261
				c0.031,0.018,0.067,0.021,0.105,0.014c-0.016,0.083-0.035,0.166-0.037,0.25c0,0.008,0.015,0.003,0.017-0.001
				c0.034-0.075,0.045-0.163,0.059-0.243c0.001-0.005,0.002-0.011,0.003-0.016c0.1-0.034,0.202-0.12,0.249-0.173
				C44.348,28.087,44.233,27.862,44.038,27.753z M43.85,28.422c-0.059,0-0.057-0.052-0.04-0.094
				c0.016-0.039,0.042-0.075,0.068-0.106c0.034-0.041,0.033,0.026,0.033,0.051c0.001,0.049-0.004,0.097-0.013,0.145
				C43.882,28.421,43.865,28.422,43.85,28.422z"/>
			<path fill="#979AA1" d="M43.989,28.379c0,0,0.274-0.166,0.491-0.138c0,0-0.064-0.024-0.05,0.094
				c0.014,0.118,0.378,0.201,0.378,0.201s-0.185,0.017-0.296,0.121c-0.11,0.104-0.145,0.315-0.145,0.315s-0.075-0.424-0.319-0.388
				L43.989,28.379z"/>
		</g>
	</g>
	<g>
		<path fill="#979AA1" d="M5.58,28.938v0.598H5.356c-0.255,0-0.505-0.072-0.751-0.215c-0.246-0.143-0.45-0.313-0.611-0.513
			c-0.088,0.485-0.467,0.728-1.139,0.728H0.85v-0.598h1.745c0.411,0,0.615-0.189,0.615-0.569v-1.306
			c0-0.521-0.051-0.901-0.154-1.138c-0.103-0.236-0.297-0.354-0.583-0.354c-0.386,0-0.656,0.162-0.812,0.485
			c-0.056,0.019-0.118,0.028-0.187,0.028c-0.199,0-0.323-0.065-0.373-0.195c0.031-0.125,0.177-0.253,0.438-0.388
			C1.802,25.367,2.113,25.3,2.474,25.3c0.521,0,0.909,0.143,1.161,0.425c0.252,0.283,0.378,0.714,0.378,1.292v1.353h0.009
			c0.093,0.162,0.239,0.297,0.438,0.405c0.199,0.109,0.416,0.164,0.653,0.164H5.58z"/>
		<path fill="#979AA1" d="M6.811,29.536H5.486v-0.598H6.41c0.466,0,0.699-0.273,0.699-0.821v-2.35c0-0.168,0.098-0.316,0.294-0.443
			c0.196-0.127,0.361-0.191,0.499-0.191v3.022c0,0.417-0.092,0.751-0.275,1.003C7.443,29.409,7.171,29.536,6.811,29.536z
			 M6.708,24.013c-0.093,0.093-0.206,0.14-0.336,0.14s-0.243-0.046-0.336-0.14s-0.14-0.206-0.14-0.336s0.046-0.242,0.14-0.335
			c0.093-0.094,0.206-0.14,0.336-0.14s0.243,0.046,0.336,0.14c0.093,0.093,0.14,0.205,0.14,0.335S6.802,23.92,6.708,24.013z"/>
		<path fill="#979AA1" d="M12.323,24.899v3.255c0,0.417-0.091,0.751-0.275,1.003c-0.183,0.252-0.456,0.378-0.816,0.378h-0.886
			c-0.292,0-0.554-0.083-0.788-0.248c-0.233-0.165-0.409-0.369-0.527-0.611c-0.05-0.105-0.087-0.214-0.111-0.327
			c0-0.056,0.027-0.084,0.083-0.084c0.05,0.006,0.131,0.096,0.243,0.271c0.019,0.031,0.034,0.055,0.046,0.074
			c0.149,0.218,0.42,0.327,0.811,0.327h0.411c-1.107-3.14-1.697-4.757-1.772-4.85c0-0.155,0.081-0.307,0.242-0.453
			c0.162-0.145,0.305-0.234,0.429-0.266l1.661,5.569c0.105,0,0.192-0.019,0.261-0.056c0.068-0.038,0.116-0.09,0.14-0.159
			c0.026-0.068,0.041-0.124,0.047-0.168c0.007-0.043,0.01-0.103,0.01-0.177V24.47c0-0.367,0.075-0.668,0.224-0.905
			c0.149-0.237,0.383-0.354,0.7-0.354c0.304,0,0.522,0.1,0.652,0.298s0.199,0.429,0.206,0.69l-0.196,0.112
			c-0.012-0.292-0.14-0.438-0.382-0.438c-0.1,0-0.179,0.029-0.238,0.088s-0.1,0.149-0.121,0.271
			c-0.022,0.121-0.036,0.224-0.042,0.307C12.327,24.624,12.323,24.744,12.323,24.899z"/>
		<path fill="#979AA1" d="M17.565,30.169v-4.402c0-0.168,0.098-0.316,0.294-0.443c0.195-0.127,0.362-0.191,0.499-0.191v4.16
			c0,0.678-0.181,1.192-0.545,1.544c-0.363,0.351-0.851,0.526-1.459,0.526c-0.131,0-0.275-0.028-0.434-0.084
			c-0.158-0.056-0.281-0.14-0.368-0.252c0-0.093,0.071-0.19,0.214-0.293c0.143-0.104,0.276-0.16,0.401-0.173
			c0.155,0.248,0.379,0.373,0.671,0.373c0.224,0,0.401-0.067,0.531-0.2C17.5,30.6,17.565,30.412,17.565,30.169z"/>
		<path fill="#979AA1" d="M22.174,28.938v0.598h-1.325c-0.36,0-0.632-0.126-0.816-0.378c-0.183-0.251-0.275-0.585-0.275-1.003
			v-4.319c0-0.167,0.101-0.313,0.303-0.438c0.202-0.124,0.371-0.186,0.508-0.186v4.906c0,0.547,0.233,0.821,0.699,0.821H22.174z"/>
		<path fill="#979AA1" d="M28.246,28.938v0.598h-0.074c-0.268,0-0.532-0.086-0.792-0.257c-0.262-0.171-0.474-0.368-0.635-0.592
			c-0.088,0.311-0.272,0.578-0.555,0.802c-0.283,0.224-0.611,0.335-0.984,0.335c-0.137,0-0.277-0.012-0.42-0.037
			c-0.144-0.025-0.322-0.098-0.537-0.219c-0.214-0.121-0.387-0.285-0.518-0.49c-0.093,0.144-0.227,0.255-0.401,0.336
			c-0.174,0.081-0.358,0.122-0.551,0.122h-0.699v-0.598h0.513c0.262,0,0.444-0.052,0.545-0.153c0.103-0.103,0.155-0.291,0.155-0.564
			v-0.625c0-0.616,0.141-1.095,0.424-1.437c0.282-0.342,0.667-0.513,1.152-0.513c0.609,0,1.087,0.216,1.432,0.648
			c0.346,0.433,0.521,0.963,0.527,1.591l0.01,0.438c0.099,0.167,0.248,0.312,0.448,0.433c0.199,0.122,0.414,0.182,0.644,0.182
			H28.246z M24.077,27.268v1.26c0,0.273,0.095,0.477,0.285,0.61c0.189,0.133,0.396,0.201,0.62,0.201
			c0.696,0,1.044-0.584,1.044-1.754c0-1.144-0.363-1.717-1.091-1.717C24.362,25.869,24.077,26.336,24.077,27.268z"/>
		<path fill="#979AA1" d="M28.582,24.265c-0.093,0.093-0.205,0.14-0.335,0.14c-0.131,0-0.243-0.046-0.336-0.14
			s-0.14-0.205-0.14-0.335s0.046-0.243,0.14-0.336s0.205-0.14,0.336-0.14c0.13,0,0.242,0.046,0.335,0.14
			c0.094,0.093,0.14,0.206,0.14,0.336S28.675,24.171,28.582,24.265z M30.568,25.487v2.667c0,0.417-0.091,0.751-0.275,1.003
			c-0.183,0.252-0.455,0.378-0.816,0.378h-1.324v-0.598h0.924c0.466,0,0.699-0.273,0.699-0.821v-1.996
			c0-0.174,0.098-0.323,0.293-0.448C30.266,25.549,30.432,25.487,30.568,25.487z M29.286,23.094
			c-0.083,0.085-0.188,0.126-0.312,0.126c-0.125,0-0.229-0.042-0.312-0.126c-0.084-0.083-0.126-0.188-0.126-0.312
			s0.042-0.229,0.126-0.312s0.188-0.126,0.312-0.126c0.125,0,0.229,0.042,0.312,0.126c0.084,0.084,0.126,0.188,0.126,0.312
			S29.37,23.01,29.286,23.094z M30.046,24.265c-0.093,0.093-0.205,0.14-0.335,0.14s-0.243-0.046-0.336-0.14s-0.14-0.205-0.14-0.335
			s0.046-0.243,0.14-0.336s0.206-0.14,0.336-0.14s0.242,0.046,0.335,0.14c0.094,0.093,0.141,0.206,0.141,0.336
			S30.14,24.171,30.046,24.265z"/>
	</g>
	<g>
		<path fill="#979AA1" d="M3.257,35.937v0.296H2.741c-0.171,0-0.306-0.05-0.405-0.148c-0.1-0.099-0.148-0.244-0.148-0.438
			c-0.042,0.056-0.121,0.108-0.238,0.157c-0.118,0.049-0.215,0.074-0.295,0.074c-0.121,0-0.225-0.023-0.312-0.067
			c-0.086-0.045-0.151-0.104-0.192-0.175c-0.042-0.073-0.071-0.144-0.087-0.213s-0.024-0.14-0.024-0.21c0-0.154,0.04-0.3,0.12-0.437
			c0.079-0.137,0.179-0.249,0.297-0.337s0.243-0.157,0.374-0.207c0.13-0.051,0.25-0.077,0.361-0.077
			c0.167,0,0.283,0.009,0.347,0.024v1.458c0,0.11,0.026,0.188,0.079,0.232c0.052,0.046,0.13,0.067,0.235,0.067H3.257z M2.188,35.498
			v-1.214c-0.181,0-0.361,0.096-0.537,0.288c-0.177,0.193-0.265,0.41-0.265,0.653c0,0.111,0.034,0.211,0.101,0.3
			c0.068,0.09,0.17,0.134,0.308,0.134c0.052,0,0.121-0.019,0.205-0.055C2.083,35.567,2.146,35.531,2.188,35.498z"/>
		<path fill="#979AA1" d="M3.216,35.937h1.944c0.022-0.129,0.034-0.243,0.034-0.342c0-0.363-0.094-0.655-0.283-0.877
			s-0.419-0.332-0.692-0.332c-0.314,0-0.585,0.092-0.813,0.277c-0.005,0.006-0.009,0.009-0.012,0.009
			c-0.011,0-0.017-0.017-0.017-0.051c0-0.037,0.012-0.108,0.034-0.212c0.011-0.016,0.055-0.093,0.134-0.229
			c0.078-0.137,0.155-0.262,0.229-0.374s0.173-0.22,0.297-0.321c0.124-0.102,0.246-0.152,0.368-0.152
			c0.121,0,0.237,0.034,0.349,0.104c0.112,0.069,0.201,0.15,0.268,0.246c0.068,0.096,0.123,0.188,0.164,0.275
			c0.042,0.088,0.062,0.157,0.062,0.209c0,0.02-0.009,0.032-0.029,0.038c-0.016,0-0.048-0.032-0.095-0.098L5.004,33.9
			c-0.057-0.076-0.134-0.146-0.227-0.21c-0.094-0.062-0.188-0.094-0.285-0.094c-0.116,0-0.235,0.066-0.358,0.2
			c-0.123,0.135-0.226,0.284-0.311,0.45c0.138-0.053,0.297-0.079,0.479-0.079c0.358,0,0.659,0.141,0.905,0.418
			c0.245,0.279,0.367,0.629,0.367,1.051c0,0.219-0.033,0.417-0.099,0.596H3.216V35.937z"/>
		<path fill="#979AA1" d="M6.553,33.103v2.511c0,0.185-0.032,0.33-0.097,0.437c-0.064,0.105-0.152,0.167-0.262,0.183v-2.816
			c0-0.083,0.044-0.155,0.131-0.219C6.414,33.134,6.49,33.103,6.553,33.103z"/>
		<path fill="#979AA1" d="M9.29,36.232H8.696c-0.022,0.292-0.114,0.521-0.277,0.685c-0.162,0.165-0.351,0.247-0.566,0.247
			c-0.29,0-0.519-0.055-0.689-0.166c0-0.046,0.022-0.105,0.068-0.18c0.046-0.074,0.093-0.115,0.143-0.125
			c0.039,0.076,0.095,0.138,0.17,0.183c0.074,0.044,0.134,0.07,0.182,0.078c0.046,0.008,0.09,0.012,0.127,0.012
			c0.13,0,0.245-0.055,0.345-0.164c0.101-0.108,0.151-0.236,0.151-0.381v-0.188H7.903c-0.259,0-0.459-0.091-0.601-0.271
			s-0.213-0.398-0.213-0.653c0-0.316,0.081-0.595,0.243-0.835c0.163-0.24,0.378-0.36,0.645-0.36c0.245,0,0.427,0.083,0.545,0.249
			C8.641,34.529,8.7,34.743,8.7,35.004v0.933h0.59V36.232z M8.349,35.937v-1.173c0-0.135-0.034-0.255-0.101-0.359
			C8.18,34.3,8.083,34.247,7.957,34.247c-0.097,0-0.18,0.028-0.25,0.085c-0.07,0.058-0.123,0.133-0.158,0.229
			c-0.036,0.096-0.063,0.193-0.079,0.294c-0.017,0.1-0.025,0.202-0.025,0.307c0,0.262,0.041,0.456,0.124,0.584
			c0.083,0.127,0.216,0.191,0.401,0.191H8.349z"/>
		<path fill="#979AA1" d="M11.9,35.937v0.296h-0.541c-0.215,0-0.447-0.044-0.698-0.13c-0.207,0.086-0.423,0.13-0.652,0.13h-0.76
			v-0.296h1.045c-0.395-0.221-0.591-0.521-0.591-0.899c0-0.244,0.075-0.444,0.223-0.601c0.148-0.157,0.337-0.235,0.565-0.235
			c0.251,0,0.464,0.088,0.639,0.266c0.174,0.177,0.261,0.399,0.261,0.667c0,0.332-0.143,0.6-0.429,0.803H11.9z M10.628,35.872
			c0.123-0.056,0.224-0.143,0.301-0.261c0.077-0.119,0.116-0.265,0.116-0.437c0-0.228-0.047-0.424-0.141-0.589
			c-0.093-0.164-0.229-0.247-0.409-0.247c-0.118,0-0.222,0.063-0.31,0.19c-0.087,0.126-0.131,0.29-0.131,0.494
			c0,0.215,0.053,0.395,0.159,0.539C10.319,35.707,10.457,35.811,10.628,35.872z M10.656,33.541
			c-0.041,0.046-0.09,0.069-0.147,0.069c-0.059,0-0.107-0.023-0.149-0.069c-0.041-0.046-0.062-0.102-0.062-0.166
			s0.021-0.12,0.062-0.166c0.042-0.047,0.091-0.069,0.149-0.069c0.058,0,0.106,0.022,0.147,0.069
			c0.042,0.046,0.062,0.102,0.062,0.166S10.699,33.495,10.656,33.541z"/>
		<path fill="#979AA1" d="M12.928,33.098v2.451c0,0.206-0.041,0.371-0.122,0.496c-0.082,0.125-0.202,0.188-0.362,0.188h-0.586
			v-0.296h0.409c0.206,0,0.31-0.136,0.31-0.406v-2.118c0-0.083,0.043-0.156,0.13-0.22C12.794,33.129,12.868,33.098,12.928,33.098z"
			/>
		<path fill="#979AA1" d="M13.908,33.103v2.511c0,0.185-0.033,0.33-0.098,0.437c-0.065,0.105-0.152,0.167-0.262,0.183v-2.816
			c0-0.083,0.044-0.155,0.132-0.219C13.768,33.134,13.844,33.103,13.908,33.103z"/>
		<path fill="#979AA1" d="M16.719,36.421v-0.517c-0.163,0.218-0.353,0.328-0.57,0.328c-0.129,0-0.244-0.032-0.343-0.096
			c-0.099-0.062-0.176-0.146-0.231-0.249c-0.055-0.103-0.096-0.212-0.123-0.327c-0.026-0.115-0.039-0.236-0.039-0.362
			c0-0.308,0.087-0.573,0.262-0.797c0.175-0.223,0.399-0.334,0.671-0.334c0.246,0,0.427,0.086,0.545,0.258
			c0.118,0.173,0.178,0.39,0.178,0.651v1.136c0,0.329-0.083,0.587-0.251,0.772c-0.168,0.187-0.366,0.279-0.595,0.279
			c-0.29,0-0.52-0.055-0.69-0.166c0-0.046,0.023-0.105,0.069-0.18c0.044-0.074,0.092-0.115,0.142-0.125
			c0.039,0.076,0.095,0.138,0.169,0.183c0.075,0.044,0.135,0.07,0.182,0.078c0.046,0.008,0.089,0.012,0.128,0.012
			c0.129,0,0.244-0.055,0.345-0.164C16.668,36.693,16.719,36.565,16.719,36.421z M16.719,35.452v-0.716
			c0-0.136-0.034-0.259-0.102-0.369c-0.067-0.11-0.165-0.166-0.291-0.166c-0.187,0-0.328,0.086-0.419,0.259
			c-0.092,0.172-0.138,0.368-0.138,0.59c0,0.265,0.044,0.479,0.134,0.642c0.089,0.164,0.216,0.245,0.378,0.245
			c0.132,0,0.238-0.038,0.318-0.115C16.679,35.744,16.719,35.621,16.719,35.452z"/>
		<path fill="#979AA1" d="M18.974,36.546v-2.179c0-0.083,0.043-0.156,0.13-0.22c0.086-0.062,0.16-0.094,0.221-0.094v2.059
			c0,0.335-0.081,0.589-0.241,0.764c-0.161,0.174-0.377,0.261-0.646,0.261c-0.058,0-0.122-0.014-0.193-0.042
			c-0.069-0.027-0.124-0.069-0.163-0.124c0-0.046,0.032-0.095,0.095-0.146c0.062-0.05,0.122-0.078,0.178-0.085
			c0.069,0.123,0.167,0.186,0.297,0.186c0.099,0,0.177-0.034,0.235-0.101C18.945,36.759,18.974,36.666,18.974,36.546z"/>
		<path fill="#979AA1" d="M21.013,35.937v0.296h-0.585c-0.16,0-0.28-0.062-0.361-0.188c-0.082-0.125-0.122-0.29-0.122-0.496v-2.137
			c0-0.083,0.044-0.155,0.134-0.218c0.089-0.062,0.164-0.092,0.226-0.092v2.428c0,0.271,0.103,0.406,0.309,0.406H21.013z"/>
		<path fill="#979AA1" d="M25.11,35.937v0.296h-0.099c-0.125,0-0.244-0.042-0.361-0.125c-0.118-0.083-0.212-0.181-0.283-0.291
			c-0.119,0.139-0.272,0.242-0.46,0.312s-0.384,0.104-0.584,0.104h-1.206c-0.119,0-0.212-0.059-0.281-0.176
			c-0.09,0.117-0.222,0.176-0.392,0.176h-0.471v-0.296h0.363c0.129,0,0.214-0.037,0.254-0.113c0.04-0.075,0.06-0.226,0.06-0.45
			v-0.374c0-0.082,0.044-0.155,0.132-0.219c0.089-0.062,0.164-0.095,0.227-0.095l-0.024,0.559c-0.009,0.139-0.016,0.24-0.021,0.305
			c-0.005,0.064-0.01,0.11-0.012,0.138c0.105-0.146,0.213-0.291,0.326-0.431c0.113-0.141,0.249-0.294,0.405-0.462
			c0.157-0.167,0.317-0.303,0.479-0.403c0.162-0.103,0.31-0.152,0.442-0.152c0.308,0,0.55,0.082,0.727,0.249
			c0.176,0.166,0.265,0.396,0.265,0.688c0,0.203-0.048,0.381-0.145,0.53c0.107,0.154,0.258,0.231,0.454,0.231H25.11z M21.975,35.937
			h1.38c0.258,0,0.471-0.068,0.638-0.206c0.167-0.136,0.25-0.33,0.25-0.583c0-0.228-0.055-0.406-0.165-0.535
			c-0.11-0.13-0.266-0.194-0.467-0.194c-0.137,0-0.299,0.071-0.483,0.213c-0.184,0.142-0.341,0.289-0.471,0.442
			c-0.129,0.154-0.27,0.331-0.423,0.531C22.081,35.805,21.995,35.915,21.975,35.937z M23.661,33.665
			c-0.042,0.047-0.092,0.07-0.15,0.07c-0.057,0-0.106-0.023-0.147-0.07c-0.042-0.045-0.062-0.102-0.062-0.165
			c0-0.065,0.021-0.121,0.062-0.167c0.041-0.046,0.09-0.069,0.147-0.069c0.058,0,0.108,0.023,0.15,0.069
			c0.04,0.046,0.062,0.102,0.062,0.167C23.723,33.563,23.701,33.62,23.661,33.665z"/>
		<path fill="#979AA1" d="M28.095,36.232h-3.027v-0.296h2.227c-0.125-0.086-0.237-0.199-0.337-0.339
			c-0.1-0.141-0.181-0.273-0.242-0.399l-0.19-0.37c-0.063-0.119-0.136-0.216-0.219-0.288s-0.179-0.108-0.289-0.108
			c-0.104,0-0.197,0.033-0.277,0.102c-0.079,0.067-0.136,0.142-0.172,0.222l-0.108,0.222c-0.032,0.067-0.06,0.103-0.082,0.106
			c-0.025,0-0.038-0.014-0.038-0.042c0.042-0.215,0.122-0.398,0.242-0.55c0.12-0.15,0.278-0.226,0.473-0.226
			c0.132,0,0.253,0.043,0.363,0.129c0.11,0.086,0.209,0.197,0.297,0.333l0.273,0.425c0.09,0.142,0.203,0.28,0.336,0.417
			c0.133,0.137,0.28,0.238,0.439,0.303c0.1,0.043,0.203,0.064,0.31,0.064h0.021V36.232z M26.195,33.712
			c-0.041,0.046-0.09,0.069-0.148,0.069c-0.058,0-0.108-0.023-0.148-0.069c-0.042-0.047-0.062-0.102-0.062-0.166
			c0-0.065,0.021-0.12,0.062-0.167c0.041-0.046,0.091-0.068,0.148-0.068c0.058,0,0.107,0.022,0.148,0.068
			c0.041,0.047,0.062,0.102,0.062,0.167C26.258,33.61,26.236,33.665,26.195,33.712z"/>
		<path fill="#979AA1" d="M29.718,35.937v0.296h-0.099c-0.124,0-0.244-0.042-0.361-0.125s-0.21-0.181-0.279-0.291
			c-0.064,0.277-0.241,0.416-0.533,0.416h-0.392v-0.296h0.338c0.063,0,0.116-0.015,0.157-0.044c0.041-0.029,0.071-0.072,0.089-0.129
			c0.018-0.058,0.029-0.109,0.032-0.157c0.005-0.048,0.007-0.108,0.007-0.182v-2.009c0-0.083,0.043-0.155,0.13-0.219
			c0.086-0.063,0.16-0.095,0.221-0.095v2.552c0.041,0.08,0.105,0.147,0.194,0.201c0.088,0.055,0.184,0.081,0.289,0.081H29.718z"/>
		<path fill="#979AA1" d="M30.746,33.098v2.451c0,0.206-0.041,0.371-0.121,0.496c-0.082,0.125-0.203,0.188-0.362,0.188h-0.585
			v-0.296h0.409c0.207,0,0.31-0.136,0.31-0.406v-2.118c0-0.083,0.043-0.156,0.13-0.22C30.612,33.129,30.687,33.098,30.746,33.098z"
			/>
	</g>
</g>
</svg>
