<?xml version="1.0" encoding="utf-8"?>
<!-- Generator: Adobe Illustrator 16.0.0, SVG Export Plug-In . SVG Version: 6.00 Build 0)  -->
<!DOCTYPE svg PUBLIC "-//W3C//DTD SVG 1.1//EN" "http://www.w3.org/Graphics/SVG/1.1/DTD/svg11.dtd">
<svg version="1.1" id="Layer_1" xmlns="http://www.w3.org/2000/svg" xmlns:xlink="http://www.w3.org/1999/xlink" x="0px" y="0px"
	 width="40.729px" height="21px" viewBox="0 0 40.729 21" enable-background="new 0 0 40.729 21" xml:space="preserve">
<g>
	<g>
		<path fill="#FFFFFF" d="M9.994,19.579c-1.418,0-2.719-0.203-3.9-0.607c-1.182-0.406-2.191-1.001-3.026-1.786
			c-0.836-0.784-1.486-1.747-1.95-2.887s-0.696-2.444-0.696-3.913c0-1.367,0.245-2.616,0.734-3.747
			c0.49-1.132,1.169-2.103,2.039-2.914c0.87-0.81,1.899-1.438,3.089-1.886c1.19-0.447,2.478-0.672,3.862-0.672
			s2.667,0.225,3.85,0.672c1.182,0.447,2.203,1.071,3.064,1.874c0.861,0.802,1.533,1.765,2.014,2.887
			c0.481,1.124,0.722,2.359,0.722,3.71c0,0.692-0.076,1.338-0.228,1.938c-0.152,0.6-0.354,1.145-0.608,1.634
			c-0.253,0.49-0.541,0.924-0.861,1.305c-0.321,0.379-0.642,0.695-0.962,0.949v0.076l3.774-0.076v3.444H9.994z M15.211,10.437
			c0-0.776-0.123-1.494-0.367-2.152c-0.245-0.659-0.592-1.224-1.039-1.696c-0.448-0.473-0.984-0.84-1.608-1.103
			c-0.625-0.262-1.309-0.393-2.051-0.393c-0.726,0-1.397,0.131-2.013,0.393c-0.617,0.263-1.153,0.63-1.608,1.103
			S5.714,7.625,5.46,8.284c-0.253,0.658-0.38,1.376-0.38,2.152c0,0.81,0.122,1.549,0.367,2.216c0.245,0.667,0.591,1.241,1.039,1.722
			c0.447,0.481,0.979,0.853,1.595,1.114c0.616,0.262,1.296,0.393,2.039,0.393c0.726,0,1.401-0.131,2.026-0.393
			c0.625-0.262,1.165-0.633,1.62-1.114c0.457-0.48,0.811-1.055,1.064-1.722C15.084,11.985,15.211,11.246,15.211,10.437z"/>
		<path fill="#FFFFFF" d="M30.734,5.347v14.232h-4.33V5.347h-5.065V1.648h14.46v3.698H30.734z"/>
	</g>
	<g>
		<path fill="#F9D922" d="M40.308,17.35c0,0.709-0.25,1.301-0.747,1.773c-0.499,0.473-1.093,0.709-1.786,0.709
			c-0.354,0-0.688-0.062-1-0.19c-0.313-0.126-0.587-0.299-0.824-0.519c-0.236-0.219-0.422-0.478-0.557-0.772
			c-0.136-0.295-0.203-0.62-0.203-0.976c0-0.338,0.067-0.657,0.203-0.962c0.135-0.304,0.32-0.569,0.557-0.798
			c0.236-0.228,0.511-0.409,0.824-0.544c0.312-0.136,0.646-0.202,1-0.202c0.693,0,1.288,0.236,1.786,0.709
			C40.058,16.051,40.308,16.641,40.308,17.35z"/>
	</g>
</g>
</svg>
